STARTFONT 2.1
COMMENT 
COMMENT  Copyright (c) 2019, Léo Villeveygoux
COMMENT 
COMMENT  License to copy and distribute for both commercial and
COMMENT  non-commercial use is herby granted, provided this notice
COMMENT  is preserved.
COMMENT 
COMMENT  l@vgx.fr
COMMENT  http://git.vgx.fr/fonts
COMMENT 
COMMENT  Produced with bdfedit, a tcl/tk font editing program
COMMENT  written by Thomas A. Fine
FONT -gbdfed-sqaps-Medium-R-Normal--9-80-96-96-M-3-ISO10646-1
SIZE 11 96 96
FONTBOUNDINGBOX 9 11 0 -1
STARTPROPERTIES 12
FOUNDRY "gbdfed"
FAMILY_NAME "sqaps"
WEIGHT_NAME "Medium"
SLANT "R"
SETWIDTH_NAME "Normal"
SPACING "C"
CHARSET_REGISTRY "ISO-8859"
CHARSET_ENCODING "1"
COPYRIGHT "Designer of this font retains full rights under the law"
FONT_ASCENT 9
FONT_DESCENT 1
_GBDFED_INFO "Edited with gbdfed 1.6."
ENDPROPERTIES
CHARS 1633
STARTCHAR U+0020
ENCODING 32
SWIDTH 613 0
DWIDTH 9 0
BBX 9 11 0 -1
BITMAP
0000
0000
0000
0000
0000
0000
0000
0000
0000
0000
000E
ENDCHAR
STARTCHAR U+0021
ENCODING 33
SWIDTH 613 0
DWIDTH 9 0
BBX 9 11 0 -1
BITMAP
0000
1000
1000
1000
1000
1000
1000
0000
0000
1000
0000
ENDCHAR
STARTCHAR U+0022
ENCODING 34
SWIDTH 613 0
DWIDTH 9 0
BBX 9 11 0 -1
BITMAP
0000
2800
2800
2800
0000
0000
0000
0000
0000
0000
0000
ENDCHAR
STARTCHAR U+0023
ENCODING 35
SWIDTH 613 0
DWIDTH 9 0
BBX 9 11 0 -1
BITMAP
0000
0000
0000
2800
2800
FE00
2800
FE00
2800
2800
0000
ENDCHAR
STARTCHAR U+0024
ENCODING 36
SWIDTH 613 0
DWIDTH 9 0
BBX 9 11 0 -1
BITMAP
0000
0000
1000
FE00
9000
9000
FE00
1200
1200
FE00
1000
ENDCHAR
STARTCHAR U+0025
ENCODING 37
SWIDTH 613 0
DWIDTH 9 0
BBX 9 11 0 -1
BITMAP
0000
0000
0000
2200
0200
0200
FE00
8000
8000
8800
0000
ENDCHAR
STARTCHAR U+0026
ENCODING 38
SWIDTH 613 0
DWIDTH 9 0
BBX 9 11 0 -1
BITMAP
0000
0000
7C00
4400
4400
4400
FC00
8400
8400
FE00
0400
ENDCHAR
STARTCHAR U+0027
ENCODING 39
SWIDTH 613 0
DWIDTH 9 0
BBX 9 11 0 -1
BITMAP
0000
1000
1000
1000
0000
0000
0000
0000
0000
0000
0000
ENDCHAR
STARTCHAR U+0028
ENCODING 40
SWIDTH 613 0
DWIDTH 9 0
BBX 9 11 0 -1
BITMAP
0000
1000
1000
3000
2000
2000
2000
2000
3000
1000
1000
ENDCHAR
STARTCHAR U+0029
ENCODING 41
SWIDTH 613 0
DWIDTH 9 0
BBX 9 11 0 -1
BITMAP
0000
1000
1000
1800
0800
0800
0800
0800
1800
1000
1000
ENDCHAR
STARTCHAR U+002A
ENCODING 42
SWIDTH 613 0
DWIDTH 9 0
BBX 9 11 0 -1
BITMAP
0000
0000
0000
2800
3800
1000
7C00
1000
3800
2800
0000
ENDCHAR
STARTCHAR U+002B
ENCODING 43
SWIDTH 613 0
DWIDTH 9 0
BBX 9 11 0 -1
BITMAP
0000
0000
0001
1001
1001
100F
FE01
1001
1001
1000
000E
ENDCHAR
STARTCHAR U+002C
ENCODING 44
SWIDTH 613 0
DWIDTH 9 0
BBX 9 11 0 -1
BITMAP
0000
0000
0000
0000
0000
0000
0000
0000
0001
1003
300E
ENDCHAR
STARTCHAR U+002D
ENCODING 45
SWIDTH 613 0
DWIDTH 9 0
BBX 9 11 0 -1
BITMAP
0000
0000
0000
0000
0000
0007
7C00
0000
0000
0000
000E
ENDCHAR
STARTCHAR U+002E
ENCODING 46
SWIDTH 613 0
DWIDTH 9 0
BBX 9 11 0 -1
BITMAP
0000
0000
0000
0000
0000
0000
0000
0000
0001
1000
000E
ENDCHAR
STARTCHAR U+002F
ENCODING 47
SWIDTH 613 0
DWIDTH 9 0
BBX 9 11 0 -1
BITMAP
0000
0400
0400
0400
0400
3C00
2000
2000
2000
2000
0000
ENDCHAR
STARTCHAR U+0030
ENCODING 48
SWIDTH 613 0
DWIDTH 9 0
BBX 9 11 0 -1
BITMAP
0000
0000
0007
7C04
4405
5405
5405
5404
4407
7C00
000E
ENDCHAR
STARTCHAR U+0031
ENCODING 49
SWIDTH 613 0
DWIDTH 9 0
BBX 9 11 0 -1
BITMAP
0000
0000
0001
1001
1003
3001
1001
1001
1001
1000
000E
ENDCHAR
STARTCHAR U+0032
ENCODING 50
SWIDTH 613 0
DWIDTH 9 0
BBX 9 11 0 -1
BITMAP
0000
0000
0007
7C00
0400
0407
7C04
4004
4007
7C00
000E
ENDCHAR
STARTCHAR U+0033
ENCODING 51
SWIDTH 613 0
DWIDTH 9 0
BBX 9 11 0 -1
BITMAP
0000
0000
0007
7C00
0400
0407
7C00
0400
0407
7C00
000E
ENDCHAR
STARTCHAR U+0034
ENCODING 52
SWIDTH 613 0
DWIDTH 9 0
BBX 9 11 0 -1
BITMAP
0000
0000
0004
4404
4404
4407
7C00
0400
0400
0400
000E
ENDCHAR
STARTCHAR U+0035
ENCODING 53
SWIDTH 613 0
DWIDTH 9 0
BBX 9 11 0 -1
BITMAP
0000
0000
0007
7C04
4004
4007
7C00
0400
0407
7C00
000E
ENDCHAR
STARTCHAR U+0036
ENCODING 54
SWIDTH 613 0
DWIDTH 9 0
BBX 9 11 0 -1
BITMAP
0000
0000
0007
7C04
4004
4007
7C04
4404
4407
7C00
000E
ENDCHAR
STARTCHAR U+0037
ENCODING 55
SWIDTH 613 0
DWIDTH 9 0
BBX 9 11 0 -1
BITMAP
0000
0000
0007
7C00
0400
0400
0C00
0400
0400
0400
000E
ENDCHAR
STARTCHAR U+0038
ENCODING 56
SWIDTH 613 0
DWIDTH 9 0
BBX 9 11 0 -1
BITMAP
0000
0000
0007
7C04
4404
4407
7C04
4404
4407
7C00
000E
ENDCHAR
STARTCHAR U+0039
ENCODING 57
SWIDTH 613 0
DWIDTH 9 0
BBX 9 11 0 -1
BITMAP
0000
0000
0007
7C04
4404
4407
7C00
0400
0407
7C00
000E
ENDCHAR
STARTCHAR U+003A
ENCODING 58
SWIDTH 613 0
DWIDTH 9 0
BBX 9 11 0 -1
BITMAP
0000
0000
0000
0001
1000
0000
0000
0001
1000
0000
000E
ENDCHAR
STARTCHAR U+003B
ENCODING 59
SWIDTH 613 0
DWIDTH 9 0
BBX 9 11 0 -1
BITMAP
0000
0000
0000
0001
1000
0000
0000
0000
0001
1003
300E
ENDCHAR
STARTCHAR U+003C
ENCODING 60
SWIDTH 613 0
DWIDTH 9 0
BBX 9 11 0 -1
BITMAP
0000
0000
0000
0000
0803
3802
2003
3800
0800
0000
000E
ENDCHAR
STARTCHAR U+003D
ENCODING 61
SWIDTH 613 0
DWIDTH 9 0
BBX 9 11 0 -1
BITMAP
0000
0000
0000
0000
0007
7C00
0007
7C00
0000
0000
000E
ENDCHAR
STARTCHAR U+003E
ENCODING 62
SWIDTH 613 0
DWIDTH 9 0
BBX 9 11 0 -1
BITMAP
0000
0000
0000
0002
2003
3800
0803
3802
2000
0000
000E
ENDCHAR
STARTCHAR U+003F
ENCODING 63
SWIDTH 613 0
DWIDTH 9 0
BBX 9 11 0 -1
BITMAP
0000
FE00
8200
8200
8200
0200
1E00
1000
0000
1000
0000
ENDCHAR
STARTCHAR U+0040
ENCODING 64
SWIDTH 613 0
DWIDTH 9 0
BBX 9 11 0 -1
BITMAP
0000
0000
000F
FE08
820B
BA0A
AA0B
BE08
800F
FE00
000E
ENDCHAR
STARTCHAR U+0041
ENCODING 65
SWIDTH 613 0
DWIDTH 9 0
BBX 9 11 0 -1
BITMAP
0000
FE00
8200
8200
8200
FE00
8200
8200
8200
8200
0000
ENDCHAR
STARTCHAR U+0042
ENCODING 66
SWIDTH 613 0
DWIDTH 9 0
BBX 9 11 0 -1
BITMAP
0000
F800
8800
8800
8800
FE00
8200
8200
8200
FE00
0000
ENDCHAR
STARTCHAR U+0043
ENCODING 67
SWIDTH 613 0
DWIDTH 9 0
BBX 9 11 0 -1
BITMAP
0000
FE00
8000
8000
8000
8000
8000
8000
8000
FE00
0000
ENDCHAR
STARTCHAR U+0044
ENCODING 68
SWIDTH 613 0
DWIDTH 9 0
BBX 9 11 0 -1
BITMAP
0000
F800
8E00
8200
8200
8200
8200
8200
8E00
F800
0000
ENDCHAR
STARTCHAR U+0045
ENCODING 69
SWIDTH 613 0
DWIDTH 9 0
BBX 9 11 0 -1
BITMAP
0000
FE00
8000
8000
8000
FE00
8000
8000
8000
FE00
0000
ENDCHAR
STARTCHAR U+0046
ENCODING 70
SWIDTH 613 0
DWIDTH 9 0
BBX 9 11 0 -1
BITMAP
0000
FE00
8000
8000
8000
FE00
8000
8000
8000
8000
0000
ENDCHAR
STARTCHAR U+0047
ENCODING 71
SWIDTH 613 0
DWIDTH 9 0
BBX 9 11 0 -1
BITMAP
0000
FE00
8000
8000
8000
9E00
8200
8200
8200
FE00
0000
ENDCHAR
STARTCHAR U+0048
ENCODING 72
SWIDTH 613 0
DWIDTH 9 0
BBX 9 11 0 -1
BITMAP
0000
8200
8200
8200
8200
FE00
8200
8200
8200
8200
0000
ENDCHAR
STARTCHAR U+0049
ENCODING 73
SWIDTH 613 0
DWIDTH 9 0
BBX 9 11 0 -1
BITMAP
0000
FE00
1000
1000
1000
1000
1000
1000
1000
FE00
0000
ENDCHAR
STARTCHAR U+004A
ENCODING 74
SWIDTH 613 0
DWIDTH 9 0
BBX 9 11 0 -1
BITMAP
0000
0200
0200
0200
0200
0200
8200
8200
8200
FE00
0000
ENDCHAR
STARTCHAR U+004B
ENCODING 75
SWIDTH 613 0
DWIDTH 9 0
BBX 9 11 0 -1
BITMAP
0000
8E00
8800
8800
8800
F800
8800
8800
8800
8E00
0000
ENDCHAR
STARTCHAR U+004C
ENCODING 76
SWIDTH 613 0
DWIDTH 9 0
BBX 9 11 0 -1
BITMAP
0000
8000
8000
8000
8000
8000
8000
8000
8000
FE00
0000
ENDCHAR
STARTCHAR U+004D
ENCODING 77
SWIDTH 613 0
DWIDTH 9 0
BBX 9 11 0 -1
BITMAP
0000
FE00
9200
9200
9200
9200
9200
9200
9200
9200
0000
ENDCHAR
STARTCHAR U+004E
ENCODING 78
SWIDTH 613 0
DWIDTH 9 0
BBX 9 11 0 -1
BITMAP
0000
F200
9200
9200
9200
9200
9200
9200
9200
9E00
0000
ENDCHAR
STARTCHAR U+004F
ENCODING 79
SWIDTH 613 0
DWIDTH 9 0
BBX 9 11 0 -1
BITMAP
0000
FE00
8200
8200
8200
8200
8200
8200
8200
FE00
0000
ENDCHAR
STARTCHAR U+0050
ENCODING 80
SWIDTH 613 0
DWIDTH 9 0
BBX 9 11 0 -1
BITMAP
0000
FE00
8200
8200
8200
8200
FE00
8000
8000
8000
0000
ENDCHAR
STARTCHAR U+0051
ENCODING 81
SWIDTH 613 0
DWIDTH 9 0
BBX 9 11 0 -1
BITMAP
0000
FE00
8200
8200
8200
8200
9200
9200
9200
FE00
0000
ENDCHAR
STARTCHAR U+0052
ENCODING 82
SWIDTH 613 0
DWIDTH 9 0
BBX 9 11 0 -1
BITMAP
0000
FE00
8200
8200
8200
FE00
8800
8800
8800
8E00
0000
ENDCHAR
STARTCHAR U+0053
ENCODING 83
SWIDTH 613 0
DWIDTH 9 0
BBX 9 11 0 -1
BITMAP
0000
FE00
8000
8000
8000
FE00
0200
0200
0200
FE00
0000
ENDCHAR
STARTCHAR U+0054
ENCODING 84
SWIDTH 613 0
DWIDTH 9 0
BBX 9 11 0 -1
BITMAP
0000
FE00
1000
1000
1000
1000
1000
1000
1000
1000
0000
ENDCHAR
STARTCHAR U+0055
ENCODING 85
SWIDTH 613 0
DWIDTH 9 0
BBX 9 11 0 -1
BITMAP
0000
8200
8200
8200
8200
8200
8200
8200
8200
FE00
0000
ENDCHAR
STARTCHAR U+0056
ENCODING 86
SWIDTH 613 0
DWIDTH 9 0
BBX 9 11 0 -1
BITMAP
0000
8200
8200
8200
8200
8200
EE00
2800
2800
3800
0000
ENDCHAR
STARTCHAR U+0057
ENCODING 87
SWIDTH 613 0
DWIDTH 9 0
BBX 9 11 0 -1
BITMAP
0000
9200
9200
9200
9200
9200
9200
9200
9200
FE00
0000
ENDCHAR
STARTCHAR U+0058
ENCODING 88
SWIDTH 613 0
DWIDTH 9 0
BBX 9 11 0 -1
BITMAP
0000
8200
8200
8200
FE00
1000
FE00
8200
8200
8200
0000
ENDCHAR
STARTCHAR U+0059
ENCODING 89
SWIDTH 613 0
DWIDTH 9 0
BBX 9 11 0 -1
BITMAP
0000
8200
8200
8200
8200
FE00
1000
1000
1000
1000
0000
ENDCHAR
STARTCHAR U+005A
ENCODING 90
SWIDTH 613 0
DWIDTH 9 0
BBX 9 11 0 -1
BITMAP
0000
FE00
0200
0200
1200
FE00
9000
8000
8000
FE00
0000
ENDCHAR
STARTCHAR U+005B
ENCODING 91
SWIDTH 613 0
DWIDTH 9 0
BBX 9 11 0 -1
BITMAP
0000
3800
2000
2000
2000
2000
2000
2000
2000
2000
3800
ENDCHAR
STARTCHAR U+005C
ENCODING 92
SWIDTH 613 0
DWIDTH 9 0
BBX 9 11 0 -1
BITMAP
0000
2000
2000
2000
2000
3800
0800
0800
0800
0800
0000
ENDCHAR
STARTCHAR U+005D
ENCODING 93
SWIDTH 613 0
DWIDTH 9 0
BBX 9 11 0 -1
BITMAP
0000
3800
0800
0800
0800
0800
0800
0800
0800
0800
3800
ENDCHAR
STARTCHAR U+005E
ENCODING 94
SWIDTH 613 0
DWIDTH 9 0
BBX 9 11 0 -1
BITMAP
0000
3800
2800
0000
0000
0000
0000
0000
0000
0000
0000
ENDCHAR
STARTCHAR U+005F
ENCODING 95
SWIDTH 613 0
DWIDTH 9 0
BBX 9 11 0 -1
BITMAP
0000
0000
0000
0000
0000
0000
0000
0000
000F
FE00
000E
ENDCHAR
STARTCHAR U+0060
ENCODING 96
SWIDTH 613 0
DWIDTH 9 0
BBX 9 11 0 -1
BITMAP
0000
3800
0800
0000
0000
0000
0000
0000
0000
0000
0000
ENDCHAR
STARTCHAR U+0041
ENCODING 97
SWIDTH 613 0
DWIDTH 9 0
BBX 9 11 0 -1
BITMAP
0000
0000
000F
FE08
8208
820F
FE08
8208
8208
8200
000E
ENDCHAR
STARTCHAR U+0042
ENCODING 98
SWIDTH 613 0
DWIDTH 9 0
BBX 9 11 0 -1
BITMAP
0000
0000
000F
F009
9009
900F
FE08
8208
820F
FE00
000E
ENDCHAR
STARTCHAR U+0043
ENCODING 99
SWIDTH 613 0
DWIDTH 9 0
BBX 9 11 0 -1
BITMAP
0000
0000
000F
FE08
8008
8008
8008
8008
800F
FE00
000E
ENDCHAR
STARTCHAR U+0044
ENCODING 100
SWIDTH 613 0
DWIDTH 9 0
BBX 9 11 0 -1
BITMAP
0000
0000
000F
F808
8E08
8208
8208
8208
8E0F
F800
000E
ENDCHAR
STARTCHAR U+0045
ENCODING 101
SWIDTH 613 0
DWIDTH 9 0
BBX 9 11 0 -1
BITMAP
0000
0000
000F
FE08
8008
800F
FE08
8008
800F
FE00
000E
ENDCHAR
STARTCHAR U+0046
ENCODING 102
SWIDTH 613 0
DWIDTH 9 0
BBX 9 11 0 -1
BITMAP
0000
0000
000F
FE08
8008
800F
FE08
8008
8008
8000
000E
ENDCHAR
STARTCHAR U+0047
ENCODING 103
SWIDTH 613 0
DWIDTH 9 0
BBX 9 11 0 -1
BITMAP
0000
0000
000F
FE08
8008
8009
9E08
8208
820F
FE00
000E
ENDCHAR
STARTCHAR U+0048
ENCODING 104
SWIDTH 613 0
DWIDTH 9 0
BBX 9 11 0 -1
BITMAP
0000
0000
0008
8208
8208
820F
FE08
8208
8208
8200
000E
ENDCHAR
STARTCHAR U+0049
ENCODING 105
SWIDTH 613 0
DWIDTH 9 0
BBX 9 11 0 -1
BITMAP
0000
0000
000F
FE01
1001
1001
1001
1001
100F
FE00
000E
ENDCHAR
STARTCHAR U+004A
ENCODING 106
SWIDTH 613 0
DWIDTH 9 0
BBX 9 11 0 -1
BITMAP
0000
0000
0000
0200
0200
0200
0208
8208
820F
FE00
000E
ENDCHAR
STARTCHAR U+004B
ENCODING 107
SWIDTH 613 0
DWIDTH 9 0
BBX 9 11 0 -1
BITMAP
0000
0000
0008
8E08
8808
880F
F808
8808
8808
8E00
000E
ENDCHAR
STARTCHAR U+004C
ENCODING 108
SWIDTH 613 0
DWIDTH 9 0
BBX 9 11 0 -1
BITMAP
0000
0000
0008
8008
8008
8008
8008
8008
800F
FE00
000E
ENDCHAR
STARTCHAR U+004D
ENCODING 109
SWIDTH 613 0
DWIDTH 9 0
BBX 9 11 0 -1
BITMAP
0000
0000
000F
FE09
9209
9209
9209
9209
9209
9200
000E
ENDCHAR
STARTCHAR U+004E
ENCODING 110
SWIDTH 613 0
DWIDTH 9 0
BBX 9 11 0 -1
BITMAP
0000
0000
000F
F209
9209
9209
9209
9209
9209
9E00
000E
ENDCHAR
STARTCHAR U+004F
ENCODING 111
SWIDTH 613 0
DWIDTH 9 0
BBX 9 11 0 -1
BITMAP
0000
0000
000F
FE08
8208
8208
8208
8208
820F
FE00
000E
ENDCHAR
STARTCHAR U+0050
ENCODING 112
SWIDTH 613 0
DWIDTH 9 0
BBX 9 11 0 -1
BITMAP
0000
0000
0000
FE00
8200
8200
FE00
8000
8000
8000
0000
ENDCHAR
STARTCHAR U+0051
ENCODING 113
SWIDTH 613 0
DWIDTH 9 0
BBX 9 11 0 -1
BITMAP
0000
0000
000F
FE08
8208
8209
9209
9209
920F
FE00
000E
ENDCHAR
STARTCHAR U+0052
ENCODING 114
SWIDTH 613 0
DWIDTH 9 0
BBX 9 11 0 -1
BITMAP
0000
0000
000F
FE08
8208
820F
FE08
8808
8808
8E00
000E
ENDCHAR
STARTCHAR U+0053
ENCODING 115
SWIDTH 613 0
DWIDTH 9 0
BBX 9 11 0 -1
BITMAP
0000
0000
000F
FE08
8008
800F
FE00
0200
020F
FE00
000E
ENDCHAR
STARTCHAR U+0054
ENCODING 116
SWIDTH 613 0
DWIDTH 9 0
BBX 9 11 0 -1
BITMAP
0000
0000
000F
FE01
1001
1001
1001
1001
1001
1000
000E
ENDCHAR
STARTCHAR U+0055
ENCODING 117
SWIDTH 613 0
DWIDTH 9 0
BBX 9 11 0 -1
BITMAP
0000
0000
0008
8208
8208
8208
8208
8208
820F
FE00
000E
ENDCHAR
STARTCHAR U+0056
ENCODING 118
SWIDTH 613 0
DWIDTH 9 0
BBX 9 11 0 -1
BITMAP
0000
0000
0008
8208
8208
820E
EE02
2802
2803
3800
000E
ENDCHAR
STARTCHAR U+0057
ENCODING 119
SWIDTH 613 0
DWIDTH 9 0
BBX 9 11 0 -1
BITMAP
0000
0000
0009
9209
9209
9209
9209
9209
920F
FE00
000E
ENDCHAR
STARTCHAR U+0058
ENCODING 120
SWIDTH 613 0
DWIDTH 9 0
BBX 9 11 0 -1
BITMAP
0000
0000
0008
8208
820F
FE01
100F
FE08
8208
8200
000E
ENDCHAR
STARTCHAR U+0059
ENCODING 121
SWIDTH 613 0
DWIDTH 9 0
BBX 9 11 0 -1
BITMAP
0000
0000
0008
8208
8208
820F
FE01
1001
1001
1000
000E
ENDCHAR
STARTCHAR U+005A
ENCODING 122
SWIDTH 613 0
DWIDTH 9 0
BBX 9 11 0 -1
BITMAP
0000
0000
000F
FE00
0201
120F
FE09
9008
800F
FE00
000E
ENDCHAR
STARTCHAR U+007B
ENCODING 123
SWIDTH 613 0
DWIDTH 9 0
BBX 9 11 0 -1
BITMAP
0000
3800
2000
2000
2000
6000
6000
2000
2000
2000
3800
ENDCHAR
STARTCHAR U+007C
ENCODING 124
SWIDTH 613 0
DWIDTH 9 0
BBX 9 11 0 -1
BITMAP
0000
1000
1000
1000
1000
1000
1000
1000
1000
1000
1000
ENDCHAR
STARTCHAR U+007D
ENCODING 125
SWIDTH 613 0
DWIDTH 9 0
BBX 9 11 0 -1
BITMAP
0000
3800
0800
0800
0800
0C00
0C00
0800
0800
0800
3800
ENDCHAR
STARTCHAR U+007E
ENCODING 126
SWIDTH 613 0
DWIDTH 9 0
BBX 9 11 0 -1
BITMAP
0000
0000
0000
0000
000F
F209
9209
9E00
0000
0000
000E
ENDCHAR
STARTCHAR U+00A1
ENCODING 161
SWIDTH 613 0
DWIDTH 9 0
BBX 9 11 0 -1
BITMAP
0000
1000
0000
0000
1000
1000
1000
1000
1000
1000
1000
ENDCHAR
STARTCHAR U+00A2
ENCODING 162
SWIDTH 613 0
DWIDTH 9 0
BBX 9 11 0 -1
BITMAP
0000
0001
100F
FE09
9009
9009
9009
9009
900F
FE01
100E
ENDCHAR
STARTCHAR U+00A3
ENCODING 163
SWIDTH 613 0
DWIDTH 9 0
BBX 9 11 0 -1
BITMAP
0000
7E00
4200
4200
4200
4000
F000
4000
4000
F800
0000
ENDCHAR
STARTCHAR U+00A4
ENCODING 164
SWIDTH 613 0
DWIDTH 9 0
BBX 9 11 0 -1
BITMAP
0000
0000
0000
0004
4403
3802
2803
3804
4400
0000
000E
ENDCHAR
STARTCHAR U+00A5
ENCODING 165
SWIDTH 613 0
DWIDTH 9 0
BBX 9 11 0 -1
BITMAP
0000
4400
4400
FE00
4400
FE00
4400
7C00
1000
1000
0000
ENDCHAR
STARTCHAR U+00A6
ENCODING 166
SWIDTH 613 0
DWIDTH 9 0
BBX 9 11 0 -1
BITMAP
0000
1000
1000
1000
1000
0000
0000
1000
1000
1000
1000
ENDCHAR
STARTCHAR U+00A7
ENCODING 167
SWIDTH 613 0
DWIDTH 9 0
BBX 9 11 0 -1
BITMAP
0000
FE00
8000
8000
FE00
8200
FE00
0200
0200
FE00
0000
ENDCHAR
STARTCHAR U+00A8
ENCODING 168
SWIDTH 613 0
DWIDTH 9 0
BBX 9 11 0 -1
BITMAP
0000
4400
0000
0000
0000
0000
0000
0000
0000
0000
0000
ENDCHAR
STARTCHAR U+00A9
ENCODING 169
SWIDTH 613 0
DWIDTH 9 0
BBX 9 11 0 -1
BITMAP
0000
0000
FE00
8200
BA00
A200
BA00
8200
FE00
0000
0000
ENDCHAR
STARTCHAR U+00AA
ENCODING 170
SWIDTH 613 0
DWIDTH 9 0
BBX 9 11 0 -1
BITMAP
0000
7C00
4400
4400
7C00
4400
0000
0000
0000
0000
0000
ENDCHAR
STARTCHAR U+00AB
ENCODING 171
SWIDTH 613 0
DWIDTH 9 0
BBX 9 11 0 -1
BITMAP
0000
0000
0000
0000
0C06
6804
4806
6800
0C00
0000
000E
ENDCHAR
STARTCHAR U+00AC
ENCODING 172
SWIDTH 613 0
DWIDTH 9 0
BBX 9 11 0 -1
BITMAP
0000
0000
0000
0000
000F
FE00
0200
0200
0200
0000
000E
ENDCHAR
STARTCHAR U+00AD
ENCODING 173
SWIDTH 613 0
DWIDTH 9 0
BBX 9 11 0 -1
BITMAP
0000
0000
0000
0000
0000
0007
7C00
0000
0000
0000
000E
ENDCHAR
STARTCHAR U+00AE
ENCODING 174
SWIDTH 613 0
DWIDTH 9 0
BBX 9 11 0 -1
BITMAP
0000
0000
FE00
8200
BA00
A200
A200
8200
FE00
0000
0000
ENDCHAR
STARTCHAR U+00AF
ENCODING 175
SWIDTH 613 0
DWIDTH 9 0
BBX 9 11 0 -1
BITMAP
0000
7C00
0000
0000
0000
0000
0000
0000
0000
0000
0000
ENDCHAR
STARTCHAR U+00B0
ENCODING 176
SWIDTH 613 0
DWIDTH 9 0
BBX 9 11 0 -1
BITMAP
0000
7C00
4400
4400
4400
7C00
0000
0000
0000
0000
0000
ENDCHAR
STARTCHAR U+00B1
ENCODING 177
SWIDTH 613 0
DWIDTH 9 0
BBX 9 11 0 -1
BITMAP
0000
0000
0001
1001
1001
100F
FE01
1001
100F
FE00
000E
ENDCHAR
STARTCHAR U+00B2
ENCODING 178
SWIDTH 613 0
DWIDTH 9 0
BBX 9 11 0 -1
BITMAP
0000
3800
0800
3800
2000
3800
0000
0000
0000
0000
0000
ENDCHAR
STARTCHAR U+00B3
ENCODING 179
SWIDTH 613 0
DWIDTH 9 0
BBX 9 11 0 -1
BITMAP
0000
3800
0800
3800
0800
3800
0000
0000
0000
0000
0000
ENDCHAR
STARTCHAR U+00B4
ENCODING 180
SWIDTH 613 0
DWIDTH 9 0
BBX 9 11 0 -1
BITMAP
0000
3800
2000
0000
0000
0000
0000
0000
0000
0000
0000
ENDCHAR
STARTCHAR U+00B5
ENCODING 181
SWIDTH 613 0
DWIDTH 9 0
BBX 9 11 0 -1
BITMAP
0000
0000
0008
8208
8208
8208
8208
820F
FE08
8008
800E
ENDCHAR
STARTCHAR U+00B6
ENCODING 182
SWIDTH 613 0
DWIDTH 9 0
BBX 9 11 0 -1
BITMAP
0000
FE00
F200
F200
F200
F200
F200
1200
1200
1E00
0000
ENDCHAR
STARTCHAR U+00B7
ENCODING 183
SWIDTH 613 0
DWIDTH 9 0
BBX 9 11 0 -1
BITMAP
0000
0000
0000
0000
0000
0001
1000
0000
0000
0000
000E
ENDCHAR
STARTCHAR U+00B8
ENCODING 184
SWIDTH 613 0
DWIDTH 9 0
BBX 9 11 0 -1
BITMAP
0000
0000
0000
0000
0000
0000
0000
0003
3001
1003
300E
ENDCHAR
STARTCHAR U+00B9
ENCODING 185
SWIDTH 613 0
DWIDTH 9 0
BBX 9 11 0 -1
BITMAP
0000
1000
3000
1000
1000
0000
0000
0000
0000
0000
0000
ENDCHAR
STARTCHAR U+00BA
ENCODING 186
SWIDTH 613 0
DWIDTH 9 0
BBX 9 11 0 -1
BITMAP
0000
7C00
4400
4400
7C00
0000
7C00
0000
0000
0000
0000
ENDCHAR
STARTCHAR U+00BB
ENCODING 187
SWIDTH 613 0
DWIDTH 9 0
BBX 9 11 0 -1
BITMAP
0000
0000
0000
0006
6002
2C02
2402
2C06
6000
0000
000E
ENDCHAR
STARTCHAR U+00BC
ENCODING 188
SWIDTH 613 0
DWIDTH 9 0
BBX 9 11 0 -1
BITMAP
0000
1000
3000
1000
0000
7C00
0000
2800
3800
0800
0000
ENDCHAR
STARTCHAR U+00BD
ENCODING 189
SWIDTH 613 0
DWIDTH 9 0
BBX 9 11 0 -1
BITMAP
0000
4000
C000
4000
4000
0E00
E200
0E00
0800
0E00
0000
ENDCHAR
STARTCHAR U+00BE
ENCODING 190
SWIDTH 613 0
DWIDTH 9 0
BBX 9 11 0 -1
BITMAP
0000
C000
4000
C000
4000
CA00
0A00
EE00
0200
0200
0000
ENDCHAR
STARTCHAR U+00BF
ENCODING 191
SWIDTH 613 0
DWIDTH 9 0
BBX 9 11 0 -1
BITMAP
0000
0000
1000
0000
1000
F000
8000
8000
8200
8200
FE00
ENDCHAR
STARTCHAR U+0041
ENCODING 192
SWIDTH 613 0
DWIDTH 9 0
BBX 9 11 0 -1
BITMAP
F000
0000
FE00
8200
8200
FE00
8200
8200
8200
8200
0000
ENDCHAR
STARTCHAR U+0041
ENCODING 193
SWIDTH 613 0
DWIDTH 9 0
BBX 9 11 0 -1
BITMAP
1E00
0000
FE00
8200
8200
FE00
8200
8200
8200
8200
0000
ENDCHAR
STARTCHAR U+0041
ENCODING 194
SWIDTH 613 0
DWIDTH 9 0
BBX 9 11 0 -1
BITMAP
3800
0000
FE00
8200
8200
FE00
8200
8200
8200
8200
0000
ENDCHAR
STARTCHAR U+0041
ENCODING 195
SWIDTH 613 0
DWIDTH 9 0
BBX 9 11 0 -1
BITMAP
F200
9E00
8200
8200
8200
FE00
8200
8200
8200
8200
0000
ENDCHAR
STARTCHAR U+0041
ENCODING 196
SWIDTH 613 0
DWIDTH 9 0
BBX 9 11 0 -1
BITMAP
2800
0000
FE00
8200
8200
FE00
8200
8200
8200
8200
0000
ENDCHAR
STARTCHAR U+0041
ENCODING 197
SWIDTH 613 0
DWIDTH 9 0
BBX 9 11 0 -1
BITMAP
3800
EE00
BA00
8200
8200
FE00
8200
8200
8200
8200
0000
ENDCHAR
STARTCHAR U+00C6
ENCODING 198
SWIDTH 613 0
DWIDTH 9 0
BBX 9 11 0 -1
BITMAP
0000
FE00
9000
9000
9000
FE00
9000
9000
9000
9E00
0000
ENDCHAR
STARTCHAR U+00C7
ENCODING 199
SWIDTH 613 0
DWIDTH 9 0
BBX 9 11 0 -1
BITMAP
0000
FE00
8000
8000
8000
8000
8000
8000
8000
FE00
1000
ENDCHAR
STARTCHAR U+0045
ENCODING 200
SWIDTH 613 0
DWIDTH 9 0
BBX 9 11 0 -1
BITMAP
F000
0000
FE00
8000
8000
FE00
8000
8000
8000
FE00
0000
ENDCHAR
STARTCHAR U+0045
ENCODING 201
SWIDTH 613 0
DWIDTH 9 0
BBX 9 11 0 -1
BITMAP
1E00
0000
FE00
8000
8000
FE00
8000
8000
8000
FE00
0000
ENDCHAR
STARTCHAR U+0045
ENCODING 202
SWIDTH 613 0
DWIDTH 9 0
BBX 9 11 0 -1
BITMAP
3800
0000
FE00
8000
8000
FE00
8000
8000
8000
FE00
0000
ENDCHAR
STARTCHAR U+0045
ENCODING 203
SWIDTH 613 0
DWIDTH 9 0
BBX 9 11 0 -1
BITMAP
2800
0000
FE00
8000
8000
FE00
8000
8000
8000
FE00
0000
ENDCHAR
STARTCHAR U+0049
ENCODING 204
SWIDTH 613 0
DWIDTH 9 0
BBX 9 11 0 -1
BITMAP
F000
0000
FE00
1000
1000
1000
1000
1000
1000
FE00
0000
ENDCHAR
STARTCHAR U+0049
ENCODING 205
SWIDTH 613 0
DWIDTH 9 0
BBX 9 11 0 -1
BITMAP
1E00
0000
FE00
1000
1000
1000
1000
1000
1000
FE00
0000
ENDCHAR
STARTCHAR U+0049
ENCODING 206
SWIDTH 613 0
DWIDTH 9 0
BBX 9 11 0 -1
BITMAP
3800
0000
FE00
1000
1000
1000
1000
1000
1000
FE00
0000
ENDCHAR
STARTCHAR U+0049
ENCODING 207
SWIDTH 613 0
DWIDTH 9 0
BBX 9 11 0 -1
BITMAP
2800
0000
FE00
1000
1000
1000
1000
1000
1000
FE00
0000
ENDCHAR
STARTCHAR U+0044
ENCODING 208
SWIDTH 613 0
DWIDTH 9 0
BBX 9 11 0 -1
BITMAP
0000
F800
8E00
8200
8200
F200
8200
8200
8E00
F800
0000
ENDCHAR
STARTCHAR U+00D1
ENCODING 209
SWIDTH 613 0
DWIDTH 9 0
BBX 9 11 0 -1
BITMAP
E800
BA00
9200
9200
9200
9200
9200
9200
9200
9E00
0000
ENDCHAR
STARTCHAR U+004F
ENCODING 210
SWIDTH 613 0
DWIDTH 9 0
BBX 9 11 0 -1
BITMAP
F000
0000
FE00
8200
8200
8200
8200
8200
8200
FE00
0000
ENDCHAR
STARTCHAR U+004F
ENCODING 211
SWIDTH 613 0
DWIDTH 9 0
BBX 9 11 0 -1
BITMAP
1E00
0000
FE00
8200
8200
8200
8200
8200
8200
FE00
0000
ENDCHAR
STARTCHAR U+004F
ENCODING 212
SWIDTH 613 0
DWIDTH 9 0
BBX 9 11 0 -1
BITMAP
3800
0000
FE00
8200
8200
8200
8200
8200
8200
FE00
0000
ENDCHAR
STARTCHAR U+004F
ENCODING 213
SWIDTH 613 0
DWIDTH 9 0
BBX 9 11 0 -1
BITMAP
F200
9E00
8200
8200
8200
8200
8200
8200
8200
FE00
0000
ENDCHAR
STARTCHAR U+004F
ENCODING 214
SWIDTH 613 0
DWIDTH 9 0
BBX 9 11 0 -1
BITMAP
2800
0000
FE00
8200
8200
8200
8200
8200
8200
FE00
0000
ENDCHAR
STARTCHAR U+00D7
ENCODING 215
SWIDTH 613 0
DWIDTH 9 0
BBX 9 11 0 -1
BITMAP
0000
0000
0000
0006
6C03
3801
1003
3806
6C00
0000
000E
ENDCHAR
STARTCHAR U+004F
ENCODING 216
SWIDTH 613 0
DWIDTH 9 0
BBX 9 11 0 -1
BITMAP
0800
FE00
9200
9200
9200
9200
9200
9200
9200
FE00
2000
ENDCHAR
STARTCHAR U+0055
ENCODING 217
SWIDTH 613 0
DWIDTH 9 0
BBX 9 11 0 -1
BITMAP
F000
0200
8200
8200
8200
8200
8200
8200
8200
FE00
0000
ENDCHAR
STARTCHAR U+0055
ENCODING 218
SWIDTH 613 0
DWIDTH 9 0
BBX 9 11 0 -1
BITMAP
1E00
8000
8200
8200
8200
8200
8200
8200
8200
FE00
0000
ENDCHAR
STARTCHAR U+0055
ENCODING 219
SWIDTH 613 0
DWIDTH 9 0
BBX 9 11 0 -1
BITMAP
3800
8200
8200
8200
8200
8200
8200
8200
8200
FE00
0000
ENDCHAR
STARTCHAR U+0055
ENCODING 220
SWIDTH 613 0
DWIDTH 9 0
BBX 9 11 0 -1
BITMAP
2800
8200
8200
8200
8200
8200
8200
8200
8200
FE00
0000
ENDCHAR
STARTCHAR U+0059
ENCODING 221
SWIDTH 613 0
DWIDTH 9 0
BBX 9 11 0 -1
BITMAP
1000
9200
8200
8200
8200
FE00
1000
1000
1000
1000
0000
ENDCHAR
STARTCHAR U+00DE
ENCODING 222
SWIDTH 613 0
DWIDTH 9 0
BBX 9 11 0 -1
BITMAP
0000
8000
8000
FE00
8200
8200
8200
FE00
8000
8000
0000
ENDCHAR
STARTCHAR U+00DF
ENCODING 223
SWIDTH 613 0
DWIDTH 9 0
BBX 9 11 0 -1
BITMAP
0000
F800
8800
8800
8E00
8200
8200
8200
8200
9E00
0000
ENDCHAR
STARTCHAR U+0041
ENCODING 224
SWIDTH 613 0
DWIDTH 9 0
BBX 9 11 0 -1
BITMAP
000F
F000
000F
FE08
8208
820F
FE08
8208
8208
8200
000E
ENDCHAR
STARTCHAR U+0041
ENCODING 225
SWIDTH 613 0
DWIDTH 9 0
BBX 9 11 0 -1
BITMAP
0001
1E00
000F
FE08
8208
820F
FE08
8208
8208
8200
000E
ENDCHAR
STARTCHAR U+0041
ENCODING 226
SWIDTH 613 0
DWIDTH 9 0
BBX 9 11 0 -1
BITMAP
0003
3800
000F
FE08
8208
820F
FE08
8208
8208
8200
000E
ENDCHAR
STARTCHAR U+0041
ENCODING 227
SWIDTH 613 0
DWIDTH 9 0
BBX 9 11 0 -1
BITMAP
F200
9E00
0000
FE00
8200
8200
FE00
8200
8200
8200
0000
ENDCHAR
STARTCHAR U+0041
ENCODING 228
SWIDTH 613 0
DWIDTH 9 0
BBX 9 11 0 -1
BITMAP
0002
2800
000F
FE08
8208
820F
FE08
8208
8208
8200
000E
ENDCHAR
STARTCHAR U+0041
ENCODING 229
SWIDTH 613 0
DWIDTH 9 0
BBX 9 11 0 -1
BITMAP
0003
3802
280F
FE08
8208
820F
FE08
8208
8208
8200
000E
ENDCHAR
STARTCHAR U+00C6
ENCODING 230
SWIDTH 613 0
DWIDTH 9 0
BBX 9 11 0 -1
BITMAP
0000
0000
000F
FE09
9009
900F
FE09
9009
9009
9E00
000E
ENDCHAR
STARTCHAR U+00C7
ENCODING 231
SWIDTH 613 0
DWIDTH 9 0
BBX 9 11 0 -1
BITMAP
0000
0000
000F
FE08
8008
8008
8008
8008
800F
FE01
100E
ENDCHAR
STARTCHAR U+0045
ENCODING 232
SWIDTH 613 0
DWIDTH 9 0
BBX 9 11 0 -1
BITMAP
000F
F000
000F
FE08
8008
800F
FE08
8008
800F
FE00
000E
ENDCHAR
STARTCHAR U+0045
ENCODING 233
SWIDTH 613 0
DWIDTH 9 0
BBX 9 11 0 -1
BITMAP
0001
1E00
000F
FE08
8008
800F
FE08
8008
800F
FE00
000E
ENDCHAR
STARTCHAR U+0045
ENCODING 234
SWIDTH 613 0
DWIDTH 9 0
BBX 9 11 0 -1
BITMAP
0003
3800
000F
FE08
8008
800F
FE08
8008
800F
FE00
000E
ENDCHAR
STARTCHAR U+0045
ENCODING 235
SWIDTH 613 0
DWIDTH 9 0
BBX 9 11 0 -1
BITMAP
0002
2800
000F
FE08
8008
800F
FE08
8008
800F
FE00
000E
ENDCHAR
STARTCHAR U+0049
ENCODING 236
SWIDTH 613 0
DWIDTH 9 0
BBX 9 11 0 -1
BITMAP
000F
F000
000F
FE01
1001
1001
1001
1001
100F
FE00
000E
ENDCHAR
STARTCHAR U+0049
ENCODING 237
SWIDTH 613 0
DWIDTH 9 0
BBX 9 11 0 -1
BITMAP
0001
1E00
000F
FE01
1001
1001
1001
1001
100F
FE00
000E
ENDCHAR
STARTCHAR U+0049
ENCODING 238
SWIDTH 613 0
DWIDTH 9 0
BBX 9 11 0 -1
BITMAP
0003
3800
000F
FE01
1001
1001
1001
1001
100F
FE00
000E
ENDCHAR
STARTCHAR U+0049
ENCODING 239
SWIDTH 613 0
DWIDTH 9 0
BBX 9 11 0 -1
BITMAP
0002
2800
000F
FE01
1001
1001
1001
1001
100F
FE00
000E
ENDCHAR
STARTCHAR U+0044
ENCODING 240
SWIDTH 613 0
DWIDTH 9 0
BBX 9 11 0 -1
BITMAP
0000
0000
000F
F808
8E08
820F
F208
8208
8E0F
F800
000E
ENDCHAR
STARTCHAR U+00D1
ENCODING 241
SWIDTH 613 0
DWIDTH 9 0
BBX 9 11 0 -1
BITMAP
F200
9E00
0000
F200
9200
9200
9200
9200
9200
9E00
0000
ENDCHAR
STARTCHAR U+004F
ENCODING 242
SWIDTH 613 0
DWIDTH 9 0
BBX 9 11 0 -1
BITMAP
000F
F000
000F
FE08
8208
8208
8208
8208
820F
FE00
000E
ENDCHAR
STARTCHAR U+004F
ENCODING 243
SWIDTH 613 0
DWIDTH 9 0
BBX 9 11 0 -1
BITMAP
0001
1E00
000F
FE08
8208
8208
8208
8208
820F
FE00
000E
ENDCHAR
STARTCHAR U+004F
ENCODING 244
SWIDTH 613 0
DWIDTH 9 0
BBX 9 11 0 -1
BITMAP
0003
3800
000F
FE08
8208
8208
8208
8208
820F
FE00
000E
ENDCHAR
STARTCHAR U+004F
ENCODING 245
SWIDTH 613 0
DWIDTH 9 0
BBX 9 11 0 -1
BITMAP
F200
9E00
0000
FE00
8200
8200
8200
8200
8200
FE00
0000
ENDCHAR
STARTCHAR U+004F
ENCODING 246
SWIDTH 613 0
DWIDTH 9 0
BBX 9 11 0 -1
BITMAP
0002
2800
000F
FE08
8208
8208
8208
8208
820F
FE00
000E
ENDCHAR
STARTCHAR U+00D7
ENCODING 247
SWIDTH 613 0
DWIDTH 9 0
BBX 9 11 0 -1
BITMAP
0000
0000
0001
1000
0000
000F
FE00
0000
0001
1000
000E
ENDCHAR
STARTCHAR U+004F
ENCODING 248
SWIDTH 613 0
DWIDTH 9 0
BBX 9 11 0 -1
BITMAP
0000
0000
080F
FE09
9209
9209
9209
9209
920F
FE02
200E
ENDCHAR
STARTCHAR U+0055
ENCODING 249
SWIDTH 613 0
DWIDTH 9 0
BBX 9 11 0 -1
BITMAP
000F
F000
0008
8208
8208
8208
8208
8208
820F
FE00
000E
ENDCHAR
STARTCHAR U+0055
ENCODING 250
SWIDTH 613 0
DWIDTH 9 0
BBX 9 11 0 -1
BITMAP
0001
1E00
0008
8208
8208
8208
8208
8208
820F
FE00
000E
ENDCHAR
STARTCHAR U+0055
ENCODING 251
SWIDTH 613 0
DWIDTH 9 0
BBX 9 11 0 -1
BITMAP
0003
3800
0008
8208
8208
8208
8208
8208
820F
FE00
000E
ENDCHAR
STARTCHAR U+0055
ENCODING 252
SWIDTH 613 0
DWIDTH 9 0
BBX 9 11 0 -1
BITMAP
0002
2800
0008
8208
8208
8208
8208
8208
820F
FE00
000E
ENDCHAR
STARTCHAR U+0059
ENCODING 253
SWIDTH 613 0
DWIDTH 9 0
BBX 9 11 0 -1
BITMAP
0001
1001
1008
8208
8208
820F
FE01
1001
1001
1000
000E
ENDCHAR
STARTCHAR U+00DE
ENCODING 254
SWIDTH 613 0
DWIDTH 9 0
BBX 9 11 0 -1
BITMAP
0000
0004
4004
4007
7C04
4404
4407
7C04
4004
4000
000E
ENDCHAR
STARTCHAR U+00DF
ENCODING 255
SWIDTH 613 0
DWIDTH 9 0
BBX 9 11 0 -1
BITMAP
0000
0002
2808
8208
8208
820F
FE01
1001
1001
1000
000E
ENDCHAR
STARTCHAR U+0041
ENCODING 256
SWIDTH 613 0
DWIDTH 9 0
BBX 9 11 0 -1
BITMAP
FE00
0000
FE00
8200
8200
FE00
8200
8200
8200
8200
0000
ENDCHAR
STARTCHAR U+0041
ENCODING 257
SWIDTH 613 0
DWIDTH 9 0
BBX 9 11 0 -1
BITMAP
000F
FE00
000F
FE08
8208
820F
FE08
8208
8208
8200
000E
ENDCHAR
STARTCHAR U+0041
ENCODING 258
SWIDTH 613 0
DWIDTH 9 0
BBX 9 11 0 -1
BITMAP
2800
EE00
BA00
8200
8200
FE00
8200
8200
8200
8200
0000
ENDCHAR
STARTCHAR U+0041
ENCODING 259
SWIDTH 613 0
DWIDTH 9 0
BBX 9 11 0 -1
BITMAP
2800
3800
0000
FE00
8200
8200
FE00
8200
8200
8200
0000
ENDCHAR
STARTCHAR U+0041
ENCODING 260
SWIDTH 613 0
DWIDTH 9 0
BBX 9 11 0 -1
BITMAP
0000
FE00
8200
8200
8200
FE00
8200
8200
8600
8400
0600
ENDCHAR
STARTCHAR U+0041
ENCODING 261
SWIDTH 613 0
DWIDTH 9 0
BBX 9 11 0 -1
BITMAP
0000
0000
000F
FE08
8208
820F
FE08
8208
8608
8400
060E
ENDCHAR
STARTCHAR U+0043
ENCODING 262
SWIDTH 613 0
DWIDTH 9 0
BBX 9 11 0 -1
BITMAP
1E00
0000
FE00
8000
8000
8000
8000
8000
8000
FE00
0000
ENDCHAR
STARTCHAR U+0043
ENCODING 263
SWIDTH 613 0
DWIDTH 9 0
BBX 9 11 0 -1
BITMAP
0001
1E00
000F
FE08
8008
8008
8008
8008
800F
FE00
000E
ENDCHAR
STARTCHAR U+0043
ENCODING 264
SWIDTH 613 0
DWIDTH 9 0
BBX 9 11 0 -1
BITMAP
3800
0000
FE00
8000
8000
8000
8000
8000
8000
FE00
0000
ENDCHAR
STARTCHAR U+0043
ENCODING 265
SWIDTH 613 0
DWIDTH 9 0
BBX 9 11 0 -1
BITMAP
0003
3800
000F
FE08
8008
8008
8008
8008
800F
FE00
000E
ENDCHAR
STARTCHAR U+0043
ENCODING 266
SWIDTH 613 0
DWIDTH 9 0
BBX 9 11 0 -1
BITMAP
1000
0000
FE00
8000
8000
8000
8000
8000
8000
FE00
0000
ENDCHAR
STARTCHAR U+0043
ENCODING 267
SWIDTH 613 0
DWIDTH 9 0
BBX 9 11 0 -1
BITMAP
0001
1000
000F
FE08
8008
8008
8008
8008
800F
FE00
000E
ENDCHAR
STARTCHAR U+0043
ENCODING 268
SWIDTH 613 0
DWIDTH 9 0
BBX 9 11 0 -1
BITMAP
2800
EE00
B800
8000
8000
8000
8000
8000
8000
FE00
0000
ENDCHAR
STARTCHAR U+0043
ENCODING 269
SWIDTH 613 0
DWIDTH 9 0
BBX 9 11 0 -1
BITMAP
2800
3800
0000
FE00
8000
8000
8000
8000
8000
FE00
0000
ENDCHAR
STARTCHAR U+0044
ENCODING 270
SWIDTH 613 0
DWIDTH 9 0
BBX 9 11 0 -1
BITMAP
3800
0000
F800
8E00
8200
8200
8200
8200
8E00
F800
0000
ENDCHAR
STARTCHAR U+0044
ENCODING 271
SWIDTH 613 0
DWIDTH 9 0
BBX 9 11 0 -1
BITMAP
0000
0E00
000F
F009
9E08
8208
8208
8208
8E0F
F800
000E
ENDCHAR
STARTCHAR U+0044
ENCODING 272
SWIDTH 613 0
DWIDTH 9 0
BBX 9 11 0 -1
BITMAP
0000
F800
8E00
8200
8200
F200
8200
8200
8E00
F800
0000
ENDCHAR
STARTCHAR U+0044
ENCODING 273
SWIDTH 613 0
DWIDTH 9 0
BBX 9 11 0 -1
BITMAP
0000
0000
000F
F009
9E08
820F
F208
8208
8E0F
F800
000E
ENDCHAR
STARTCHAR U+0045
ENCODING 274
SWIDTH 613 0
DWIDTH 9 0
BBX 9 11 0 -1
BITMAP
FE00
0000
FE00
8000
8000
FE00
8000
8000
8000
FE00
0000
ENDCHAR
STARTCHAR U+0045
ENCODING 275
SWIDTH 613 0
DWIDTH 9 0
BBX 9 11 0 -1
BITMAP
000F
FE00
000F
FE08
8008
800F
FE08
8008
800F
FE00
000E
ENDCHAR
STARTCHAR U+0045
ENCODING 276
SWIDTH 613 0
DWIDTH 9 0
BBX 9 11 0 -1
BITMAP
2800
EE00
B800
8000
8000
FE00
8000
8000
8000
FE00
0000
ENDCHAR
STARTCHAR U+0045
ENCODING 277
SWIDTH 613 0
DWIDTH 9 0
BBX 9 11 0 -1
BITMAP
2800
3800
0000
FE00
8000
8000
FE00
8000
8000
FE00
0000
ENDCHAR
STARTCHAR U+0045
ENCODING 278
SWIDTH 613 0
DWIDTH 9 0
BBX 9 11 0 -1
BITMAP
1000
0000
FE00
8000
8000
FE00
8000
8000
8000
FE00
0000
ENDCHAR
STARTCHAR U+0045
ENCODING 279
SWIDTH 613 0
DWIDTH 9 0
BBX 9 11 0 -1
BITMAP
0001
1000
000F
FE08
8008
800F
FE08
8008
800F
FE00
000E
ENDCHAR
STARTCHAR U+0045
ENCODING 280
SWIDTH 613 0
DWIDTH 9 0
BBX 9 11 0 -1
BITMAP
0000
FE00
8000
8000
8000
FE00
8000
8000
8000
FE00
1000
ENDCHAR
STARTCHAR U+0045
ENCODING 281
SWIDTH 613 0
DWIDTH 9 0
BBX 9 11 0 -1
BITMAP
0000
0000
000F
FE08
8008
800F
FE08
8008
800F
FE01
100E
ENDCHAR
STARTCHAR U+0045
ENCODING 282
SWIDTH 613 0
DWIDTH 9 0
BBX 9 11 0 -1
BITMAP
4400
EE00
B800
8000
8000
FE00
8000
8000
8000
FE00
0000
ENDCHAR
STARTCHAR U+0045
ENCODING 283
SWIDTH 613 0
DWIDTH 9 0
BBX 9 11 0 -1
BITMAP
6C00
3800
0000
FE00
8000
8000
FE00
8000
8000
FE00
0000
ENDCHAR
STARTCHAR U+0047
ENCODING 284
SWIDTH 613 0
DWIDTH 9 0
BBX 9 11 0 -1
BITMAP
3800
0000
FE00
8000
8000
9E00
8200
8200
8200
FE00
0000
ENDCHAR
STARTCHAR U+0047
ENCODING 285
SWIDTH 613 0
DWIDTH 9 0
BBX 9 11 0 -1
BITMAP
0003
3800
000F
FE08
8008
8009
9E08
8208
820F
FE00
000E
ENDCHAR
STARTCHAR U+0047
ENCODING 286
SWIDTH 613 0
DWIDTH 9 0
BBX 9 11 0 -1
BITMAP
2800
EE00
B800
8000
8000
9E00
8200
8200
8200
FE00
0000
ENDCHAR
STARTCHAR U+0047
ENCODING 287
SWIDTH 613 0
DWIDTH 9 0
BBX 9 11 0 -1
BITMAP
2800
3800
0000
FE00
8000
8000
9E00
8200
8200
FE00
0000
ENDCHAR
STARTCHAR U+0047
ENCODING 288
SWIDTH 613 0
DWIDTH 9 0
BBX 9 11 0 -1
BITMAP
1000
0000
FE00
8000
8000
9E00
8200
8200
8200
FE00
0000
ENDCHAR
STARTCHAR U+0047
ENCODING 289
SWIDTH 613 0
DWIDTH 9 0
BBX 9 11 0 -1
BITMAP
0001
1000
000F
FE08
8008
8009
9E08
8208
820F
FE00
000E
ENDCHAR
STARTCHAR U+0047
ENCODING 290
SWIDTH 613 0
DWIDTH 9 0
BBX 9 11 0 -1
BITMAP
0000
FE00
8000
8000
8000
9E00
8200
8200
8200
FE00
1000
ENDCHAR
STARTCHAR U+0047
ENCODING 291
SWIDTH 613 0
DWIDTH 9 0
BBX 9 11 0 -1
BITMAP
0000
0000
000F
FE08
8008
8009
9E08
8208
820F
FE01
100E
ENDCHAR
STARTCHAR U+0048
ENCODING 292
SWIDTH 613 0
DWIDTH 9 0
BBX 9 11 0 -1
BITMAP
3800
8200
8200
8200
8200
FE00
8200
8200
8200
8200
0000
ENDCHAR
STARTCHAR U+0048
ENCODING 293
SWIDTH 613 0
DWIDTH 9 0
BBX 9 11 0 -1
BITMAP
0003
3800
0008
8208
8208
820F
FE08
8208
8208
8200
000E
ENDCHAR
STARTCHAR U+0048
ENCODING 294
SWIDTH 613 0
DWIDTH 9 0
BBX 9 11 0 -1
BITMAP
0000
8200
8200
FE00
8200
8200
FE00
8200
8200
8200
0000
ENDCHAR
STARTCHAR U+0048
ENCODING 295
SWIDTH 613 0
DWIDTH 9 0
BBX 9 11 0 -1
BITMAP
0000
0000
0008
820F
FE08
820F
FE08
8208
8208
8200
000E
ENDCHAR
STARTCHAR U+0049
ENCODING 296
SWIDTH 613 0
DWIDTH 9 0
BBX 9 11 0 -1
BITMAP
F200
9E00
1000
1000
1000
1000
1000
1000
1000
FE00
0000
ENDCHAR
STARTCHAR U+0049
ENCODING 297
SWIDTH 613 0
DWIDTH 9 0
BBX 9 11 0 -1
BITMAP
F200
9E00
0000
FE00
1000
1000
1000
1000
1000
FE00
0000
ENDCHAR
STARTCHAR U+0049
ENCODING 298
SWIDTH 613 0
DWIDTH 9 0
BBX 9 11 0 -1
BITMAP
FE00
0000
FE00
1000
1000
1000
1000
1000
1000
FE00
0000
ENDCHAR
STARTCHAR U+0049
ENCODING 299
SWIDTH 613 0
DWIDTH 9 0
BBX 9 11 0 -1
BITMAP
000F
FE00
000F
FE01
1001
1001
1001
1001
100F
FE00
000E
ENDCHAR
STARTCHAR U+0049
ENCODING 300
SWIDTH 613 0
DWIDTH 9 0
BBX 9 11 0 -1
BITMAP
2800
EE00
3800
1000
1000
1000
1000
1000
1000
FE00
0000
ENDCHAR
STARTCHAR U+0049
ENCODING 301
SWIDTH 613 0
DWIDTH 9 0
BBX 9 11 0 -1
BITMAP
2800
3800
0000
FE00
1000
1000
1000
1000
1000
FE00
0000
ENDCHAR
STARTCHAR U+0049
ENCODING 302
SWIDTH 613 0
DWIDTH 9 0
BBX 9 11 0 -1
BITMAP
0000
FE00
1000
1000
1000
1000
1000
1000
1000
FE00
1000
ENDCHAR
STARTCHAR U+0049
ENCODING 303
SWIDTH 613 0
DWIDTH 9 0
BBX 9 11 0 -1
BITMAP
0000
0000
000F
FE01
1001
1001
1001
1001
100F
FE01
100E
ENDCHAR
STARTCHAR U+0049
ENCODING 304
SWIDTH 613 0
DWIDTH 9 0
BBX 9 11 0 -1
BITMAP
1000
0000
FE00
1000
1000
1000
1000
1000
1000
FE00
0000
ENDCHAR
STARTCHAR U+0049
ENCODING 305
SWIDTH 613 0
DWIDTH 9 0
BBX 9 11 0 -1
BITMAP
0000
0000
000F
FE01
1001
1001
1001
1001
100F
FE00
000E
ENDCHAR
STARTCHAR U+0132
ENCODING 306
SWIDTH 613 0
DWIDTH 9 0
BBX 9 11 0 -1
BITMAP
0000
3A00
1200
1200
1200
1200
9200
BA00
8200
FE00
0000
ENDCHAR
STARTCHAR U+0133
ENCODING 307
SWIDTH 613 0
DWIDTH 9 0
BBX 9 11 0 -1
BITMAP
0000
0000
0003
3A01
1201
1209
920B
BA08
820F
FE00
000E
ENDCHAR
STARTCHAR U+004A
ENCODING 308
SWIDTH 613 0
DWIDTH 9 0
BBX 9 11 0 -1
BITMAP
3800
0200
0200
0200
0200
0200
8200
8200
8200
FE00
0000
ENDCHAR
STARTCHAR U+004A
ENCODING 309
SWIDTH 613 0
DWIDTH 9 0
BBX 9 11 0 -1
BITMAP
0003
3800
0000
0200
0200
0208
8208
8208
820F
FE00
000E
ENDCHAR
STARTCHAR U+004B
ENCODING 310
SWIDTH 613 0
DWIDTH 9 0
BBX 9 11 0 -1
BITMAP
0000
8E00
8800
8800
8800
F800
8800
8800
8800
9E00
1000
ENDCHAR
STARTCHAR U+004B
ENCODING 311
SWIDTH 613 0
DWIDTH 9 0
BBX 9 11 0 -1
BITMAP
0000
0000
0008
8E08
8808
880F
F808
8808
8809
9E01
100E
ENDCHAR
STARTCHAR U+004B
ENCODING 312
SWIDTH 613 0
DWIDTH 9 0
BBX 9 11 0 -1
BITMAP
0000
0000
0008
8E08
8808
880F
F808
8808
8808
8E00
000E
ENDCHAR
STARTCHAR U+0139
ENCODING 313
SWIDTH 613 0
DWIDTH 9 0
BBX 9 11 0 -1
BITMAP
1E00
8000
8000
8000
8000
8000
8000
8000
8000
FE00
0000
ENDCHAR
STARTCHAR U+013A
ENCODING 314
SWIDTH 613 0
DWIDTH 9 0
BBX 9 11 0 -1
BITMAP
0001
1E00
0008
8008
8008
8008
8008
8008
800F
FE00
000E
ENDCHAR
STARTCHAR U+013B
ENCODING 315
SWIDTH 613 0
DWIDTH 9 0
BBX 9 11 0 -1
BITMAP
0000
8000
8000
8000
8000
8000
8000
8000
8000
FE00
1000
ENDCHAR
STARTCHAR U+013C
ENCODING 316
SWIDTH 613 0
DWIDTH 9 0
BBX 9 11 0 -1
BITMAP
0000
0000
0008
8008
8008
8008
8008
8008
800F
FE01
100E
ENDCHAR
STARTCHAR U+013D
ENCODING 317
SWIDTH 613 0
DWIDTH 9 0
BBX 9 11 0 -1
BITMAP
0200
8200
8200
8000
8000
8000
8000
8000
8000
FE00
0000
ENDCHAR
STARTCHAR U+013E
ENCODING 318
SWIDTH 613 0
DWIDTH 9 0
BBX 9 11 0 -1
BITMAP
0000
0200
0208
8208
8008
8008
8008
8008
800F
FE00
000E
ENDCHAR
STARTCHAR U+013F
ENCODING 319
SWIDTH 613 0
DWIDTH 9 0
BBX 9 11 0 -1
BITMAP
0000
8000
8000
8000
8000
8000
9000
8000
8000
FE00
0000
ENDCHAR
STARTCHAR U+0140
ENCODING 320
SWIDTH 613 0
DWIDTH 9 0
BBX 9 11 0 -1
BITMAP
0000
0000
0008
8008
8008
8009
9008
8008
800F
FE00
000E
ENDCHAR
STARTCHAR U+0141
ENCODING 321
SWIDTH 613 0
DWIDTH 9 0
BBX 9 11 0 -1
BITMAP
0000
8000
8000
8000
8000
E000
8000
8000
8000
FE00
0000
ENDCHAR
STARTCHAR U+0142
ENCODING 322
SWIDTH 613 0
DWIDTH 9 0
BBX 9 11 0 -1
BITMAP
0000
0000
0008
8008
8008
800E
E008
8008
800F
FE00
000E
ENDCHAR
STARTCHAR U+004E
ENCODING 323
SWIDTH 613 0
DWIDTH 9 0
BBX 9 11 0 -1
BITMAP
0E00
F000
9200
9200
9200
9200
9200
9200
9200
9E00
0000
ENDCHAR
STARTCHAR U+004E
ENCODING 324
SWIDTH 613 0
DWIDTH 9 0
BBX 9 11 0 -1
BITMAP
0001
1E00
000F
F209
9209
9209
9209
9209
9209
9E00
000E
ENDCHAR
STARTCHAR U+004E
ENCODING 325
SWIDTH 613 0
DWIDTH 9 0
BBX 9 11 0 -1
BITMAP
0000
F200
9200
9200
9200
9200
9200
9200
9200
9E00
1000
ENDCHAR
STARTCHAR U+004E
ENCODING 326
SWIDTH 613 0
DWIDTH 9 0
BBX 9 11 0 -1
BITMAP
0000
0000
000F
F209
9209
9209
9209
9209
9209
9E01
100E
ENDCHAR
STARTCHAR U+004E
ENCODING 327
SWIDTH 613 0
DWIDTH 9 0
BBX 9 11 0 -1
BITMAP
2800
EA00
BA00
9200
9200
9200
9200
9200
9200
9E00
0000
ENDCHAR
STARTCHAR U+004E
ENCODING 328
SWIDTH 613 0
DWIDTH 9 0
BBX 9 11 0 -1
BITMAP
2800
3800
0000
F200
9200
9200
9200
9200
9200
9E00
0000
ENDCHAR
STARTCHAR U+004E
ENCODING 329
SWIDTH 613 0
DWIDTH 9 0
BBX 9 11 0 -1
BITMAP
0008
8000
000F
F209
9209
9209
9209
9209
9209
9E00
000E
ENDCHAR
STARTCHAR U+004E
ENCODING 330
SWIDTH 613 0
DWIDTH 9 0
BBX 9 11 0 -1
BITMAP
0000
F200
9200
9200
9200
9200
9200
9200
9200
9E00
0200
ENDCHAR
STARTCHAR U+004E
ENCODING 331
SWIDTH 613 0
DWIDTH 9 0
BBX 9 11 0 -1
BITMAP
0000
0000
000F
F209
9209
9209
9209
9209
9209
9E00
020E
ENDCHAR
STARTCHAR U+004F
ENCODING 332
SWIDTH 613 0
DWIDTH 9 0
BBX 9 11 0 -1
BITMAP
FE00
0000
FE00
8200
8200
8200
8200
8200
8200
FE00
0000
ENDCHAR
STARTCHAR U+004F
ENCODING 333
SWIDTH 613 0
DWIDTH 9 0
BBX 9 11 0 -1
BITMAP
000F
FE00
000F
FE08
8208
8208
8208
8208
820F
FE00
000E
ENDCHAR
STARTCHAR U+004F
ENCODING 334
SWIDTH 613 0
DWIDTH 9 0
BBX 9 11 0 -1
BITMAP
2800
EE00
BA00
8200
8200
8200
8200
8200
8200
FE00
0000
ENDCHAR
STARTCHAR U+004F
ENCODING 335
SWIDTH 613 0
DWIDTH 9 0
BBX 9 11 0 -1
BITMAP
2800
3800
0000
FE00
8200
8200
8200
8200
8200
FE00
0000
ENDCHAR
STARTCHAR U+004F
ENCODING 336
SWIDTH 613 0
DWIDTH 9 0
BBX 9 11 0 -1
BITMAP
3600
0000
FE00
8200
8200
8200
8200
8200
8200
FE00
0000
ENDCHAR
STARTCHAR U+004F
ENCODING 337
SWIDTH 613 0
DWIDTH 9 0
BBX 9 11 0 -1
BITMAP
0003
3600
000F
FE08
8208
8208
8208
8208
820F
FE00
000E
ENDCHAR
STARTCHAR U+0152
ENCODING 338
SWIDTH 613 0
DWIDTH 9 0
BBX 9 11 0 -1
BITMAP
0000
FE00
9000
9000
9000
9E00
9000
9000
9000
FE00
0000
ENDCHAR
STARTCHAR U+0153
ENCODING 339
SWIDTH 613 0
DWIDTH 9 0
BBX 9 11 0 -1
BITMAP
0000
0000
000F
FE09
9009
9009
9E09
9009
900F
FE00
000E
ENDCHAR
STARTCHAR U+0052
ENCODING 340
SWIDTH 613 0
DWIDTH 9 0
BBX 9 11 0 -1
BITMAP
1E00
0000
FE00
8200
8200
FE00
8800
8800
8800
8E00
0000
ENDCHAR
STARTCHAR U+0052
ENCODING 341
SWIDTH 613 0
DWIDTH 9 0
BBX 9 11 0 -1
BITMAP
0001
1E00
000F
FE08
8208
820F
FE08
8808
8808
8E00
000E
ENDCHAR
STARTCHAR U+0052
ENCODING 342
SWIDTH 613 0
DWIDTH 9 0
BBX 9 11 0 -1
BITMAP
0000
0000
FE00
8200
8200
FE00
8800
8800
8800
8E00
0800
ENDCHAR
STARTCHAR U+0052
ENCODING 343
SWIDTH 613 0
DWIDTH 9 0
BBX 9 11 0 -1
BITMAP
0000
0000
000F
FE08
8208
820F
FE08
8808
8808
8E00
080E
ENDCHAR
STARTCHAR U+0052
ENCODING 344
SWIDTH 613 0
DWIDTH 9 0
BBX 9 11 0 -1
BITMAP
2800
EE00
BA00
8200
8200
FE00
8800
8800
8800
8E00
0000
ENDCHAR
STARTCHAR U+0052
ENCODING 345
SWIDTH 613 0
DWIDTH 9 0
BBX 9 11 0 -1
BITMAP
2800
3800
0000
FE00
8200
8200
FE00
8800
8800
8E00
0000
ENDCHAR
STARTCHAR U+0053
ENCODING 346
SWIDTH 613 0
DWIDTH 9 0
BBX 9 11 0 -1
BITMAP
1E00
0000
FE00
8000
8000
FE00
0200
0200
0200
FE00
0000
ENDCHAR
STARTCHAR U+0053
ENCODING 347
SWIDTH 613 0
DWIDTH 9 0
BBX 9 11 0 -1
BITMAP
0001
1E00
000F
FE08
8008
800F
FE00
0200
020F
FE00
000E
ENDCHAR
STARTCHAR U+0053
ENCODING 348
SWIDTH 613 0
DWIDTH 9 0
BBX 9 11 0 -1
BITMAP
3800
0000
FE00
8000
8000
FE00
0200
0200
0200
FE00
0000
ENDCHAR
STARTCHAR U+0053
ENCODING 349
SWIDTH 613 0
DWIDTH 9 0
BBX 9 11 0 -1
BITMAP
0003
3800
000F
FE08
8008
800F
FE00
0200
020F
FE00
000E
ENDCHAR
STARTCHAR U+0053
ENCODING 350
SWIDTH 613 0
DWIDTH 9 0
BBX 9 11 0 -1
BITMAP
0000
FE00
8000
8000
8000
FE00
0200
0200
0200
FE00
1000
ENDCHAR
STARTCHAR U+0053
ENCODING 351
SWIDTH 613 0
DWIDTH 9 0
BBX 9 11 0 -1
BITMAP
0000
0000
000F
FE08
8008
800F
FE00
0200
020F
FE01
100E
ENDCHAR
STARTCHAR U+0053
ENCODING 352
SWIDTH 613 0
DWIDTH 9 0
BBX 9 11 0 -1
BITMAP
2800
EE00
B800
8000
8000
FE00
0200
0200
0200
FE00
0000
ENDCHAR
STARTCHAR U+0053
ENCODING 353
SWIDTH 613 0
DWIDTH 9 0
BBX 9 11 0 -1
BITMAP
2800
3800
0000
FE00
8000
8000
FE00
0200
0200
FE00
0000
ENDCHAR
STARTCHAR U+0054
ENCODING 354
SWIDTH 613 0
DWIDTH 9 0
BBX 9 11 0 -1
BITMAP
0000
FE00
1000
1000
1000
1000
1000
1000
1000
1000
3000
ENDCHAR
STARTCHAR U+0054
ENCODING 355
SWIDTH 613 0
DWIDTH 9 0
BBX 9 11 0 -1
BITMAP
0000
0000
000F
FE01
1001
1001
1001
1001
1001
1003
300E
ENDCHAR
STARTCHAR U+0054
ENCODING 356
SWIDTH 613 0
DWIDTH 9 0
BBX 9 11 0 -1
BITMAP
2800
EE00
3800
1000
1000
1000
1000
1000
1000
1000
0000
ENDCHAR
STARTCHAR U+0054
ENCODING 357
SWIDTH 613 0
DWIDTH 9 0
BBX 9 11 0 -1
BITMAP
0000
0200
000F
FE01
1001
1001
1001
1001
1001
1000
000E
ENDCHAR
STARTCHAR U+0054
ENCODING 358
SWIDTH 613 0
DWIDTH 9 0
BBX 9 11 0 -1
BITMAP
0000
FE00
1000
1000
1000
3800
1000
1000
1000
1000
0000
ENDCHAR
STARTCHAR U+0054
ENCODING 359
SWIDTH 613 0
DWIDTH 9 0
BBX 9 11 0 -1
BITMAP
0000
0000
000F
FE01
1001
1003
3801
1001
1001
1000
000E
ENDCHAR
STARTCHAR U+0055
ENCODING 360
SWIDTH 613 0
DWIDTH 9 0
BBX 9 11 0 -1
BITMAP
7400
5C00
8200
8200
8200
8200
8200
8200
8200
FE00
0000
ENDCHAR
STARTCHAR U+0055
ENCODING 361
SWIDTH 613 0
DWIDTH 9 0
BBX 9 11 0 -1
BITMAP
F200
9E00
0000
8200
8200
8200
8200
8200
8200
FE00
0000
ENDCHAR
STARTCHAR U+0055
ENCODING 362
SWIDTH 613 0
DWIDTH 9 0
BBX 9 11 0 -1
BITMAP
7C00
0000
8200
8200
8200
8200
8200
8200
8200
FE00
0000
ENDCHAR
STARTCHAR U+0055
ENCODING 363
SWIDTH 613 0
DWIDTH 9 0
BBX 9 11 0 -1
BITMAP
000F
FE00
0008
8208
8208
8208
8208
8208
820F
FE00
000E
ENDCHAR
STARTCHAR U+0055
ENCODING 364
SWIDTH 613 0
DWIDTH 9 0
BBX 9 11 0 -1
BITMAP
2800
3800
8200
8200
8200
8200
8200
8200
8200
FE00
0000
ENDCHAR
STARTCHAR U+0055
ENCODING 365
SWIDTH 613 0
DWIDTH 9 0
BBX 9 11 0 -1
BITMAP
0002
2803
3808
8208
8208
8208
8208
8208
820F
FE00
000E
ENDCHAR
STARTCHAR U+0055
ENCODING 366
SWIDTH 613 0
DWIDTH 9 0
BBX 9 11 0 -1
BITMAP
3800
2800
BA00
8200
8200
8200
8200
8200
8200
FE00
0000
ENDCHAR
STARTCHAR U+0055
ENCODING 367
SWIDTH 613 0
DWIDTH 9 0
BBX 9 11 0 -1
BITMAP
0003
3802
280B
BA08
8208
8208
8208
8208
820F
FE00
000E
ENDCHAR
STARTCHAR U+0055
ENCODING 368
SWIDTH 613 0
DWIDTH 9 0
BBX 9 11 0 -1
BITMAP
3600
0000
8200
8200
8200
8200
8200
8200
8200
FE00
0000
ENDCHAR
STARTCHAR U+0055
ENCODING 369
SWIDTH 613 0
DWIDTH 9 0
BBX 9 11 0 -1
BITMAP
0003
3600
0008
8208
8208
8208
8208
8208
820F
FE00
000E
ENDCHAR
STARTCHAR U+0055
ENCODING 370
SWIDTH 613 0
DWIDTH 9 0
BBX 9 11 0 -1
BITMAP
0000
8200
8200
8200
8200
8200
8200
8200
8200
FE00
1000
ENDCHAR
STARTCHAR U+0055
ENCODING 371
SWIDTH 613 0
DWIDTH 9 0
BBX 9 11 0 -1
BITMAP
0000
0000
0008
8208
8208
8208
8208
8208
820F
FE01
100E
ENDCHAR
STARTCHAR U+0057
ENCODING 372
SWIDTH 613 0
DWIDTH 9 0
BBX 9 11 0 -1
BITMAP
3800
8200
9200
9200
9200
9200
9200
9200
9200
FE00
0000
ENDCHAR
STARTCHAR U+0057
ENCODING 373
SWIDTH 613 0
DWIDTH 9 0
BBX 9 11 0 -1
BITMAP
0003
3800
0009
9209
9209
9209
9209
9209
920F
FE00
000E
ENDCHAR
STARTCHAR U+0059
ENCODING 374
SWIDTH 613 0
DWIDTH 9 0
BBX 9 11 0 -1
BITMAP
3800
8200
8200
8200
8200
FE00
1000
1000
1000
1000
0000
ENDCHAR
STARTCHAR U+0059
ENCODING 375
SWIDTH 613 0
DWIDTH 9 0
BBX 9 11 0 -1
BITMAP
0003
3800
0008
8208
8208
820F
FE01
1001
1001
1000
000E
ENDCHAR
STARTCHAR U+0059
ENCODING 376
SWIDTH 613 0
DWIDTH 9 0
BBX 9 11 0 -1
BITMAP
0002
2800
0008
8208
8208
820F
FE01
1001
1001
1000
000E
ENDCHAR
STARTCHAR U+005A
ENCODING 377
SWIDTH 613 0
DWIDTH 9 0
BBX 9 11 0 -1
BITMAP
1E00
0000
FE00
0200
1200
FE00
9000
8000
8000
FE00
0000
ENDCHAR
STARTCHAR U+005A
ENCODING 378
SWIDTH 613 0
DWIDTH 9 0
BBX 9 11 0 -1
BITMAP
0001
1E00
000F
FE00
0201
120F
FE09
9008
800F
FE00
000E
ENDCHAR
STARTCHAR U+005A
ENCODING 379
SWIDTH 613 0
DWIDTH 9 0
BBX 9 11 0 -1
BITMAP
1000
0000
FE00
0200
1200
FE00
9000
8000
8000
FE00
0000
ENDCHAR
STARTCHAR U+005A
ENCODING 380
SWIDTH 613 0
DWIDTH 9 0
BBX 9 11 0 -1
BITMAP
0001
1000
000F
FE00
0201
120F
FE09
9008
800F
FE00
000E
ENDCHAR
STARTCHAR U+005A
ENCODING 381
SWIDTH 613 0
DWIDTH 9 0
BBX 9 11 0 -1
BITMAP
2800
EE00
3A00
0200
1200
FE00
9000
8000
8000
FE00
0000
ENDCHAR
STARTCHAR U+005A
ENCODING 382
SWIDTH 613 0
DWIDTH 9 0
BBX 9 11 0 -1
BITMAP
2800
3800
0000
FE00
0200
1200
FE00
9000
8000
FE00
0000
ENDCHAR
STARTCHAR U+017F
ENCODING 383
SWIDTH 613 0
DWIDTH 9 0
BBX 9 11 0 -1
BITMAP
0000
FE00
8000
8000
8000
8000
8000
8000
8000
8000
0000
ENDCHAR
STARTCHAR char8208
ENCODING 8208
SWIDTH 613 0
DWIDTH 9 0
BBX 9 11 0 -1
BITMAP
0000
0000
0000
0000
0000
0003
3800
0000
0000
0000
000E
ENDCHAR
STARTCHAR char8208
ENCODING 8209
SWIDTH 613 0
DWIDTH 9 0
BBX 9 11 0 -1
BITMAP
0000
0000
0000
0000
0000
0003
3800
0000
0000
0000
000E
ENDCHAR
STARTCHAR char8208
ENCODING 8210
SWIDTH 613 0
DWIDTH 9 0
BBX 9 11 0 -1
BITMAP
0000
0000
0000
0000
0000
0007
7C00
0000
0000
0000
000E
ENDCHAR
STARTCHAR char8211
ENCODING 8211
SWIDTH 613 0
DWIDTH 9 0
BBX 9 11 0 -1
BITMAP
0000
0000
0000
0000
0000
000F
FE00
0000
0000
0000
000E
ENDCHAR
STARTCHAR char8212
ENCODING 8212
SWIDTH 613 0
DWIDTH 9 0
BBX 9 11 0 -1
BITMAP
0000
0000
0000
0000
0000
000F
FE00
0000
0000
0000
000E
ENDCHAR
STARTCHAR char8213
ENCODING 8213
SWIDTH 613 0
DWIDTH 9 0
BBX 9 11 0 -1
BITMAP
0000
0000
0000
0000
0000
000F
FE00
0000
0000
0000
000E
ENDCHAR
STARTCHAR char8214
ENCODING 8214
SWIDTH 613 0
DWIDTH 9 0
BBX 9 11 0 -1
BITMAP
0000
4400
4400
4400
4400
4400
4400
4400
4400
4400
0000
ENDCHAR
STARTCHAR char8215
ENCODING 8215
SWIDTH 613 0
DWIDTH 9 0
BBX 9 11 0 -1
BITMAP
0000
0000
0000
0000
0000
0000
0000
000F
FE00
000F
FE0E
ENDCHAR
STARTCHAR char8216
ENCODING 8216
SWIDTH 613 0
DWIDTH 9 0
BBX 9 11 0 -1
BITMAP
0000
1000
3000
3000
0000
0000
0000
0000
0000
0000
0000
ENDCHAR
STARTCHAR char8217
ENCODING 8217
SWIDTH 613 0
DWIDTH 9 0
BBX 9 11 0 -1
BITMAP
0000
1800
1800
1000
0000
0000
0000
0000
0000
0000
0000
ENDCHAR
STARTCHAR char8218
ENCODING 8218
SWIDTH 613 0
DWIDTH 9 0
BBX 9 11 0 -1
BITMAP
0000
0000
0000
0000
0000
0000
0000
0001
1801
1801
100E
ENDCHAR
STARTCHAR char8219
ENCODING 8219
SWIDTH 613 0
DWIDTH 9 0
BBX 9 11 0 -1
BITMAP
0000
3000
3000
1000
0000
0000
0000
0000
0000
0000
0000
ENDCHAR
STARTCHAR char8220
ENCODING 8220
SWIDTH 613 0
DWIDTH 9 0
BBX 9 11 0 -1
BITMAP
0000
2400
6C00
6C00
0000
0000
0000
0000
0000
0000
0000
ENDCHAR
STARTCHAR char8221
ENCODING 8221
SWIDTH 613 0
DWIDTH 9 0
BBX 9 11 0 -1
BITMAP
0000
3600
3600
2400
0000
0000
0000
0000
0000
0000
0000
ENDCHAR
STARTCHAR char8221
ENCODING 8222
SWIDTH 613 0
DWIDTH 9 0
BBX 9 11 0 -1
BITMAP
0000
0000
0000
0000
0000
0000
0003
3603
3602
2400
000E
ENDCHAR
STARTCHAR char8221
ENCODING 8223
SWIDTH 613 0
DWIDTH 9 0
BBX 9 11 0 -1
BITMAP
0000
6C00
6C00
2400
0000
0000
0000
0000
0000
0000
0000
ENDCHAR
STARTCHAR char8224
ENCODING 8224
SWIDTH 613 0
DWIDTH 9 0
BBX 9 11 0 -1
BITMAP
0000
1000
1000
7C00
1000
1000
1000
1000
1000
0000
0000
ENDCHAR
STARTCHAR char8225
ENCODING 8225
SWIDTH 613 0
DWIDTH 9 0
BBX 9 11 0 -1
BITMAP
0000
1000
1000
7C00
1000
1000
7C00
1000
1000
0000
0000
ENDCHAR
STARTCHAR char8226
ENCODING 8226
SWIDTH 613 0
DWIDTH 9 0
BBX 9 11 0 -1
BITMAP
0000
0000
0000
0000
0003
3803
3803
3800
0000
0000
000E
ENDCHAR
STARTCHAR char8227
ENCODING 8227
SWIDTH 613 0
DWIDTH 9 0
BBX 9 11 0 -1
BITMAP
0000
0000
0000
0002
2003
3003
3803
3002
2000
0000
000E
ENDCHAR
STARTCHAR char8228
ENCODING 8228
SWIDTH 613 0
DWIDTH 9 0
BBX 9 11 0 -1
BITMAP
0000
0000
0000
0000
0000
0000
0000
0000
0001
1000
000E
ENDCHAR
STARTCHAR char8229
ENCODING 8229
SWIDTH 613 0
DWIDTH 9 0
BBX 9 11 0 -1
BITMAP
0000
0000
0000
0000
0000
0000
0000
0000
0002
2800
000E
ENDCHAR
STARTCHAR char8230
ENCODING 8230
SWIDTH 613 0
DWIDTH 9 0
BBX 9 11 0 -1
BITMAP
0000
0000
0000
0000
0000
0000
0000
0000
0005
5400
000E
ENDCHAR
STARTCHAR char8231
ENCODING 8231
SWIDTH 613 0
DWIDTH 9 0
BBX 9 11 0 -1
BITMAP
0000
0000
0000
0000
0000
0001
1000
0000
0000
0000
000E
ENDCHAR
STARTCHAR char8240
ENCODING 8240
SWIDTH 613 0
DWIDTH 9 0
BBX 9 11 0 -1
BITMAP
0000
0000
0002
2400
0400
040F
FC08
8008
8009
9200
000E
ENDCHAR
STARTCHAR char8241
ENCODING 8241
SWIDTH 613 0
DWIDTH 9 0
BBX 9 11 0 -1
BITMAP
0000
0000
0002
2400
0400
040F
FC08
8008
800A
AA00
000E
ENDCHAR
STARTCHAR char8242
ENCODING 8242
SWIDTH 613 0
DWIDTH 9 0
BBX 9 11 0 -1
BITMAP
1000
1000
1000
0000
0000
0000
0000
0000
0000
0000
0000
ENDCHAR
STARTCHAR char8243
ENCODING 8243
SWIDTH 613 0
DWIDTH 9 0
BBX 9 11 0 -1
BITMAP
2800
2800
2800
0000
0000
0000
0000
0000
0000
0000
0000
ENDCHAR
STARTCHAR char8244
ENCODING 8244
SWIDTH 613 0
DWIDTH 9 0
BBX 9 11 0 -1
BITMAP
5400
5400
5400
0000
0000
0000
0000
0000
0000
0000
0000
ENDCHAR
STARTCHAR char8242
ENCODING 8245
SWIDTH 613 0
DWIDTH 9 0
BBX 9 11 0 -1
BITMAP
1000
1000
1000
0000
0000
0000
0000
0000
0000
0000
0000
ENDCHAR
STARTCHAR char8243
ENCODING 8246
SWIDTH 613 0
DWIDTH 9 0
BBX 9 11 0 -1
BITMAP
2800
2800
2800
0000
0000
0000
0000
0000
0000
0000
0000
ENDCHAR
STARTCHAR char8244
ENCODING 8247
SWIDTH 613 0
DWIDTH 9 0
BBX 9 11 0 -1
BITMAP
5400
5400
5400
0000
0000
0000
0000
0000
0000
0000
0000
ENDCHAR
STARTCHAR char8248
ENCODING 8248
SWIDTH 613 0
DWIDTH 9 0
BBX 9 11 0 -1
BITMAP
0000
0000
0000
0000
0000
0000
0000
0003
3802
2800
000E
ENDCHAR
STARTCHAR char8249
ENCODING 8249
SWIDTH 613 0
DWIDTH 9 0
BBX 9 11 0 -1
BITMAP
0000
0000
0000
0000
0801
1803
3003
3001
1800
0800
000E
ENDCHAR
STARTCHAR char8249
ENCODING 8250
SWIDTH 613 0
DWIDTH 9 0
BBX 9 11 0 -1
BITMAP
0000
0000
0000
0002
2003
3001
1801
1803
3002
2000
000E
ENDCHAR
STARTCHAR char8251
ENCODING 8251
SWIDTH 613 0
DWIDTH 9 0
BBX 9 11 0 -1
BITMAP
0000
0001
1008
820F
FE01
1009
9201
100F
FE08
8201
100E
ENDCHAR
STARTCHAR char8252
ENCODING 8252
SWIDTH 613 0
DWIDTH 9 0
BBX 9 11 0 -1
BITMAP
0000
4400
4400
4400
4400
4400
4400
0000
0000
4400
0000
ENDCHAR
STARTCHAR char8253
ENCODING 8253
SWIDTH 613 0
DWIDTH 9 0
BBX 9 11 0 -1
BITMAP
0000
FE00
8200
9200
1200
1200
1E00
1000
0000
1000
0000
ENDCHAR
STARTCHAR char8254
ENCODING 8254
SWIDTH 613 0
DWIDTH 9 0
BBX 9 11 0 -1
BITMAP
FE00
0000
0000
0000
0000
0000
0000
0000
0000
0000
0000
ENDCHAR
STARTCHAR char8255
ENCODING 8255
SWIDTH 613 0
DWIDTH 9 0
BBX 9 11 0 -1
BITMAP
0000
0000
0000
0000
0000
0000
0000
0000
000C
C607
7C0E
ENDCHAR
STARTCHAR char8256
ENCODING 8256
SWIDTH 613 0
DWIDTH 9 0
BBX 9 11 0 -1
BITMAP
7C00
C600
0000
0000
0000
0000
0000
0000
0000
0000
0000
ENDCHAR
STARTCHAR char8257
ENCODING 8257
SWIDTH 613 0
DWIDTH 9 0
BBX 9 11 0 -1
BITMAP
0000
0000
0000
0200
0200
020F
FE09
9009
9009
9E00
000E
ENDCHAR
STARTCHAR char8258
ENCODING 8258
SWIDTH 613 0
DWIDTH 9 0
BBX 9 11 0 -1
BITMAP
0000
0000
0001
1003
3801
1004
440E
EE04
4400
0000
000E
ENDCHAR
STARTCHAR char8259
ENCODING 8259
SWIDTH 613 0
DWIDTH 9 0
BBX 9 11 0 -1
BITMAP
0000
0000
0000
0000
0000
0007
7C07
7C00
0000
0000
000E
ENDCHAR
STARTCHAR char8260
ENCODING 8260
SWIDTH 613 0
DWIDTH 9 0
BBX 9 11 0 -1
BITMAP
0000
0200
0200
0200
0200
FE00
8000
8000
8000
8000
0000
ENDCHAR
STARTCHAR char8261
ENCODING 8261
SWIDTH 613 0
DWIDTH 9 0
BBX 9 11 0 -1
BITMAP
0000
1800
1000
1000
1000
1800
1800
1000
1000
1000
1800
ENDCHAR
STARTCHAR char8262
ENCODING 8262
SWIDTH 613 0
DWIDTH 9 0
BBX 9 11 0 -1
BITMAP
0000
3000
1000
1000
1000
3000
3000
1000
1000
1000
3000
ENDCHAR
STARTCHAR char8263
ENCODING 8263
SWIDTH 613 0
DWIDTH 9 0
BBX 9 11 0 -1
BITMAP
0000
EE00
AA00
AA00
2200
2200
6600
4400
0000
4400
0000
ENDCHAR
STARTCHAR char8264
ENCODING 8264
SWIDTH 613 0
DWIDTH 9 0
BBX 9 11 0 -1
BITMAP
0000
FA00
8A00
8A00
0A00
0A00
3A00
2000
0000
2200
0000
ENDCHAR
STARTCHAR char8264
ENCODING 8265
SWIDTH 613 0
DWIDTH 9 0
BBX 9 11 0 -1
BITMAP
0000
BE00
A200
A200
8200
8200
8E00
0800
0000
8800
0000
ENDCHAR
STARTCHAR char8266
ENCODING 8266
SWIDTH 613 0
DWIDTH 9 0
BBX 9 11 0 -1
BITMAP
0000
0000
0000
000F
FE00
0200
0201
1E01
1001
1000
000E
ENDCHAR
STARTCHAR U+00B6
ENCODING 8267
SWIDTH 613 0
DWIDTH 9 0
BBX 9 11 0 -1
BITMAP
0000
FE00
9E00
9E00
9E00
9E00
9E00
9000
9000
F000
0000
ENDCHAR
STARTCHAR char8268
ENCODING 8268
SWIDTH 613 0
DWIDTH 9 0
BBX 9 11 0 -1
BITMAP
0000
0000
0000
0000
0003
3407
7403
3400
0000
0000
000E
ENDCHAR
STARTCHAR char8268
ENCODING 8269
SWIDTH 613 0
DWIDTH 9 0
BBX 9 11 0 -1
BITMAP
0000
0000
0000
0000
0005
5805
5C05
5800
0000
0000
000E
ENDCHAR
STARTCHAR U+002A
ENCODING 8270
SWIDTH 613 0
DWIDTH 9 0
BBX 9 11 0 -1
BITMAP
0000
0000
0000
0000
0003
3801
1007
7C01
1003
3800
000E
ENDCHAR
STARTCHAR U+003B
ENCODING 8271
SWIDTH 613 0
DWIDTH 9 0
BBX 9 11 0 -1
BITMAP
0000
0000
0000
0001
1000
0000
0000
0000
0001
1001
180E
ENDCHAR
STARTCHAR char8272
ENCODING 8272
SWIDTH 613 0
DWIDTH 9 0
BBX 9 11 0 -1
BITMAP
7C00
C600
0000
0000
0000
0000
0000
0000
0000
C600
7C00
ENDCHAR
STARTCHAR char8273
ENCODING 8273
SWIDTH 613 0
DWIDTH 9 0
BBX 9 11 0 -1
BITMAP
0000
0000
0001
1003
3801
1000
0001
1003
3801
1000
000E
ENDCHAR
STARTCHAR char8274
ENCODING 8274
SWIDTH 613 0
DWIDTH 9 0
BBX 9 11 0 -1
BITMAP
0000
0800
2800
0800
0800
3800
2000
2000
2800
2000
0000
ENDCHAR
STARTCHAR char8275
ENCODING 8275
SWIDTH 613 0
DWIDTH 9 0
BBX 9 11 0 -1
BITMAP
0000
0000
0000
0000
0000
000F
F209
9E00
0000
0000
000E
ENDCHAR
STARTCHAR char8276
ENCODING 8276
SWIDTH 613 0
DWIDTH 9 0
BBX 9 11 0 -1
BITMAP
0000
0000
0000
0000
0000
0000
0000
0000
0007
7C0C
C60E
ENDCHAR
STARTCHAR char8277
ENCODING 8277
SWIDTH 613 0
DWIDTH 9 0
BBX 9 11 0 -1
BITMAP
0000
0000
0001
1003
3801
1007
7C01
1003
3801
1000
000E
ENDCHAR
STARTCHAR char8278
ENCODING 8278
SWIDTH 613 0
DWIDTH 9 0
BBX 9 11 0 -1
BITMAP
0000
0000
0000
0000
0400
0004
4000
0000
0400
0000
000E
ENDCHAR
STARTCHAR char8279
ENCODING 8279
SWIDTH 613 0
DWIDTH 9 0
BBX 9 11 0 -1
BITMAP
AA00
AA00
AA00
0000
0000
0000
0000
0000
0000
0000
0000
ENDCHAR
STARTCHAR char8280
ENCODING 8280
SWIDTH 613 0
DWIDTH 9 0
BBX 9 11 0 -1
BITMAP
0000
0000
0000
0001
1000
0004
4400
0001
1000
0000
000E
ENDCHAR
STARTCHAR char8281
ENCODING 8281
SWIDTH 613 0
DWIDTH 9 0
BBX 9 11 0 -1
BITMAP
0000
0000
0000
0004
4400
0001
1000
0004
4400
0000
000E
ENDCHAR
STARTCHAR char8282
ENCODING 8282
SWIDTH 613 0
DWIDTH 9 0
BBX 9 11 0 -1
BITMAP
0000
0000
0001
1000
0000
0000
0000
0000
0001
1000
000E
ENDCHAR
STARTCHAR char8283
ENCODING 8283
SWIDTH 613 0
DWIDTH 9 0
BBX 9 11 0 -1
BITMAP
0000
0000
0001
1000
0000
0004
4400
0000
0001
1000
000E
ENDCHAR
STARTCHAR char8284
ENCODING 8284
SWIDTH 613 0
DWIDTH 9 0
BBX 9 11 0 -1
BITMAP
0000
0000
0001
1005
5401
100F
FE01
1005
5401
1000
000E
ENDCHAR
STARTCHAR char8285
ENCODING 8285
SWIDTH 613 0
DWIDTH 9 0
BBX 9 11 0 -1
BITMAP
0000
0000
0001
1000
0000
0001
1000
0000
0001
1000
000E
ENDCHAR
STARTCHAR char8286
ENCODING 8286
SWIDTH 613 0
DWIDTH 9 0
BBX 9 11 0 -1
BITMAP
0000
0000
0001
1000
0001
1000
0001
1000
0001
1000
000E
ENDCHAR
STARTCHAR char8287
ENCODING 8304
SWIDTH 613 0
DWIDTH 9 0
BBX 9 11 0 -1
BITMAP
0000
3800
2800
2800
2800
3800
0000
0000
0000
0000
0000
ENDCHAR
STARTCHAR char8288
ENCODING 8305
SWIDTH 613 0
DWIDTH 9 0
BBX 9 11 0 -1
BITMAP
0000
7C00
1000
1000
1000
7C00
0000
0000
0000
0000
0000
ENDCHAR
STARTCHAR char8308
ENCODING 8308
SWIDTH 613 0
DWIDTH 9 0
BBX 9 11 0 -1
BITMAP
0000
2800
2800
3800
0800
0800
0000
0000
0000
0000
0000
ENDCHAR
STARTCHAR char8309
ENCODING 8309
SWIDTH 613 0
DWIDTH 9 0
BBX 9 11 0 -1
BITMAP
0000
3800
2000
3800
0800
3800
0000
0000
0000
0000
0000
ENDCHAR
STARTCHAR char8309
ENCODING 8310
SWIDTH 613 0
DWIDTH 9 0
BBX 9 11 0 -1
BITMAP
0000
3800
2000
3800
2800
3800
0000
0000
0000
0000
0000
ENDCHAR
STARTCHAR char8309
ENCODING 8311
SWIDTH 613 0
DWIDTH 9 0
BBX 9 11 0 -1
BITMAP
0000
3800
0800
0800
0800
0800
0000
0000
0000
0000
0000
ENDCHAR
STARTCHAR char8309
ENCODING 8312
SWIDTH 613 0
DWIDTH 9 0
BBX 9 11 0 -1
BITMAP
0000
3800
2800
3800
2800
3800
0000
0000
0000
0000
0000
ENDCHAR
STARTCHAR char8309
ENCODING 8313
SWIDTH 613 0
DWIDTH 9 0
BBX 9 11 0 -1
BITMAP
0000
3800
2800
3800
0800
3800
0000
0000
0000
0000
0000
ENDCHAR
STARTCHAR char8314
ENCODING 8314
SWIDTH 613 0
DWIDTH 9 0
BBX 9 11 0 -1
BITMAP
0000
1000
1000
7C00
1000
1000
0000
0000
0000
0000
0000
ENDCHAR
STARTCHAR char8315
ENCODING 8315
SWIDTH 613 0
DWIDTH 9 0
BBX 9 11 0 -1
BITMAP
0000
0000
0000
7C00
0000
0000
0000
0000
0000
0000
0000
ENDCHAR
STARTCHAR char8316
ENCODING 8316
SWIDTH 613 0
DWIDTH 9 0
BBX 9 11 0 -1
BITMAP
0000
0000
7C00
0000
7C00
0000
0000
0000
0000
0000
0000
ENDCHAR
STARTCHAR char8317
ENCODING 8317
SWIDTH 613 0
DWIDTH 9 0
BBX 9 11 0 -1
BITMAP
1000
3000
2000
2000
2000
3000
1000
0000
0000
0000
0000
ENDCHAR
STARTCHAR char8317
ENCODING 8318
SWIDTH 613 0
DWIDTH 9 0
BBX 9 11 0 -1
BITMAP
1000
1800
0800
0800
0800
1800
1000
0000
0000
0000
0000
ENDCHAR
STARTCHAR char8319
ENCODING 8319
SWIDTH 613 0
DWIDTH 9 0
BBX 9 11 0 -1
BITMAP
0000
7400
5400
5400
5400
5C00
0000
0000
0000
0000
0000
ENDCHAR
STARTCHAR char8287
ENCODING 8320
SWIDTH 613 0
DWIDTH 9 0
BBX 9 11 0 -1
BITMAP
0000
0000
0000
0000
0000
0003
3802
2802
2802
2803
380E
ENDCHAR
STARTCHAR char8288
ENCODING 8321
SWIDTH 613 0
DWIDTH 9 0
BBX 9 11 0 -1
BITMAP
0000
0000
0000
0000
0000
0001
1003
3001
1001
1001
100E
ENDCHAR
STARTCHAR char8322
ENCODING 8322
SWIDTH 613 0
DWIDTH 9 0
BBX 9 11 0 -1
BITMAP
0000
0000
0000
0000
0000
0003
3800
0803
3802
2003
380E
ENDCHAR
STARTCHAR char8323
ENCODING 8323
SWIDTH 613 0
DWIDTH 9 0
BBX 9 11 0 -1
BITMAP
0000
0000
0000
0000
0000
0003
3800
0803
3800
0803
380E
ENDCHAR
STARTCHAR char8308
ENCODING 8324
SWIDTH 613 0
DWIDTH 9 0
BBX 9 11 0 -1
BITMAP
0000
0000
0000
0000
0000
0002
2802
2803
3800
0800
080E
ENDCHAR
STARTCHAR char8309
ENCODING 8325
SWIDTH 613 0
DWIDTH 9 0
BBX 9 11 0 -1
BITMAP
0000
0000
0000
0000
0000
0003
3802
2003
3800
0803
380E
ENDCHAR
STARTCHAR char8309
ENCODING 8326
SWIDTH 613 0
DWIDTH 9 0
BBX 9 11 0 -1
BITMAP
0000
0000
0000
0000
0000
0003
3802
2003
3802
2803
380E
ENDCHAR
STARTCHAR char8309
ENCODING 8327
SWIDTH 613 0
DWIDTH 9 0
BBX 9 11 0 -1
BITMAP
0000
0000
0000
0000
0000
0003
3800
0800
0800
0800
080E
ENDCHAR
STARTCHAR char8309
ENCODING 8328
SWIDTH 613 0
DWIDTH 9 0
BBX 9 11 0 -1
BITMAP
0000
0000
0000
0000
0000
0003
3802
2803
3802
2803
380E
ENDCHAR
STARTCHAR char8309
ENCODING 8329
SWIDTH 613 0
DWIDTH 9 0
BBX 9 11 0 -1
BITMAP
0000
0000
0000
0000
0000
0003
3802
2803
3800
0803
380E
ENDCHAR
STARTCHAR char8314
ENCODING 8330
SWIDTH 613 0
DWIDTH 9 0
BBX 9 11 0 -1
BITMAP
0000
0000
0000
0000
0000
0001
1001
1007
7C01
1001
100E
ENDCHAR
STARTCHAR char8315
ENCODING 8331
SWIDTH 613 0
DWIDTH 9 0
BBX 9 11 0 -1
BITMAP
0000
0000
0000
0000
0000
0000
0000
0007
7C00
0000
000E
ENDCHAR
STARTCHAR char8316
ENCODING 8332
SWIDTH 613 0
DWIDTH 9 0
BBX 9 11 0 -1
BITMAP
0000
0000
0000
0000
0000
0000
0007
7C00
0007
7C00
000E
ENDCHAR
STARTCHAR char8317
ENCODING 8333
SWIDTH 613 0
DWIDTH 9 0
BBX 9 11 0 -1
BITMAP
0000
0000
0000
0000
0001
1003
3002
2002
2003
3001
100E
ENDCHAR
STARTCHAR char8317
ENCODING 8334
SWIDTH 613 0
DWIDTH 9 0
BBX 9 11 0 -1
BITMAP
0000
0000
0000
0000
0001
1001
1800
0800
0801
1801
100E
ENDCHAR
STARTCHAR char8336
ENCODING 8336
SWIDTH 613 0
DWIDTH 9 0
BBX 9 11 0 -1
BITMAP
0000
0000
0000
0000
0007
7C04
4407
7C04
4404
4400
000E
ENDCHAR
STARTCHAR char8337
ENCODING 8337
SWIDTH 613 0
DWIDTH 9 0
BBX 9 11 0 -1
BITMAP
0000
0000
0000
0000
0007
7C04
4007
7C04
4007
7C00
000E
ENDCHAR
STARTCHAR char8338
ENCODING 8338
SWIDTH 613 0
DWIDTH 9 0
BBX 9 11 0 -1
BITMAP
0000
0000
0000
0000
0007
7C04
4404
4404
4407
7C00
000E
ENDCHAR
STARTCHAR char8339
ENCODING 8339
SWIDTH 613 0
DWIDTH 9 0
BBX 9 11 0 -1
BITMAP
0000
0000
0000
0000
0004
4407
7C01
1007
7C04
4400
000E
ENDCHAR
STARTCHAR char8340
ENCODING 8340
SWIDTH 613 0
DWIDTH 9 0
BBX 9 11 0 -1
BITMAP
0000
0000
0000
0000
0007
7E00
0207
7E04
4207
7E00
000E
ENDCHAR
STARTCHAR char8341
ENCODING 8341
SWIDTH 613 0
DWIDTH 9 0
BBX 9 11 0 -1
BITMAP
0000
0000
0000
0000
0004
4204
4207
7E04
4204
4200
000E
ENDCHAR
STARTCHAR char8342
ENCODING 8342
SWIDTH 613 0
DWIDTH 9 0
BBX 9 11 0 -1
BITMAP
0000
0000
0000
0000
0004
4C04
4807
7804
4804
4C00
000E
ENDCHAR
STARTCHAR char8343
ENCODING 8343
SWIDTH 613 0
DWIDTH 9 0
BBX 9 11 0 -1
BITMAP
0000
0000
0000
0000
0004
4004
4004
4004
4007
7C00
000E
ENDCHAR
STARTCHAR char8344
ENCODING 8344
SWIDTH 613 0
DWIDTH 9 0
BBX 9 11 0 -1
BITMAP
0000
0000
0000
0000
0007
7C05
5405
5405
5405
5400
000E
ENDCHAR
STARTCHAR char8345
ENCODING 8345
SWIDTH 613 0
DWIDTH 9 0
BBX 9 11 0 -1
BITMAP
0000
0000
0000
0000
0007
7405
5405
5405
5405
5C00
000E
ENDCHAR
STARTCHAR char8346
ENCODING 8346
SWIDTH 613 0
DWIDTH 9 0
BBX 9 11 0 -1
BITMAP
0000
0000
0000
0000
0007
7C04
4407
7C04
4004
4000
000E
ENDCHAR
STARTCHAR char8347
ENCODING 8347
SWIDTH 613 0
DWIDTH 9 0
BBX 9 11 0 -1
BITMAP
0000
0000
0000
0000
0007
7C04
4007
7C00
0407
7C00
000E
ENDCHAR
STARTCHAR char8348
ENCODING 8348
SWIDTH 613 0
DWIDTH 9 0
BBX 9 11 0 -1
BITMAP
0000
0000
0000
0000
0007
7C01
1001
1001
1001
1000
000E
ENDCHAR
STARTCHAR char8352
ENCODING 8352
SWIDTH 613 0
DWIDTH 9 0
BBX 9 11 0 -1
BITMAP
0000
0000
000F
F808
800B
BE0A
A00F
FE02
2003
3E00
000E
ENDCHAR
STARTCHAR char8353
ENCODING 8353
SWIDTH 613 0
DWIDTH 9 0
BBX 9 11 0 -1
BITMAP
0000
0002
280F
FE0A
A80A
A80A
A80A
A80A
A80F
FE02
280E
ENDCHAR
STARTCHAR char8354
ENCODING 8354
SWIDTH 613 0
DWIDTH 9 0
BBX 9 11 0 -1
BITMAP
0000
FE00
8000
BC00
A400
BC00
A800
AC00
8000
FE00
0000
ENDCHAR
STARTCHAR char8355
ENCODING 8355
SWIDTH 613 0
DWIDTH 9 0
BBX 9 11 0 -1
BITMAP
0000
7E00
4000
4000
F800
4000
F800
4000
4000
4000
0000
ENDCHAR
STARTCHAR char8356
ENCODING 8356
SWIDTH 613 0
DWIDTH 9 0
BBX 9 11 0 -1
BITMAP
0000
7000
5000
4000
F000
4000
F000
4000
4000
7E00
0000
ENDCHAR
STARTCHAR char8357
ENCODING 8357
SWIDTH 613 0
DWIDTH 9 0
BBX 9 11 0 -1
BITMAP
0000
0000
080F
FE09
9A09
9A0B
BA0B
B20B
B20B
B202
200E
ENDCHAR
STARTCHAR char8358
ENCODING 8358
SWIDTH 613 0
DWIDTH 9 0
BBX 9 11 0 -1
BITMAP
0000
7400
5400
5400
FE00
5400
FE00
5400
5400
5C00
0000
ENDCHAR
STARTCHAR char8359
ENCODING 8359
SWIDTH 613 0
DWIDTH 9 0
BBX 9 11 0 -1
BITMAP
0000
F000
9000
F000
8000
FE00
A800
AE00
A200
AE00
0000
ENDCHAR
STARTCHAR char8360
ENCODING 8360
SWIDTH 613 0
DWIDTH 9 0
BBX 9 11 0 -1
BITMAP
0000
F000
9000
9000
F000
AE00
A800
AE00
A200
BE00
0000
ENDCHAR
STARTCHAR char8361
ENCODING 8361
SWIDTH 613 0
DWIDTH 9 0
BBX 9 11 0 -1
BITMAP
0000
0000
0005
5405
540F
FE05
540F
FE05
5407
7C00
000E
ENDCHAR
STARTCHAR char8362
ENCODING 8362
SWIDTH 613 0
DWIDTH 9 0
BBX 9 11 0 -1
BITMAP
0000
FA00
8A00
AA00
AA00
AA00
AA00
AA00
A200
BE00
0000
ENDCHAR
STARTCHAR char8363
ENCODING 8363
SWIDTH 613 0
DWIDTH 9 0
BBX 9 11 0 -1
BITMAP
0000
0400
0400
1E00
0400
7C00
4400
7C00
0000
7C00
0000
ENDCHAR
STARTCHAR char8364
ENCODING 8364
SWIDTH 613 0
DWIDTH 9 0
BBX 9 11 0 -1
BITMAP
0000
7E00
4000
4000
FC00
4000
FC00
4000
4000
7E00
0000
ENDCHAR
STARTCHAR char8365
ENCODING 8365
SWIDTH 613 0
DWIDTH 9 0
BBX 9 11 0 -1
BITMAP
0000
4E00
4800
4800
4800
FE00
4800
4800
4800
4E00
0000
ENDCHAR
STARTCHAR char8366
ENCODING 8366
SWIDTH 613 0
DWIDTH 9 0
BBX 9 11 0 -1
BITMAP
0000
FE00
1000
1000
1800
3000
1800
3000
1000
1000
0000
ENDCHAR
STARTCHAR char8367
ENCODING 8367
SWIDTH 613 0
DWIDTH 9 0
BBX 9 11 0 -1
BITMAP
0000
E000
B000
9000
9000
9000
9E00
BA00
EE00
0800
0000
ENDCHAR
STARTCHAR char8368
ENCODING 8368
SWIDTH 613 0
DWIDTH 9 0
BBX 9 11 0 -1
BITMAP
0000
0E00
0A00
0A00
0A00
0A00
EE00
AA00
BA00
0200
0E00
ENDCHAR
STARTCHAR char8369
ENCODING 8369
SWIDTH 613 0
DWIDTH 9 0
BBX 9 11 0 -1
BITMAP
0000
7C00
4400
FE00
4400
FE00
4400
7C00
4000
4000
0000
ENDCHAR
STARTCHAR char8370
ENCODING 8370
SWIDTH 613 0
DWIDTH 9 0
BBX 9 11 0 -1
BITMAP
1000
FE00
9000
9000
9000
9E00
9200
9200
9200
FE00
1000
ENDCHAR
STARTCHAR char8371
ENCODING 8371
SWIDTH 613 0
DWIDTH 9 0
BBX 9 11 0 -1
BITMAP
0000
7C00
4400
4400
FE00
4400
FE00
4400
4400
4400
0000
ENDCHAR
STARTCHAR char8372
ENCODING 8372
SWIDTH 613 0
DWIDTH 9 0
BBX 9 11 0 -1
BITMAP
0000
7C00
0400
FE00
0400
7C00
4000
FE00
4000
7C00
0000
ENDCHAR
STARTCHAR char8373
ENCODING 8373
SWIDTH 613 0
DWIDTH 9 0
BBX 9 11 0 -1
BITMAP
1000
FE00
9000
9000
9000
9000
9000
9000
9000
FE00
1000
ENDCHAR
STARTCHAR char8374
ENCODING 8374
SWIDTH 613 0
DWIDTH 9 0
BBX 9 11 0 -1
BITMAP
0000
4800
4800
4800
FE00
4800
4800
4800
4800
4E00
0000
ENDCHAR
STARTCHAR char8375
ENCODING 8375
SWIDTH 613 0
DWIDTH 9 0
BBX 9 11 0 -1
BITMAP
0000
7E00
4000
4000
4000
7E00
0200
FA00
AA00
AE00
0000
ENDCHAR
STARTCHAR char8376
ENCODING 8376
SWIDTH 613 0
DWIDTH 9 0
BBX 9 11 0 -1
BITMAP
0000
0000
000F
FE00
000F
FE01
1001
1001
1001
1000
000E
ENDCHAR
STARTCHAR char8377
ENCODING 8377
SWIDTH 613 0
DWIDTH 9 0
BBX 9 11 0 -1
BITMAP
0000
FE00
0400
0400
FE00
0400
3C00
2000
2000
3C00
0000
ENDCHAR
STARTCHAR char8378
ENCODING 8378
SWIDTH 613 0
DWIDTH 9 0
BBX 9 11 0 -1
BITMAP
0000
0000
0004
4007
700C
C007
700C
C604
4407
7C00
000E
ENDCHAR
STARTCHAR char8379
ENCODING 8379
SWIDTH 613 0
DWIDTH 9 0
BBX 9 11 0 -1
BITMAP
0000
C000
FC00
4400
4400
5400
FC00
4000
4000
7800
0000
ENDCHAR
STARTCHAR char8380
ENCODING 8380
SWIDTH 613 0
DWIDTH 9 0
BBX 9 11 0 -1
BITMAP
0000
0000
0001
1007
7C05
540D
D609
9209
9209
9200
000E
ENDCHAR
STARTCHAR char8381
ENCODING 8381
SWIDTH 613 0
DWIDTH 9 0
BBX 9 11 0 -1
BITMAP
0000
7E00
4200
4200
4200
FE00
4000
FE00
4000
4000
0000
ENDCHAR
STARTCHAR char8382
ENCODING 8382
SWIDTH 613 0
DWIDTH 9 0
BBX 9 11 0 -1
BITMAP
2800
FE00
AA00
A800
A800
8000
8000
8000
8000
FE00
0000
ENDCHAR
STARTCHAR char8383
ENCODING 8383
SWIDTH 613 0
DWIDTH 9 0
BBX 9 11 0 -1
BITMAP
2800
FC00
4400
4400
4400
7E00
4200
4200
4200
FE00
2800
ENDCHAR
STARTCHAR char8448
ENCODING 8448
SWIDTH 613 0
DWIDTH 9 0
BBX 9 11 0 -1
BITMAP
3800
2800
3800
2800
0000
3800
0000
3800
2000
3800
0000
ENDCHAR
STARTCHAR char8449
ENCODING 8449
SWIDTH 613 0
DWIDTH 9 0
BBX 9 11 0 -1
BITMAP
0000
E000
A000
E000
A000
0E00
E800
0E00
0200
0E00
0000
ENDCHAR
STARTCHAR char8450
ENCODING 8450
SWIDTH 613 0
DWIDTH 9 0
BBX 9 11 0 -1
BITMAP
0000
FE00
A000
A000
A000
A000
A000
A000
A000
FE00
0000
ENDCHAR
STARTCHAR char8451
ENCODING 8451
SWIDTH 613 0
DWIDTH 9 0
BBX 9 11 0 -1
BITMAP
0000
EE00
A800
E800
0800
0800
0800
0800
0800
0E00
0000
ENDCHAR
STARTCHAR char8452
ENCODING 8452
SWIDTH 613 0
DWIDTH 9 0
BBX 9 11 0 -1
BITMAP
0000
2000
2000
F800
A000
A000
A000
F800
2000
3E00
0000
ENDCHAR
STARTCHAR char8453
ENCODING 8453
SWIDTH 613 0
DWIDTH 9 0
BBX 9 11 0 -1
BITMAP
0000
3800
2000
3800
0000
3800
0000
3800
2800
3800
0000
ENDCHAR
STARTCHAR char8453
ENCODING 8454
SWIDTH 613 0
DWIDTH 9 0
BBX 9 11 0 -1
BITMAP
0000
2800
2800
3800
0000
3800
0000
2800
2800
3800
0000
ENDCHAR
STARTCHAR char8455
ENCODING 8455
SWIDTH 613 0
DWIDTH 9 0
BBX 9 11 0 -1
BITMAP
0000
FE00
8200
8000
C000
7800
C000
8000
8200
FE00
0000
ENDCHAR
STARTCHAR char8456
ENCODING 8456
SWIDTH 613 0
DWIDTH 9 0
BBX 9 11 0 -1
BITMAP
0000
0000
000F
FE08
8202
2203
3E02
2208
820F
FE00
000E
ENDCHAR
STARTCHAR char8457
ENCODING 8457
SWIDTH 613 0
DWIDTH 9 0
BBX 9 11 0 -1
BITMAP
0000
EE00
A800
E800
0800
0E00
0800
0800
0800
0800
0000
ENDCHAR
STARTCHAR char8458
ENCODING 8458
SWIDTH 613 0
DWIDTH 9 0
BBX 9 11 0 -1
BITMAP
0000
0000
0000
0000
0003
3802
2803
3800
0C01
1801
180E
ENDCHAR
STARTCHAR char8459
ENCODING 8459
SWIDTH 613 0
DWIDTH 9 0
BBX 9 11 0 -1
BITMAP
0000
EE00
AA00
2A00
2E00
3800
6800
2800
A800
EE00
0000
ENDCHAR
STARTCHAR char8461
ENCODING 8461
SWIDTH 613 0
DWIDTH 9 0
BBX 9 11 0 -1
BITMAP
0000
EE00
AA00
AA00
AA00
BA00
AA00
AA00
AA00
EE00
0000
ENDCHAR
STARTCHAR char8462
ENCODING 8462
SWIDTH 613 0
DWIDTH 9 0
BBX 9 11 0 -1
BITMAP
0000
8000
8000
8000
8000
F800
8800
8800
8800
8C00
0000
ENDCHAR
STARTCHAR char8463
ENCODING 8463
SWIDTH 613 0
DWIDTH 9 0
BBX 9 11 0 -1
BITMAP
0000
4000
4000
E000
4000
7C00
4400
4400
4400
4600
0000
ENDCHAR
STARTCHAR char8464
ENCODING 8464
SWIDTH 613 0
DWIDTH 9 0
BBX 9 11 0 -1
BITMAP
0000
3800
2800
6800
0800
0800
0800
6800
4800
7800
0000
ENDCHAR
STARTCHAR char8465
ENCODING 8465
SWIDTH 613 0
DWIDTH 9 0
BBX 9 11 0 -1
BITMAP
0000
EF00
8900
8900
FF00
0800
0800
E800
AA00
FE00
0000
ENDCHAR
STARTCHAR char8466
ENCODING 8466
SWIDTH 613 0
DWIDTH 9 0
BBX 9 11 0 -1
BITMAP
0000
3800
2800
2800
2800
2800
3800
6000
2800
3800
0000
ENDCHAR
STARTCHAR char8469
ENCODING 8469
SWIDTH 613 0
DWIDTH 9 0
BBX 9 11 0 -1
BITMAP
0000
FA00
AA00
AA00
AA00
AA00
AA00
AA00
AA00
BE00
0000
ENDCHAR
STARTCHAR char8470
ENCODING 8470
SWIDTH 613 0
DWIDTH 9 0
BBX 9 11 0 -1
BITMAP
E800
A800
A800
B800
0000
0E00
0A00
0E00
0000
0E00
0000
ENDCHAR
STARTCHAR char8471
ENCODING 8471
SWIDTH 613 0
DWIDTH 9 0
BBX 9 11 0 -1
BITMAP
0000
FE00
8200
BA00
AA00
BA00
A200
8200
FE00
0000
0000
ENDCHAR
STARTCHAR char8472
ENCODING 8472
SWIDTH 613 0
DWIDTH 9 0
BBX 9 11 0 -1
BITMAP
0004
4007
7E0C
C204
4206
6A02
2E02
200A
A00E
E000
000E
ENDCHAR
STARTCHAR char8473
ENCODING 8473
SWIDTH 613 0
DWIDTH 9 0
BBX 9 11 0 -1
BITMAP
0000
FE00
AA00
AA00
AA00
AA00
BE00
A000
A000
E000
0000
ENDCHAR
STARTCHAR char8474
ENCODING 8474
SWIDTH 613 0
DWIDTH 9 0
BBX 9 11 0 -1
BITMAP
0000
FE00
AA00
AA00
AA00
AA00
BA00
AA00
AA00
EE00
3800
ENDCHAR
STARTCHAR char8475
ENCODING 8475
SWIDTH 613 0
DWIDTH 9 0
BBX 9 11 0 -1
BITMAP
0000
FE00
8200
9200
9200
D200
1E00
D400
9400
F600
0000
ENDCHAR
STARTCHAR char8477
ENCODING 8477
SWIDTH 613 0
DWIDTH 9 0
BBX 9 11 0 -1
BITMAP
0000
FE00
AA00
AA00
AA00
BE00
A800
A800
A800
EE00
0000
ENDCHAR
STARTCHAR char8480
ENCODING 8480
SWIDTH 613 0
DWIDTH 9 0
BBX 9 11 0 -1
BITMAP
0000
0000
0000
000E
EA08
8E0E
EA02
2A0E
EA00
0000
000E
ENDCHAR
STARTCHAR char8481
ENCODING 8481
SWIDTH 613 0
DWIDTH 9 0
BBX 9 11 0 -1
BITMAP
0000
EE00
4800
4E00
4800
4E00
4000
4800
4800
4E00
0000
ENDCHAR
STARTCHAR char8482
ENCODING 8482
SWIDTH 613 0
DWIDTH 9 0
BBX 9 11 0 -1
BITMAP
0000
0000
EE00
4E00
4E00
4A00
0000
0000
0000
0000
0000
ENDCHAR
STARTCHAR char8484
ENCODING 8484
SWIDTH 613 0
DWIDTH 9 0
BBX 9 11 0 -1
BITMAP
0000
FE00
0A00
2A00
FA00
8200
BE00
A800
A000
FE00
0000
ENDCHAR
STARTCHAR char8485
ENCODING 8485
SWIDTH 613 0
DWIDTH 9 0
BBX 9 11 0 -1
BITMAP
0000
7C00
0400
0400
1C00
0800
1C00
0400
0400
4400
7C00
ENDCHAR
STARTCHAR char8486
ENCODING 8486
SWIDTH 613 0
DWIDTH 9 0
BBX 9 11 0 -1
BITMAP
0000
FE00
8200
8200
8200
8200
8200
EE00
2800
EE00
0000
ENDCHAR
STARTCHAR char8486
ENCODING 8487
SWIDTH 613 0
DWIDTH 9 0
BBX 9 11 0 -1
BITMAP
0000
EE00
2800
EE00
8200
8200
8200
8200
8200
FE00
0000
ENDCHAR
STARTCHAR char8490
ENCODING 8490
SWIDTH 613 0
DWIDTH 9 0
BBX 9 11 0 -1
BITMAP
0000
8E00
8800
8800
8800
F800
8800
8800
8800
8E00
0000
ENDCHAR
STARTCHAR char8491
ENCODING 8491
SWIDTH 613 0
DWIDTH 9 0
BBX 9 11 0 -1
BITMAP
3800
EE00
BA00
8200
8200
FE00
8200
8200
8200
8200
0000
ENDCHAR
STARTCHAR char8492
ENCODING 8492
SWIDTH 613 0
DWIDTH 9 0
BBX 9 11 0 -1
BITMAP
000F
FC08
840A
A402
2407
7E02
220A
A20A
AA0E
EE00
000E
ENDCHAR
STARTCHAR char8494
ENCODING 8494
SWIDTH 613 0
DWIDTH 9 0
BBX 9 11 0 -1
BITMAP
0000
000F
FE0C
C60C
C60F
FE0C
C00C
C00F
FE00
0000
000E
ENDCHAR
STARTCHAR char8495
ENCODING 8495
SWIDTH 613 0
DWIDTH 9 0
BBX 9 11 0 -1
BITMAP
0000
0000
0000
0003
3C02
2407
7C02
2002
2403
3C00
000E
ENDCHAR
STARTCHAR char8496
ENCODING 8496
SWIDTH 613 0
DWIDTH 9 0
BBX 9 11 0 -1
BITMAP
0000
7E00
4200
FE00
4000
7000
5600
7200
4200
7E00
0000
ENDCHAR
STARTCHAR char8497
ENCODING 8497
SWIDTH 613 0
DWIDTH 9 0
BBX 9 11 0 -1
BITMAP
0000
060F
FC09
9009
900D
D401
1C0D
D009
900F
F000
000E
ENDCHAR
STARTCHAR char8498
ENCODING 8498
SWIDTH 613 0
DWIDTH 9 0
BBX 9 11 0 -1
BITMAP
0000
0200
0200
0200
0200
FE00
0200
0200
0200
FE00
0000
ENDCHAR
STARTCHAR char8499
ENCODING 8499
SWIDTH 613 0
DWIDTH 9 0
BBX 9 11 0 -1
BITMAP
0000
0000
7000
5C00
5400
5400
5400
5400
5400
D600
0000
ENDCHAR
STARTCHAR char8500
ENCODING 8500
SWIDTH 613 0
DWIDTH 9 0
BBX 9 11 0 -1
BITMAP
0000
0000
0000
0000
0007
7C04
4404
4E04
440F
FC00
000E
ENDCHAR
STARTCHAR char8504
ENCODING 8505
SWIDTH 613 0
DWIDTH 9 0
BBX 9 11 0 -1
BITMAP
0000
0001
1801
1800
0007
7801
1801
1801
1807
7E00
000E
ENDCHAR
STARTCHAR char8505
ENCODING 8506
SWIDTH 613 0
DWIDTH 9 0
BBX 9 11 0 -1
BITMAP
0000
0000
000F
FE08
8208
8209
9E08
8208
820F
FE00
000E
ENDCHAR
STARTCHAR char8506
ENCODING 8507
SWIDTH 613 0
DWIDTH 9 0
BBX 9 11 0 -1
BITMAP
0000
EE00
8A00
8E00
8A00
EA00
8000
B600
9C00
B600
0000
ENDCHAR
STARTCHAR char8507
ENCODING 8508
SWIDTH 613 0
DWIDTH 9 0
BBX 9 11 0 -1
BITMAP
0000
0000
000F
FE0A
A40A
A40A
A40A
A40A
A40E
E600
000E
ENDCHAR
STARTCHAR char8508
ENCODING 8510
SWIDTH 613 0
DWIDTH 9 0
BBX 9 11 0 -1
BITMAP
0000
FE00
A000
A000
A000
A000
A000
A000
A000
E000
0000
ENDCHAR
STARTCHAR char8510
ENCODING 8511
SWIDTH 613 0
DWIDTH 9 0
BBX 9 11 0 -1
BITMAP
0000
FE00
A400
A400
A400
A400
A400
A400
A400
E400
0000
ENDCHAR
STARTCHAR char8512
ENCODING 8512
SWIDTH 613 0
DWIDTH 9 0
BBX 9 11 0 -1
BITMAP
0000
FE00
A000
B000
9000
D000
9000
B000
A000
FE00
0000
ENDCHAR
STARTCHAR char8513
ENCODING 8513
SWIDTH 613 0
DWIDTH 9 0
BBX 9 11 0 -1
BITMAP
0000
FE00
8200
8200
8200
F200
0200
0200
0200
FE00
0000
ENDCHAR
STARTCHAR char8514
ENCODING 8514
SWIDTH 613 0
DWIDTH 9 0
BBX 9 11 0 -1
BITMAP
0000
FE00
0200
0200
0200
0200
0200
0200
0200
0200
0000
ENDCHAR
STARTCHAR char8515
ENCODING 8515
SWIDTH 613 0
DWIDTH 9 0
BBX 9 11 0 -1
BITMAP
0000
0200
0200
0200
0200
0200
0200
0200
0200
FE00
0000
ENDCHAR
STARTCHAR char8516
ENCODING 8516
SWIDTH 613 0
DWIDTH 9 0
BBX 9 11 0 -1
BITMAP
0000
1000
1000
1000
1000
FE00
8200
8200
8200
8200
0000
ENDCHAR
STARTCHAR char8517
ENCODING 8517
SWIDTH 613 0
DWIDTH 9 0
BBX 9 11 0 -1
BITMAP
0000
F800
AE00
AA00
AA00
AA00
AA00
AA00
AE00
F800
0000
ENDCHAR
STARTCHAR char8518
ENCODING 8518
SWIDTH 613 0
DWIDTH 9 0
BBX 9 11 0 -1
BITMAP
0000
0E00
0A00
0A00
0A00
FA00
AA00
AA00
AA00
FE00
0000
ENDCHAR
STARTCHAR char8519
ENCODING 8519
SWIDTH 613 0
DWIDTH 9 0
BBX 9 11 0 -1
BITMAP
0000
0000
000F
FE0A
AA0A
AA0B
BE0A
A00A
A00F
FE00
000E
ENDCHAR
STARTCHAR char8520
ENCODING 8520
SWIDTH 613 0
DWIDTH 9 0
BBX 9 11 0 -1
BITMAP
0000
0001
1000
000F
F802
2802
2802
2802
280F
FE00
000E
ENDCHAR
STARTCHAR char8521
ENCODING 8521
SWIDTH 613 0
DWIDTH 9 0
BBX 9 11 0 -1
BITMAP
0000
0000
0800
0003
3E01
1401
1401
1409
9409
940F
FC0E
ENDCHAR
STARTCHAR char8522
ENCODING 8522
SWIDTH 613 0
DWIDTH 9 0
BBX 9 11 0 -1
BITMAP
0000
1000
1000
FE00
9200
9200
9E00
9000
1000
1E00
0000
ENDCHAR
STARTCHAR U+0026
ENCODING 8523
SWIDTH 613 0
DWIDTH 9 0
BBX 9 11 0 -1
BITMAP
0000
4000
FE00
4200
4200
7E00
4400
4400
4400
7C00
0000
ENDCHAR
STARTCHAR char8526
ENCODING 8526
SWIDTH 613 0
DWIDTH 9 0
BBX 9 11 0 -1
BITMAP
0000
0000
0000
0400
0407
7C00
0400
0407
7C00
0000
000E
ENDCHAR
STARTCHAR char8527
ENCODING 8527
SWIDTH 613 0
DWIDTH 9 0
BBX 9 11 0 -1
BITMAP
0000
0000
0000
0000
0005
5405
540F
FE00
0000
0000
000E
ENDCHAR
STARTCHAR char8528
ENCODING 8528
SWIDTH 613 0
DWIDTH 9 0
BBX 9 11 0 -1
BITMAP
0001
1003
3001
1000
0007
7C00
0003
3800
0800
0800
000E
ENDCHAR
STARTCHAR char8529
ENCODING 8529
SWIDTH 613 0
DWIDTH 9 0
BBX 9 11 0 -1
BITMAP
0000
4000
C000
4000
4E00
0A00
EE00
0200
0E00
0000
0000
ENDCHAR
STARTCHAR char8530
ENCODING 8530
SWIDTH 613 0
DWIDTH 9 0
BBX 9 11 0 -1
BITMAP
0000
1000
3000
1000
0000
FC00
0000
5C00
D400
5C00
0000
ENDCHAR
STARTCHAR char8531
ENCODING 8531
SWIDTH 613 0
DWIDTH 9 0
BBX 9 11 0 -1
BITMAP
0000
4000
C000
4000
4E00
0200
EE00
0200
0E00
0000
0000
ENDCHAR
STARTCHAR char8531
ENCODING 8532
SWIDTH 613 0
DWIDTH 9 0
BBX 9 11 0 -1
BITMAP
0000
E000
2000
E000
8E00
E200
0E00
E200
0E00
0000
0000
ENDCHAR
STARTCHAR char8532
ENCODING 8533
SWIDTH 613 0
DWIDTH 9 0
BBX 9 11 0 -1
BITMAP
0000
4000
C000
4000
4E00
0800
EE00
0200
0E00
0000
0000
ENDCHAR
STARTCHAR char8532
ENCODING 8534
SWIDTH 613 0
DWIDTH 9 0
BBX 9 11 0 -1
BITMAP
0000
E000
2000
E000
8E00
E800
0E00
E200
0E00
0000
0000
ENDCHAR
STARTCHAR char8532
ENCODING 8535
SWIDTH 613 0
DWIDTH 9 0
BBX 9 11 0 -1
BITMAP
0000
E000
2000
E000
2E00
E800
0E00
E200
0E00
0000
0000
ENDCHAR
STARTCHAR char8532
ENCODING 8536
SWIDTH 613 0
DWIDTH 9 0
BBX 9 11 0 -1
BITMAP
0000
A000
A000
E000
2E00
2800
0E00
E200
0E00
0000
0000
ENDCHAR
STARTCHAR char8537
ENCODING 8537
SWIDTH 613 0
DWIDTH 9 0
BBX 9 11 0 -1
BITMAP
0000
4000
C000
4000
4E00
0800
EE00
0A00
0E00
0000
0000
ENDCHAR
STARTCHAR char8538
ENCODING 8538
SWIDTH 613 0
DWIDTH 9 0
BBX 9 11 0 -1
BITMAP
0000
E000
8000
E000
2E00
E800
0E00
EA00
0E00
0000
0000
ENDCHAR
STARTCHAR char8539
ENCODING 8539
SWIDTH 613 0
DWIDTH 9 0
BBX 9 11 0 -1
BITMAP
0000
4000
C000
4000
4E00
0A00
EE00
0A00
0E00
0000
0000
ENDCHAR
STARTCHAR char8539
ENCODING 8540
SWIDTH 613 0
DWIDTH 9 0
BBX 9 11 0 -1
BITMAP
0000
E000
2000
E000
2E00
EA00
0E00
EA00
0E00
0000
0000
ENDCHAR
STARTCHAR char8539
ENCODING 8541
SWIDTH 613 0
DWIDTH 9 0
BBX 9 11 0 -1
BITMAP
0000
E000
8000
E000
2E00
EA00
0E00
EA00
0E00
0000
0000
ENDCHAR
STARTCHAR char8539
ENCODING 8542
SWIDTH 613 0
DWIDTH 9 0
BBX 9 11 0 -1
BITMAP
0000
E000
2000
2000
2E00
2A00
0E00
EA00
0E00
0000
0000
ENDCHAR
STARTCHAR char8543
ENCODING 8543
SWIDTH 613 0
DWIDTH 9 0
BBX 9 11 0 -1
BITMAP
0000
1000
3000
1000
1000
0000
7C00
0000
0000
0000
0000
ENDCHAR
STARTCHAR char8544
ENCODING 8544
SWIDTH 613 0
DWIDTH 9 0
BBX 9 11 0 -1
BITMAP
0000
0007
7C01
1001
1001
1001
1001
1001
1007
7C00
000E
ENDCHAR
STARTCHAR char8544
ENCODING 8545
SWIDTH 613 0
DWIDTH 9 0
BBX 9 11 0 -1
BITMAP
0000
000F
FE02
2802
2802
2802
2802
2802
280F
FE00
000E
ENDCHAR
STARTCHAR char8544
ENCODING 8546
SWIDTH 613 0
DWIDTH 9 0
BBX 9 11 0 -1
BITMAP
0000
000F
FE05
5405
5405
5405
5405
5405
540F
FE00
000E
ENDCHAR
STARTCHAR char8544
ENCODING 8547
SWIDTH 613 0
DWIDTH 9 0
BBX 9 11 0 -1
BITMAP
0000
000F
FE05
5405
5405
5405
5405
5C04
480E
E800
000E
ENDCHAR
STARTCHAR char8548
ENCODING 8548
SWIDTH 613 0
DWIDTH 9 0
BBX 9 11 0 -1
BITMAP
0000
000E
EE04
4404
4404
4406
6C02
2803
3801
1000
000E
ENDCHAR
STARTCHAR char8544
ENCODING 8549
SWIDTH 613 0
DWIDTH 9 0
BBX 9 11 0 -1
BITMAP
0000
000F
FE05
5405
5405
5405
5407
7402
2402
2E00
000E
ENDCHAR
STARTCHAR char8550
ENCODING 8550
SWIDTH 613 0
DWIDTH 9 0
BBX 9 11 0 -1
BITMAP
0000
000A
AA0A
AA0A
AA0A
AA0A
AA0E
EA04
4A04
4A00
000E
ENDCHAR
STARTCHAR char8552
ENCODING 8551
SWIDTH 613 0
DWIDTH 9 0
BBX 9 11 0 -1
BITMAP
0000
000A
AA0A
AA0A
AA0A
AE0A
A40A
AE0A
AA0A
AA00
000E
ENDCHAR
STARTCHAR char8552
ENCODING 8552
SWIDTH 613 0
DWIDTH 9 0
BBX 9 11 0 -1
BITMAP
0000
000E
EA04
4A04
4A04
4E04
4404
4E04
4A0E
EA00
000E
ENDCHAR
STARTCHAR char8553
ENCODING 8553
SWIDTH 613 0
DWIDTH 9 0
BBX 9 11 0 -1
BITMAP
0000
000E
EE04
4404
4407
7C01
1007
7C04
440E
EE00
000E
ENDCHAR
STARTCHAR char8552
ENCODING 8554
SWIDTH 613 0
DWIDTH 9 0
BBX 9 11 0 -1
BITMAP
0000
000A
AE0A
A40A
A40E
E404
440E
E40A
A40A
AE00
000E
ENDCHAR
STARTCHAR char8552
ENCODING 8555
SWIDTH 613 0
DWIDTH 9 0
BBX 9 11 0 -1
BITMAP
0000
000A
AA0A
AA0A
AA0E
EA04
4A0E
EA0A
AA0A
AA00
000E
ENDCHAR
STARTCHAR char8556
ENCODING 8556
SWIDTH 613 0
DWIDTH 9 0
BBX 9 11 0 -1
BITMAP
0000
000E
E004
4004
4004
4004
4004
4004
420F
FE00
000E
ENDCHAR
STARTCHAR char8557
ENCODING 8557
SWIDTH 613 0
DWIDTH 9 0
BBX 9 11 0 -1
BITMAP
0000
000F
FE08
8208
8008
8008
8008
8008
800F
FE00
000E
ENDCHAR
STARTCHAR char8558
ENCODING 8558
SWIDTH 613 0
DWIDTH 9 0
BBX 9 11 0 -1
BITMAP
0000
000F
F804
4E04
4204
4204
4204
4204
4E0F
F800
000E
ENDCHAR
STARTCHAR char8559
ENCODING 8559
SWIDTH 613 0
DWIDTH 9 0
BBX 9 11 0 -1
BITMAP
0000
0007
7C05
5405
5405
5405
5405
5404
440E
EE00
000E
ENDCHAR
STARTCHAR char8544
ENCODING 8560
SWIDTH 613 0
DWIDTH 9 0
BBX 9 11 0 -1
BITMAP
0000
0000
0007
7C01
1001
1001
1001
1001
1007
7C00
000E
ENDCHAR
STARTCHAR char8544
ENCODING 8561
SWIDTH 613 0
DWIDTH 9 0
BBX 9 11 0 -1
BITMAP
0000
0000
000F
FE02
2802
2802
2802
2802
280F
FE00
000E
ENDCHAR
STARTCHAR char8544
ENCODING 8562
SWIDTH 613 0
DWIDTH 9 0
BBX 9 11 0 -1
BITMAP
0000
0000
000F
FE05
5405
5405
5405
5405
540F
FE00
000E
ENDCHAR
STARTCHAR char8544
ENCODING 8563
SWIDTH 613 0
DWIDTH 9 0
BBX 9 11 0 -1
BITMAP
0000
0000
000F
FE05
5405
5405
5405
5C04
480E
E800
000E
ENDCHAR
STARTCHAR char8548
ENCODING 8564
SWIDTH 613 0
DWIDTH 9 0
BBX 9 11 0 -1
BITMAP
0000
0000
000E
EE04
4404
4406
6C02
2803
3801
1000
000E
ENDCHAR
STARTCHAR char8544
ENCODING 8565
SWIDTH 613 0
DWIDTH 9 0
BBX 9 11 0 -1
BITMAP
0000
0000
000F
FE05
5405
5405
5407
7402
2402
2E00
000E
ENDCHAR
STARTCHAR char8550
ENCODING 8566
SWIDTH 613 0
DWIDTH 9 0
BBX 9 11 0 -1
BITMAP
0000
0000
000A
AA0A
AA0A
AA0A
AA0E
EA04
4A04
4A00
000E
ENDCHAR
STARTCHAR char8552
ENCODING 8567
SWIDTH 613 0
DWIDTH 9 0
BBX 9 11 0 -1
BITMAP
0000
0000
000A
AA0A
AA0A
AE0A
A40A
AE0A
AA0A
AA00
000E
ENDCHAR
STARTCHAR char8552
ENCODING 8568
SWIDTH 613 0
DWIDTH 9 0
BBX 9 11 0 -1
BITMAP
0000
0000
000E
EA04
4A04
4E04
4404
4E04
4A0E
EA00
000E
ENDCHAR
STARTCHAR char8553
ENCODING 8569
SWIDTH 613 0
DWIDTH 9 0
BBX 9 11 0 -1
BITMAP
0000
0000
000E
EE04
4407
7C01
1007
7C04
440E
EE00
000E
ENDCHAR
STARTCHAR char8552
ENCODING 8570
SWIDTH 613 0
DWIDTH 9 0
BBX 9 11 0 -1
BITMAP
0000
0000
000A
AE0A
A40E
E404
440E
E40A
A40A
AE00
000E
ENDCHAR
STARTCHAR char8552
ENCODING 8571
SWIDTH 613 0
DWIDTH 9 0
BBX 9 11 0 -1
BITMAP
0000
0000
000A
AA0A
AA0E
EA04
4A0E
EA0A
AA0A
AA00
000E
ENDCHAR
STARTCHAR char8556
ENCODING 8572
SWIDTH 613 0
DWIDTH 9 0
BBX 9 11 0 -1
BITMAP
0000
0000
000E
E004
4004
4004
4004
4004
420F
FE00
000E
ENDCHAR
STARTCHAR char8557
ENCODING 8573
SWIDTH 613 0
DWIDTH 9 0
BBX 9 11 0 -1
BITMAP
0000
0000
000F
FE08
8208
8008
8008
8008
800F
FE00
000E
ENDCHAR
STARTCHAR char8558
ENCODING 8574
SWIDTH 613 0
DWIDTH 9 0
BBX 9 11 0 -1
BITMAP
0000
0000
000F
F804
4E04
4204
4204
4204
4E0F
F800
000E
ENDCHAR
STARTCHAR char8559
ENCODING 8575
SWIDTH 613 0
DWIDTH 9 0
BBX 9 11 0 -1
BITMAP
0000
0000
0007
7C05
5405
5405
5405
5404
440E
EE00
000E
ENDCHAR
STARTCHAR char8576
ENCODING 8576
SWIDTH 613 0
DWIDTH 9 0
BBX 9 11 0 -1
BITMAP
0000
0007
7C0D
D609
9209
9209
9209
920D
D607
7C00
000E
ENDCHAR
STARTCHAR char8577
ENCODING 8577
SWIDTH 613 0
DWIDTH 9 0
BBX 9 11 0 -1
BITMAP
0000
000F
FC0E
E609
9209
920B
B20E
E208
860F
FC00
000E
ENDCHAR
STARTCHAR char8576
ENCODING 8578
SWIDTH 613 0
DWIDTH 9 0
BBX 9 11 0 -1
BITMAP
0000
0007
7C0D
D609
920B
BA0B
BA09
920D
D607
7C00
000E
ENDCHAR
STARTCHAR char8579
ENCODING 8579
SWIDTH 613 0
DWIDTH 9 0
BBX 9 11 0 -1
BITMAP
0000
000F
FE08
8200
0200
0200
0200
0200
020F
FE00
000E
ENDCHAR
STARTCHAR char8580
ENCODING 8580
SWIDTH 613 0
DWIDTH 9 0
BBX 9 11 0 -1
BITMAP
0000
0000
000F
FE08
8200
0200
0200
0200
020F
FE00
000E
ENDCHAR
STARTCHAR char8585
ENCODING 8585
SWIDTH 613 0
DWIDTH 9 0
BBX 9 11 0 -1
BITMAP
0000
E000
A000
A000
EE00
0200
EE00
0200
0E00
0000
0000
ENDCHAR
STARTCHAR char8592
ENCODING 8592
SWIDTH 613 0
DWIDTH 9 0
BBX 9 11 0 -1
BITMAP
0000
0000
0000
0000
0004
400F
FE04
4000
0000
0000
000E
ENDCHAR
STARTCHAR char8592
ENCODING 8593
SWIDTH 613 0
DWIDTH 9 0
BBX 9 11 0 -1
BITMAP
0000
0000
1000
3800
1000
1000
1000
1000
1000
0000
0000
ENDCHAR
STARTCHAR char8592
ENCODING 8594
SWIDTH 613 0
DWIDTH 9 0
BBX 9 11 0 -1
BITMAP
0000
0000
0000
0000
0000
040F
FE00
0400
0000
0000
000E
ENDCHAR
STARTCHAR char8592
ENCODING 8595
SWIDTH 613 0
DWIDTH 9 0
BBX 9 11 0 -1
BITMAP
0000
0000
0001
1001
1001
1001
1001
1003
3801
1000
000E
ENDCHAR
STARTCHAR char8592
ENCODING 8596
SWIDTH 613 0
DWIDTH 9 0
BBX 9 11 0 -1
BITMAP
0000
0000
0000
0000
0004
440F
FE04
4400
0000
0000
000E
ENDCHAR
STARTCHAR char8592
ENCODING 8597
SWIDTH 613 0
DWIDTH 9 0
BBX 9 11 0 -1
BITMAP
0000
0001
1003
3801
1001
1001
1001
1003
3801
1000
000E
ENDCHAR
STARTCHAR char8598
ENCODING 8598
SWIDTH 613 0
DWIDTH 9 0
BBX 9 11 0 -1
BITMAP
0000
0000
000E
E00C
C00A
A001
1000
0800
0400
0000
000E
ENDCHAR
STARTCHAR char8598
ENCODING 8599
SWIDTH 613 0
DWIDTH 9 0
BBX 9 11 0 -1
BITMAP
0000
0000
0000
0E00
0600
0A01
1002
2004
4000
0000
000E
ENDCHAR
STARTCHAR char8598
ENCODING 8600
SWIDTH 613 0
DWIDTH 9 0
BBX 9 11 0 -1
BITMAP
0000
0000
0000
0004
4002
2001
1000
0A00
0600
0E00
000E
ENDCHAR
STARTCHAR char8598
ENCODING 8601
SWIDTH 613 0
DWIDTH 9 0
BBX 9 11 0 -1
BITMAP
0000
0000
0000
0000
0400
0801
100A
A00C
C00E
E000
000E
ENDCHAR
STARTCHAR char8592
ENCODING 8602
SWIDTH 613 0
DWIDTH 9 0
BBX 9 11 0 -1
BITMAP
0000
0000
0000
0000
0804
480F
FE05
5001
1000
0000
000E
ENDCHAR
STARTCHAR char8592
ENCODING 8603
SWIDTH 613 0
DWIDTH 9 0
BBX 9 11 0 -1
BITMAP
0000
0000
0000
0001
1001
140F
FE02
2402
2000
0000
000E
ENDCHAR
STARTCHAR char8604
ENCODING 8604
SWIDTH 613 0
DWIDTH 9 0
BBX 9 11 0 -1
BITMAP
0000
0000
0000
0000
000E
E00C
CE0A
AA03
3A00
0000
000E
ENDCHAR
STARTCHAR char8604
ENCODING 8605
SWIDTH 613 0
DWIDTH 9 0
BBX 9 11 0 -1
BITMAP
0000
0000
0000
0000
0000
0E0E
E60A
AA0B
B800
0000
000E
ENDCHAR
STARTCHAR char8606
ENCODING 8606
SWIDTH 613 0
DWIDTH 9 0
BBX 9 11 0 -1
BITMAP
0000
0000
0000
0000
0004
480D
DE04
4800
0000
0000
000E
ENDCHAR
STARTCHAR char8607
ENCODING 8607
SWIDTH 613 0
DWIDTH 9 0
BBX 9 11 0 -1
BITMAP
0000
0001
1003
3800
0001
1003
3801
1001
1001
1000
000E
ENDCHAR
STARTCHAR char8608
ENCODING 8608
SWIDTH 613 0
DWIDTH 9 0
BBX 9 11 0 -1
BITMAP
0000
0000
0000
0000
0002
240F
F602
2400
0000
0000
000E
ENDCHAR
STARTCHAR char8609
ENCODING 8609
SWIDTH 613 0
DWIDTH 9 0
BBX 9 11 0 -1
BITMAP
0000
0001
1001
1001
1003
3801
1000
0003
3801
1000
000E
ENDCHAR
STARTCHAR char8606
ENCODING 8610
SWIDTH 613 0
DWIDTH 9 0
BBX 9 11 0 -1
BITMAP
0000
0000
0000
0000
0004
460F
FC04
4600
0000
0000
000E
ENDCHAR
STARTCHAR char8606
ENCODING 8611
SWIDTH 613 0
DWIDTH 9 0
BBX 9 11 0 -1
BITMAP
0000
0000
0000
0000
000C
C407
7E0C
C400
0000
0000
000E
ENDCHAR
STARTCHAR char8606
ENCODING 8612
SWIDTH 613 0
DWIDTH 9 0
BBX 9 11 0 -1
BITMAP
0000
0000
0000
0000
0004
420F
FE04
4200
0000
0000
000E
ENDCHAR
STARTCHAR char8607
ENCODING 8613
SWIDTH 613 0
DWIDTH 9 0
BBX 9 11 0 -1
BITMAP
0000
0001
1003
3801
1001
1001
1001
1001
1003
3800
000E
ENDCHAR
STARTCHAR char8608
ENCODING 8614
SWIDTH 613 0
DWIDTH 9 0
BBX 9 11 0 -1
BITMAP
0000
0000
0000
0000
0008
840F
FE08
8400
0000
0000
000E
ENDCHAR
STARTCHAR char8609
ENCODING 8615
SWIDTH 613 0
DWIDTH 9 0
BBX 9 11 0 -1
BITMAP
0000
0003
3801
1001
1001
1001
1001
1003
3801
1000
000E
ENDCHAR
STARTCHAR char8616
ENCODING 8616
SWIDTH 613 0
DWIDTH 9 0
BBX 9 11 0 -1
BITMAP
0000
0001
1003
3801
1001
1001
1001
1003
3801
1007
7C0E
ENDCHAR
STARTCHAR char8617
ENCODING 8617
SWIDTH 613 0
DWIDTH 9 0
BBX 9 11 0 -1
BITMAP
0000
0000
0000
0000
0604
420F
FE04
4000
0000
0000
000E
ENDCHAR
STARTCHAR char8618
ENCODING 8618
SWIDTH 613 0
DWIDTH 9 0
BBX 9 11 0 -1
BITMAP
0000
0000
0000
000C
C008
840F
FE00
0400
0000
0000
000E
ENDCHAR
STARTCHAR char8619
ENCODING 8619
SWIDTH 613 0
DWIDTH 9 0
BBX 9 11 0 -1
BITMAP
0000
0000
0000
0000
0E04
4A0F
FE04
4800
0000
0000
000E
ENDCHAR
STARTCHAR char8619
ENCODING 8620
SWIDTH 613 0
DWIDTH 9 0
BBX 9 11 0 -1
BITMAP
0000
0000
0000
000E
E00A
A40F
FE02
2400
0000
0000
000E
ENDCHAR
STARTCHAR char8621
ENCODING 8621
SWIDTH 613 0
DWIDTH 9 0
BBX 9 11 0 -1
BITMAP
0000
0000
0000
0000
0005
540E
EE04
4400
0000
0000
000E
ENDCHAR
STARTCHAR char8622
ENCODING 8622
SWIDTH 613 0
DWIDTH 9 0
BBX 9 11 0 -1
BITMAP
0000
0000
0801
1801
1005
540F
FE05
5401
1003
3002
200E
ENDCHAR
STARTCHAR char8622
ENCODING 8623
SWIDTH 613 0
DWIDTH 9 0
BBX 9 11 0 -1
BITMAP
0000
0004
4004
4004
4005
5C07
7400
0400
0E00
0400
000E
ENDCHAR
STARTCHAR char8623
ENCODING 8624
SWIDTH 613 0
DWIDTH 9 0
BBX 9 11 0 -1
BITMAP
0000
0000
0004
400F
F804
4800
0800
0800
0800
0800
000E
ENDCHAR
STARTCHAR char8623
ENCODING 8625
SWIDTH 613 0
DWIDTH 9 0
BBX 9 11 0 -1
BITMAP
0000
0000
0000
0403
3E02
2402
2002
2002
2002
2000
000E
ENDCHAR
STARTCHAR char8623
ENCODING 8626
SWIDTH 613 0
DWIDTH 9 0
BBX 9 11 0 -1
BITMAP
0000
0000
0800
0800
0800
0800
0804
480F
F804
4000
000E
ENDCHAR
STARTCHAR char8623
ENCODING 8627
SWIDTH 613 0
DWIDTH 9 0
BBX 9 11 0 -1
BITMAP
0000
0002
2002
2002
2002
2002
2002
2403
3E00
0400
000E
ENDCHAR
STARTCHAR char8623
ENCODING 8628
SWIDTH 613 0
DWIDTH 9 0
BBX 9 11 0 -1
BITMAP
0000
0000
0000
0000
000F
FC00
0400
0400
0E00
0400
000E
ENDCHAR
STARTCHAR char8623
ENCODING 8629
SWIDTH 613 0
DWIDTH 9 0
BBX 9 11 0 -1
BITMAP
0000
0000
0000
0800
0800
0800
0804
480F
F804
4000
000E
ENDCHAR
STARTCHAR char8630
ENCODING 8630
SWIDTH 613 0
DWIDTH 9 0
BBX 9 11 0 -1
BITMAP
0000
0000
0000
0007
7E04
4204
4204
420E
E204
4000
000E
ENDCHAR
STARTCHAR char8630
ENCODING 8631
SWIDTH 613 0
DWIDTH 9 0
BBX 9 11 0 -1
BITMAP
0000
0000
0000
000F
FC08
8408
8408
8408
8E00
0400
000E
ENDCHAR
STARTCHAR char8632
ENCODING 8632
SWIDTH 613 0
DWIDTH 9 0
BBX 9 11 0 -1
BITMAP
0000
FE00
0000
E000
C000
A000
1000
0800
0400
0000
0000
ENDCHAR
STARTCHAR char8633
ENCODING 8633
SWIDTH 613 0
DWIDTH 9 0
BBX 9 11 0 -1
BITMAP
0000
0008
800A
A00F
FE0A
A008
8200
0A0F
FE00
0A00
020E
ENDCHAR
STARTCHAR char8634
ENCODING 8634
SWIDTH 613 0
DWIDTH 9 0
BBX 9 11 0 -1
BITMAP
0000
0000
0000
0E06
6C04
4A04
4204
4204
4207
7E00
000E
ENDCHAR
STARTCHAR char8634
ENCODING 8635
SWIDTH 613 0
DWIDTH 9 0
BBX 9 11 0 -1
BITMAP
0000
0000
0007
7003
3605
5204
4204
4204
4207
7E00
000E
ENDCHAR
STARTCHAR char8636
ENCODING 8636
SWIDTH 613 0
DWIDTH 9 0
BBX 9 11 0 -1
BITMAP
0000
0000
0000
0000
0004
400F
FE00
0000
0000
0000
000E
ENDCHAR
STARTCHAR char8637
ENCODING 8637
SWIDTH 613 0
DWIDTH 9 0
BBX 9 11 0 -1
BITMAP
0000
0000
0000
0000
0000
000F
FE04
4000
0000
0000
000E
ENDCHAR
STARTCHAR char8638
ENCODING 8638
SWIDTH 613 0
DWIDTH 9 0
BBX 9 11 0 -1
BITMAP
0000
0000
1000
1800
1000
1000
1000
1000
1000
0000
0000
ENDCHAR
STARTCHAR char8639
ENCODING 8639
SWIDTH 613 0
DWIDTH 9 0
BBX 9 11 0 -1
BITMAP
0000
0000
1000
3000
1000
1000
1000
1000
1000
0000
0000
ENDCHAR
STARTCHAR char8640
ENCODING 8640
SWIDTH 613 0
DWIDTH 9 0
BBX 9 11 0 -1
BITMAP
0000
0000
0000
0000
0000
040F
FE00
0000
0000
0000
000E
ENDCHAR
STARTCHAR char8641
ENCODING 8641
SWIDTH 613 0
DWIDTH 9 0
BBX 9 11 0 -1
BITMAP
0000
0000
0000
0000
0000
000F
FE00
0400
0000
0000
000E
ENDCHAR
STARTCHAR char8642
ENCODING 8642
SWIDTH 613 0
DWIDTH 9 0
BBX 9 11 0 -1
BITMAP
0000
0000
0001
1001
1001
1001
1001
1001
1801
1000
000E
ENDCHAR
STARTCHAR char8643
ENCODING 8643
SWIDTH 613 0
DWIDTH 9 0
BBX 9 11 0 -1
BITMAP
0000
0000
0001
1001
1001
1001
1001
1003
3001
1000
000E
ENDCHAR
STARTCHAR char8644
ENCODING 8644
SWIDTH 613 0
DWIDTH 9 0
BBX 9 11 0 -1
BITMAP
0000
0000
0000
040F
FE00
0400
0004
400F
FE04
4000
000E
ENDCHAR
STARTCHAR char8644
ENCODING 8645
SWIDTH 613 0
DWIDTH 9 0
BBX 9 11 0 -1
BITMAP
0000
0004
440E
E404
4404
4404
4404
4404
4E04
4400
000E
ENDCHAR
STARTCHAR char8644
ENCODING 8646
SWIDTH 613 0
DWIDTH 9 0
BBX 9 11 0 -1
BITMAP
0000
0000
0004
400F
FE04
4000
0000
040F
FE00
0400
000E
ENDCHAR
STARTCHAR char8644
ENCODING 8647
SWIDTH 613 0
DWIDTH 9 0
BBX 9 11 0 -1
BITMAP
0000
0000
0004
400F
FE04
4000
0004
400F
FE04
4000
000E
ENDCHAR
STARTCHAR char8644
ENCODING 8648
SWIDTH 613 0
DWIDTH 9 0
BBX 9 11 0 -1
BITMAP
0000
0004
440E
EE04
4404
4404
4404
4404
4404
4400
000E
ENDCHAR
STARTCHAR char8644
ENCODING 8649
SWIDTH 613 0
DWIDTH 9 0
BBX 9 11 0 -1
BITMAP
0000
0000
0000
040F
FE00
0400
0000
040F
FE00
0400
000E
ENDCHAR
STARTCHAR char8644
ENCODING 8650
SWIDTH 613 0
DWIDTH 9 0
BBX 9 11 0 -1
BITMAP
0000
0000
0004
4404
4404
4404
4404
440E
EE04
4400
000E
ENDCHAR
STARTCHAR char8651
ENCODING 8651
SWIDTH 613 0
DWIDTH 9 0
BBX 9 11 0 -1
BITMAP
0000
0000
0000
0004
400F
FE00
0000
000F
FE00
0400
000E
ENDCHAR
STARTCHAR char8651
ENCODING 8652
SWIDTH 613 0
DWIDTH 9 0
BBX 9 11 0 -1
BITMAP
0000
0000
0000
0000
040F
FE00
0000
000F
FE04
4000
000E
ENDCHAR
STARTCHAR char8592
ENCODING 8653
SWIDTH 613 0
DWIDTH 9 0
BBX 9 11 0 -1
BITMAP
0000
0000
0000
0402
2407
7E0C
C807
7E02
2800
0800
000E
ENDCHAR
STARTCHAR char8592
ENCODING 8654
SWIDTH 613 0
DWIDTH 9 0
BBX 9 11 0 -1
BITMAP
0000
0000
0000
0002
2807
7C0D
D607
7C02
2800
0000
000E
ENDCHAR
STARTCHAR char8592
ENCODING 8655
SWIDTH 613 0
DWIDTH 9 0
BBX 9 11 0 -1
BITMAP
0000
0000
0002
2002
280F
FC02
260F
FC04
4804
4000
000E
ENDCHAR
STARTCHAR char8592
ENCODING 8656
SWIDTH 613 0
DWIDTH 9 0
BBX 9 11 0 -1
BITMAP
0000
0000
0000
0002
2007
7E0C
C007
7E02
2000
0000
000E
ENDCHAR
STARTCHAR char8592
ENCODING 8657
SWIDTH 613 0
DWIDTH 9 0
BBX 9 11 0 -1
BITMAP
0000
0001
1003
3806
6C02
2802
2802
2802
2802
2800
000E
ENDCHAR
STARTCHAR char8592
ENCODING 8658
SWIDTH 613 0
DWIDTH 9 0
BBX 9 11 0 -1
BITMAP
0000
0000
0000
0000
080F
FC00
060F
FC00
0800
0000
000E
ENDCHAR
STARTCHAR char8592
ENCODING 8659
SWIDTH 613 0
DWIDTH 9 0
BBX 9 11 0 -1
BITMAP
0000
0000
0002
2802
2802
2802
2806
6C03
3801
1000
000E
ENDCHAR
STARTCHAR char8592
ENCODING 8660
SWIDTH 613 0
DWIDTH 9 0
BBX 9 11 0 -1
BITMAP
0000
0000
0000
0002
2807
7C0C
C607
7C02
2800
0000
000E
ENDCHAR
STARTCHAR char8592
ENCODING 8661
SWIDTH 613 0
DWIDTH 9 0
BBX 9 11 0 -1
BITMAP
0000
0001
1003
3806
6C02
2802
2806
6C03
3801
1000
000E
ENDCHAR
STARTCHAR char8598
ENCODING 8662
SWIDTH 613 0
DWIDTH 9 0
BBX 9 11 0 -1
BITMAP
0000
0000
E000
A000
D000
2800
1400
0800
0000
0000
0000
ENDCHAR
STARTCHAR char8598
ENCODING 8663
SWIDTH 613 0
DWIDTH 9 0
BBX 9 11 0 -1
BITMAP
0000
0000
0E00
0A00
1600
2800
5000
2000
0000
0000
0000
ENDCHAR
STARTCHAR char8598
ENCODING 8664
SWIDTH 613 0
DWIDTH 9 0
BBX 9 11 0 -1
BITMAP
0000
0000
0000
0002
2005
5002
2801
1600
0A00
0E00
000E
ENDCHAR
STARTCHAR char8598
ENCODING 8665
SWIDTH 613 0
DWIDTH 9 0
BBX 9 11 0 -1
BITMAP
0000
0000
0000
0000
0801
1402
280D
D00A
A00E
E000
000E
ENDCHAR
STARTCHAR char8666
ENCODING 8666
SWIDTH 613 0
DWIDTH 9 0
BBX 9 11 0 -1
BITMAP
0000
0000
0001
1003
3E06
600F
FE06
6003
3E01
1000
000E
ENDCHAR
STARTCHAR char8666
ENCODING 8667
SWIDTH 613 0
DWIDTH 9 0
BBX 9 11 0 -1
BITMAP
0000
0000
0001
100F
F800
0C0F
FE00
0C0F
F801
1000
000E
ENDCHAR
STARTCHAR char8668
ENCODING 8668
SWIDTH 613 0
DWIDTH 9 0
BBX 9 11 0 -1
BITMAP
0000
0000
0000
0000
0005
540E
EA04
4000
0000
0000
000E
ENDCHAR
STARTCHAR char8668
ENCODING 8669
SWIDTH 613 0
DWIDTH 9 0
BBX 9 11 0 -1
BITMAP
0000
0000
0000
0000
0005
540A
AE00
0400
0000
0000
000E
ENDCHAR
STARTCHAR char8670
ENCODING 8670
SWIDTH 613 0
DWIDTH 9 0
BBX 9 11 0 -1
BITMAP
0000
0001
1003
3801
1001
1C07
7001
1C07
7001
1000
000E
ENDCHAR
STARTCHAR char8670
ENCODING 8671
SWIDTH 613 0
DWIDTH 9 0
BBX 9 11 0 -1
BITMAP
0000
0001
1001
1C07
7001
1C07
7001
1003
3801
1000
000E
ENDCHAR
STARTCHAR char8672
ENCODING 8672
SWIDTH 613 0
DWIDTH 9 0
BBX 9 11 0 -1
BITMAP
0000
0000
0000
0000
0004
400E
EA04
4000
0000
0000
000E
ENDCHAR
STARTCHAR char8673
ENCODING 8673
SWIDTH 613 0
DWIDTH 9 0
BBX 9 11 0 -1
BITMAP
0000
0001
1003
3800
0001
1000
0001
1000
0001
1000
000E
ENDCHAR
STARTCHAR char8674
ENCODING 8674
SWIDTH 613 0
DWIDTH 9 0
BBX 9 11 0 -1
BITMAP
0000
0000
0000
0000
0000
040A
AE00
0400
0000
0000
000E
ENDCHAR
STARTCHAR char8675
ENCODING 8675
SWIDTH 613 0
DWIDTH 9 0
BBX 9 11 0 -1
BITMAP
0000
0001
1000
0001
1000
0001
1000
0003
3801
1000
000E
ENDCHAR
STARTCHAR char8676
ENCODING 8676
SWIDTH 613 0
DWIDTH 9 0
BBX 9 11 0 -1
BITMAP
0000
0000
0000
0008
800A
A00F
FE0A
A008
8000
0000
000E
ENDCHAR
STARTCHAR char8677
ENCODING 8677
SWIDTH 613 0
DWIDTH 9 0
BBX 9 11 0 -1
BITMAP
0000
0000
0000
0000
0200
0A0F
FE00
0A00
0200
0000
000E
ENDCHAR
STARTCHAR char8592
ENCODING 8678
SWIDTH 613 0
DWIDTH 9 0
BBX 9 11 0 -1
BITMAP
0000
0000
0000
0002
2007
7E0C
C207
7E02
2000
0000
000E
ENDCHAR
STARTCHAR char8592
ENCODING 8679
SWIDTH 613 0
DWIDTH 9 0
BBX 9 11 0 -1
BITMAP
0000
0001
1003
3806
6C02
2802
2802
2803
3800
0000
000E
ENDCHAR
STARTCHAR char8592
ENCODING 8680
SWIDTH 613 0
DWIDTH 9 0
BBX 9 11 0 -1
BITMAP
0000
0000
0000
0000
080F
FC08
860F
FC00
0800
0000
000E
ENDCHAR
STARTCHAR char8592
ENCODING 8681
SWIDTH 613 0
DWIDTH 9 0
BBX 9 11 0 -1
BITMAP
0000
0000
0003
3802
2802
2802
2806
6C03
3801
1000
000E
ENDCHAR
STARTCHAR char8682
ENCODING 8682
SWIDTH 613 0
DWIDTH 9 0
BBX 9 11 0 -1
BITMAP
0000
0001
1003
3806
6C02
2802
2803
3800
0003
3800
000E
ENDCHAR
STARTCHAR char8683
ENCODING 8683
SWIDTH 613 0
DWIDTH 9 0
BBX 9 11 0 -1
BITMAP
0000
0001
1003
3806
6C02
2802
2806
6C04
4407
7C00
000E
ENDCHAR
STARTCHAR char8683
ENCODING 8684
SWIDTH 613 0
DWIDTH 9 0
BBX 9 11 0 -1
BITMAP
0000
0001
1003
3806
6C03
3802
2806
6C04
4407
7C00
000E
ENDCHAR
STARTCHAR char8685
ENCODING 8685
SWIDTH 613 0
DWIDTH 9 0
BBX 9 11 0 -1
BITMAP
0000
0001
1003
3807
7C0D
D605
540D
D609
920F
FE00
000E
ENDCHAR
STARTCHAR char8592
ENCODING 8686
SWIDTH 613 0
DWIDTH 9 0
BBX 9 11 0 -1
BITMAP
0000
0001
1003
3806
6C01
1003
3806
6C02
2803
3800
000E
ENDCHAR
STARTCHAR char8592
ENCODING 8687
SWIDTH 613 0
DWIDTH 9 0
BBX 9 11 0 -1
BITMAP
0000
0001
1003
3806
6C01
1003
3806
6C02
2807
7C00
000E
ENDCHAR
STARTCHAR char8592
ENCODING 8688
SWIDTH 613 0
DWIDTH 9 0
BBX 9 11 0 -1
BITMAP
0000
0000
0000
0008
880F
FC08
860F
FC08
8800
0000
000E
ENDCHAR
STARTCHAR char8598
ENCODING 8689
SWIDTH 613 0
DWIDTH 9 0
BBX 9 11 0 -1
BITMAP
0000
FE00
8000
B800
B000
A800
8400
8200
0000
0000
0000
ENDCHAR
STARTCHAR char8598
ENCODING 8690
SWIDTH 613 0
DWIDTH 9 0
BBX 9 11 0 -1
BITMAP
0000
0000
0008
8204
4202
2A01
1A03
3A00
020F
FE00
000E
ENDCHAR
STARTCHAR char8592
ENCODING 8691
SWIDTH 613 0
DWIDTH 9 0
BBX 9 11 0 -1
BITMAP
0000
0001
1003
3806
6C02
2802
2806
6C03
3801
1000
000E
ENDCHAR
STARTCHAR char8692
ENCODING 8692
SWIDTH 613 0
DWIDTH 9 0
BBX 9 11 0 -1
BITMAP
0000
0000
0000
0000
0007
740F
FE07
7400
0000
0000
000E
ENDCHAR
STARTCHAR char8644
ENCODING 8693
SWIDTH 613 0
DWIDTH 9 0
BBX 9 11 0 -1
BITMAP
0000
0004
4404
4E04
4404
4404
4404
440E
E404
4400
000E
ENDCHAR
STARTCHAR char8694
ENCODING 8694
SWIDTH 613 0
DWIDTH 9 0
BBX 9 11 0 -1
BITMAP
0000
0000
040F
FE00
0400
040F
FE00
0400
040F
FE00
040E
ENDCHAR
STARTCHAR char8695
ENCODING 8695
SWIDTH 613 0
DWIDTH 9 0
BBX 9 11 0 -1
BITMAP
0000
0000
0000
0000
0804
480F
FE04
4800
0800
0000
000E
ENDCHAR
STARTCHAR char8695
ENCODING 8696
SWIDTH 613 0
DWIDTH 9 0
BBX 9 11 0 -1
BITMAP
0000
0000
0000
0002
2002
240F
FE02
2402
2000
0000
000E
ENDCHAR
STARTCHAR char8695
ENCODING 8697
SWIDTH 613 0
DWIDTH 9 0
BBX 9 11 0 -1
BITMAP
0000
0000
0000
0001
1005
540F
FE05
5401
1000
0000
000E
ENDCHAR
STARTCHAR char8695
ENCODING 8698
SWIDTH 613 0
DWIDTH 9 0
BBX 9 11 0 -1
BITMAP
0000
0000
0000
0001
1405
540F
FE05
5401
1400
0000
000E
ENDCHAR
STARTCHAR char8695
ENCODING 8699
SWIDTH 613 0
DWIDTH 9 0
BBX 9 11 0 -1
BITMAP
0000
0000
0000
0005
5005
540F
FE05
5405
5000
0000
000E
ENDCHAR
STARTCHAR char8700
ENCODING 8700
SWIDTH 613 0
DWIDTH 9 0
BBX 9 11 0 -1
BITMAP
0000
0000
0001
1401
1405
560F
FF06
6A02
2802
2800
000E
ENDCHAR
STARTCHAR char8700
ENCODING 8701
SWIDTH 613 0
DWIDTH 9 0
BBX 9 11 0 -1
BITMAP
0000
0000
0000
0000
0004
400B
BE04
4000
0000
0000
000E
ENDCHAR
STARTCHAR char8700
ENCODING 8702
SWIDTH 613 0
DWIDTH 9 0
BBX 9 11 0 -1
BITMAP
0000
0000
0000
0000
0000
040F
FA00
0400
0000
0000
000E
ENDCHAR
STARTCHAR char8700
ENCODING 8703
SWIDTH 613 0
DWIDTH 9 0
BBX 9 11 0 -1
BITMAP
0000
0000
0000
0000
0004
440B
BA04
4400
0000
0000
000E
ENDCHAR
STARTCHAR char8704
ENCODING 8704
SWIDTH 613 0
DWIDTH 9 0
BBX 9 11 0 -1
BITMAP
0000
8200
8200
8200
8200
FE00
8200
8200
8200
FE00
0000
ENDCHAR
STARTCHAR char8705
ENCODING 8705
SWIDTH 613 0
DWIDTH 9 0
BBX 9 11 0 -1
BITMAP
0000
FE00
8200
8000
8000
8000
8000
8000
8200
FE00
0000
ENDCHAR
STARTCHAR char8706
ENCODING 8706
SWIDTH 613 0
DWIDTH 9 0
BBX 9 11 0 -1
BITMAP
0000
0000
0003
3C00
0400
0407
7C04
4404
4407
7C00
000E
ENDCHAR
STARTCHAR char8707
ENCODING 8707
SWIDTH 613 0
DWIDTH 9 0
BBX 9 11 0 -1
BITMAP
0000
FE00
0200
0200
0200
FE00
0200
0200
0200
FE00
0000
ENDCHAR
STARTCHAR char8708
ENCODING 8708
SWIDTH 613 0
DWIDTH 9 0
BBX 9 11 0 -1
BITMAP
1000
FE00
1200
1200
1200
FE00
1200
1200
1200
FE00
1000
ENDCHAR
STARTCHAR char8709
ENCODING 8709
SWIDTH 613 0
DWIDTH 9 0
BBX 9 11 0 -1
BITMAP
0000
0000
080F
FE09
9209
9209
9209
9209
920F
FE02
200E
ENDCHAR
STARTCHAR char8710
ENCODING 8710
SWIDTH 613 0
DWIDTH 9 0
BBX 9 11 0 -1
BITMAP
0000
0000
1000
3800
2800
6C00
4400
C600
8200
FE00
0000
ENDCHAR
STARTCHAR char8710
ENCODING 8711
SWIDTH 613 0
DWIDTH 9 0
BBX 9 11 0 -1
BITMAP
0000
000F
FE08
820C
C604
4406
6C02
2803
3801
1000
000E
ENDCHAR
STARTCHAR char8712
ENCODING 8712
SWIDTH 613 0
DWIDTH 9 0
BBX 9 11 0 -1
BITMAP
0000
3E00
E000
8000
8000
FE00
8000
8000
E000
3E00
0000
ENDCHAR
STARTCHAR char8712
ENCODING 8713
SWIDTH 613 0
DWIDTH 9 0
BBX 9 11 0 -1
BITMAP
0400
3E00
E800
8800
8800
FE00
9000
9000
F000
3E00
2000
ENDCHAR
STARTCHAR char8712
ENCODING 8714
SWIDTH 613 0
DWIDTH 9 0
BBX 9 11 0 -1
BITMAP
0000
0000
0003
3E0E
E008
800F
FE08
800E
E003
3E00
000E
ENDCHAR
STARTCHAR char8712
ENCODING 8715
SWIDTH 613 0
DWIDTH 9 0
BBX 9 11 0 -1
BITMAP
0000
F800
0E00
0200
0200
FE00
0200
0200
0E00
F800
0000
ENDCHAR
STARTCHAR char8712
ENCODING 8716
SWIDTH 613 0
DWIDTH 9 0
BBX 9 11 0 -1
BITMAP
0800
F800
1E00
1200
1200
FE00
2200
2200
2E00
F800
4000
ENDCHAR
STARTCHAR char8712
ENCODING 8717
SWIDTH 613 0
DWIDTH 9 0
BBX 9 11 0 -1
BITMAP
0000
0000
000F
F800
0E00
020F
FE00
0200
0E0F
F800
000E
ENDCHAR
STARTCHAR char8718
ENCODING 8718
SWIDTH 613 0
DWIDTH 9 0
BBX 9 11 0 -1
BITMAP
0000
0000
0007
7C07
7C07
7C07
7C07
7C07
7C07
7C00
000E
ENDCHAR
STARTCHAR char8719
ENCODING 8719
SWIDTH 613 0
DWIDTH 9 0
BBX 9 11 0 -1
BITMAP
0000
FE00
4400
4400
4400
4400
4400
4400
4400
4400
0000
ENDCHAR
STARTCHAR char8719
ENCODING 8720
SWIDTH 613 0
DWIDTH 9 0
BBX 9 11 0 -1
BITMAP
0000
4400
4400
4400
4400
4400
4400
4400
4400
FE00
0000
ENDCHAR
STARTCHAR char8721
ENCODING 8721
SWIDTH 613 0
DWIDTH 9 0
BBX 9 11 0 -1
BITMAP
0000
FE00
8000
8000
F000
1000
F000
8000
8000
FE00
0000
ENDCHAR
STARTCHAR char8722
ENCODING 8722
SWIDTH 613 0
DWIDTH 9 0
BBX 9 11 0 -1
BITMAP
0000
0000
0000
0000
0000
0007
7C00
0000
0000
0000
000E
ENDCHAR
STARTCHAR char8723
ENCODING 8723
SWIDTH 613 0
DWIDTH 9 0
BBX 9 11 0 -1
BITMAP
0000
0000
000F
FE01
1001
100F
FE01
1001
1001
1000
000E
ENDCHAR
STARTCHAR char8724
ENCODING 8724
SWIDTH 613 0
DWIDTH 9 0
BBX 9 11 0 -1
BITMAP
0000
0001
1000
0001
1001
100F
FE01
1001
1001
1000
000E
ENDCHAR
STARTCHAR char8725
ENCODING 8725
SWIDTH 613 0
DWIDTH 9 0
BBX 9 11 0 -1
BITMAP
0000
0400
0400
0400
0400
7C00
4000
4000
4000
4000
0000
ENDCHAR
STARTCHAR char8725
ENCODING 8726
SWIDTH 613 0
DWIDTH 9 0
BBX 9 11 0 -1
BITMAP
0000
4000
4000
4000
4000
7C00
0400
0400
0400
0400
0000
ENDCHAR
STARTCHAR char8727
ENCODING 8727
SWIDTH 613 0
DWIDTH 9 0
BBX 9 11 0 -1
BITMAP
0000
0000
0002
2803
3801
1007
7C01
1003
3802
2800
000E
ENDCHAR
STARTCHAR char8728
ENCODING 8728
SWIDTH 613 0
DWIDTH 9 0
BBX 9 11 0 -1
BITMAP
0000
0000
0000
0007
7C04
4404
4404
4407
7C00
0000
000E
ENDCHAR
STARTCHAR char8729
ENCODING 8729
SWIDTH 613 0
DWIDTH 9 0
BBX 9 11 0 -1
BITMAP
0000
0000
0000
0007
7C07
7C07
7C07
7C07
7C00
0000
000E
ENDCHAR
STARTCHAR char8730
ENCODING 8730
SWIDTH 613 0
DWIDTH 9 0
BBX 9 11 0 -1
BITMAP
0F00
0800
0800
0800
0800
0800
0800
C800
4800
7800
0000
ENDCHAR
STARTCHAR char8730
ENCODING 8731
SWIDTH 613 0
DWIDTH 9 0
BBX 9 11 0 -1
BITMAP
0F00
0800
E800
2800
E800
2800
E800
0800
C800
7800
0000
ENDCHAR
STARTCHAR char8730
ENCODING 8732
SWIDTH 613 0
DWIDTH 9 0
BBX 9 11 0 -1
BITMAP
0F00
0800
A800
A800
E800
2800
0800
C800
4800
7800
0000
ENDCHAR
STARTCHAR char8733
ENCODING 8733
SWIDTH 613 0
DWIDTH 9 0
BBX 9 11 0 -1
BITMAP
0000
0000
0000
0000
000F
FC09
9009
900F
FC00
0000
000E
ENDCHAR
STARTCHAR char8733
ENCODING 8734
SWIDTH 613 0
DWIDTH 9 0
BBX 9 11 0 -1
BITMAP
0000
0000
0000
0000
000F
FE09
9209
920F
FE00
0000
000E
ENDCHAR
STARTCHAR char8735
ENCODING 8735
SWIDTH 613 0
DWIDTH 9 0
BBX 9 11 0 -1
BITMAP
0000
0000
0008
8008
8008
800F
F009
9009
900F
FE00
000E
ENDCHAR
STARTCHAR char8736
ENCODING 8736
SWIDTH 613 0
DWIDTH 9 0
BBX 9 11 0 -1
BITMAP
0000
0000
0200
0600
0C01
1803
3006
600C
C00F
FE00
000E
ENDCHAR
STARTCHAR char8736
ENCODING 8737
SWIDTH 613 0
DWIDTH 9 0
BBX 9 11 0 -1
BITMAP
0000
0000
0200
0600
0C03
3803
3806
680C
C80F
FE00
080E
ENDCHAR
STARTCHAR char8738
ENCODING 8738
SWIDTH 613 0
DWIDTH 9 0
BBX 9 11 0 -1
BITMAP
0000
0000
0001
1601
1C07
780C
C807
7801
1C01
1600
000E
ENDCHAR
STARTCHAR char8739
ENCODING 8739
SWIDTH 613 0
DWIDTH 9 0
BBX 9 11 0 -1
BITMAP
0000
1000
1000
1000
1000
1000
1000
1000
1000
1000
1000
ENDCHAR
STARTCHAR char8740
ENCODING 8740
SWIDTH 613 0
DWIDTH 9 0
BBX 9 11 0 -1
BITMAP
0000
1000
1000
1000
1000
1C00
7000
1000
1000
1000
1000
ENDCHAR
STARTCHAR char8741
ENCODING 8741
SWIDTH 613 0
DWIDTH 9 0
BBX 9 11 0 -1
BITMAP
0000
4400
4400
4400
4400
4400
4400
4400
4400
4400
0000
ENDCHAR
STARTCHAR char8742
ENCODING 8742
SWIDTH 613 0
DWIDTH 9 0
BBX 9 11 0 -1
BITMAP
0000
4400
4400
4400
4600
7C00
C400
4400
4400
4400
0000
ENDCHAR
STARTCHAR char8710
ENCODING 8743
SWIDTH 613 0
DWIDTH 9 0
BBX 9 11 0 -1
BITMAP
0000
0001
1003
3802
2806
6C04
440C
C608
8208
8200
000E
ENDCHAR
STARTCHAR char8710
ENCODING 8744
SWIDTH 613 0
DWIDTH 9 0
BBX 9 11 0 -1
BITMAP
0000
0008
8208
820C
C604
4406
6C02
2803
3801
1000
000E
ENDCHAR
STARTCHAR char8745
ENCODING 8745
SWIDTH 613 0
DWIDTH 9 0
BBX 9 11 0 -1
BITMAP
0000
0007
7C0C
C608
8208
8208
8208
8208
8208
8200
000E
ENDCHAR
STARTCHAR char8745
ENCODING 8746
SWIDTH 613 0
DWIDTH 9 0
BBX 9 11 0 -1
BITMAP
0000
0008
8208
8208
8208
8208
8208
820C
C607
7C00
000E
ENDCHAR
STARTCHAR char8747
ENCODING 8747
SWIDTH 613 0
DWIDTH 9 0
BBX 9 11 0 -1
BITMAP
0000
1C00
1400
1000
1000
1000
1000
1000
1000
5000
7000
ENDCHAR
STARTCHAR char8747
ENCODING 8748
SWIDTH 613 0
DWIDTH 9 0
BBX 9 11 0 -1
BITMAP
0000
3E00
2A00
2800
2800
2800
2800
2800
2800
A800
F800
ENDCHAR
STARTCHAR char8747
ENCODING 8749
SWIDTH 613 0
DWIDTH 9 0
BBX 9 11 0 -1
BITMAP
0000
7E00
5400
5400
5400
5400
5400
5400
5400
5400
FC00
ENDCHAR
STARTCHAR char8747
ENCODING 8750
SWIDTH 613 0
DWIDTH 9 0
BBX 9 11 0 -1
BITMAP
0000
1C00
1400
1000
7C00
5400
5400
7C00
1000
5000
7000
ENDCHAR
STARTCHAR char8747
ENCODING 8751
SWIDTH 613 0
DWIDTH 9 0
BBX 9 11 0 -1
BITMAP
0000
3E00
2A00
2800
FE00
AA00
AA00
FE00
2800
A800
F800
ENDCHAR
STARTCHAR char8747
ENCODING 8752
SWIDTH 613 0
DWIDTH 9 0
BBX 9 11 0 -1
BITMAP
0000
7E00
5400
5400
FE00
D600
D600
FE00
5400
5400
FC00
ENDCHAR
STARTCHAR char8747
ENCODING 8753
SWIDTH 613 0
DWIDTH 9 0
BBX 9 11 0 -1
BITMAP
0000
1C00
1400
1000
7C00
5400
5E00
1400
1000
5000
7000
ENDCHAR
STARTCHAR char8747
ENCODING 8754
SWIDTH 613 0
DWIDTH 9 0
BBX 9 11 0 -1
BITMAP
0000
1C00
1000
1000
7C00
5400
5E00
5400
7800
1000
7000
ENDCHAR
STARTCHAR char8747
ENCODING 8755
SWIDTH 613 0
DWIDTH 9 0
BBX 9 11 0 -1
BITMAP
0000
1C00
1000
1000
7800
5400
5E00
5400
7C00
1000
7000
ENDCHAR
STARTCHAR char8756
ENCODING 8756
SWIDTH 613 0
DWIDTH 9 0
BBX 9 11 0 -1
BITMAP
0000
0000
0001
1000
0000
0000
0000
0008
8200
0000
000E
ENDCHAR
STARTCHAR char8756
ENCODING 8757
SWIDTH 613 0
DWIDTH 9 0
BBX 9 11 0 -1
BITMAP
0000
0000
0008
8200
0000
0000
0000
0001
1000
0000
000E
ENDCHAR
STARTCHAR char8758
ENCODING 8758
SWIDTH 613 0
DWIDTH 9 0
BBX 9 11 0 -1
BITMAP
0000
0000
0001
1000
0000
0000
0000
0000
0001
1000
000E
ENDCHAR
STARTCHAR char8758
ENCODING 8759
SWIDTH 613 0
DWIDTH 9 0
BBX 9 11 0 -1
BITMAP
0000
0000
0008
8200
0000
0000
0000
0000
0008
8200
000E
ENDCHAR
STARTCHAR char8760
ENCODING 8760
SWIDTH 613 0
DWIDTH 9 0
BBX 9 11 0 -1
BITMAP
0000
0000
0001
1000
0000
0007
7C00
0000
0000
0000
000E
ENDCHAR
STARTCHAR char8761
ENCODING 8761
SWIDTH 613 0
DWIDTH 9 0
BBX 9 11 0 -1
BITMAP
0000
0000
0000
0200
0000
000F
F800
0000
0000
0200
000E
ENDCHAR
STARTCHAR char8762
ENCODING 8762
SWIDTH 613 0
DWIDTH 9 0
BBX 9 11 0 -1
BITMAP
0000
0000
0008
8200
0000
000F
FE00
0000
0008
8200
000E
ENDCHAR
STARTCHAR char8763
ENCODING 8763
SWIDTH 613 0
DWIDTH 9 0
BBX 9 11 0 -1
BITMAP
0000
0000
0001
1000
000F
F209
9209
9E00
0001
1000
000E
ENDCHAR
STARTCHAR char8763
ENCODING 8764
SWIDTH 613 0
DWIDTH 9 0
BBX 9 11 0 -1
BITMAP
0000
0000
0000
0000
000F
F209
9209
9E00
0000
0000
000E
ENDCHAR
STARTCHAR char8763
ENCODING 8765
SWIDTH 613 0
DWIDTH 9 0
BBX 9 11 0 -1
BITMAP
0000
0000
0000
0000
0009
9E09
920F
F200
0000
0000
000E
ENDCHAR
STARTCHAR char8766
ENCODING 8766
SWIDTH 613 0
DWIDTH 9 0
BBX 9 11 0 -1
BITMAP
0000
0000
0000
000F
F609
9209
9209
920D
DE00
0000
000E
ENDCHAR
STARTCHAR char8767
ENCODING 8767
SWIDTH 613 0
DWIDTH 9 0
BBX 9 11 0 -1
BITMAP
0000
0000
0006
600F
F009
9009
9201
1201
1E00
0C00
000E
ENDCHAR
STARTCHAR char8768
ENCODING 8768
SWIDTH 613 0
DWIDTH 9 0
BBX 9 11 0 -1
BITMAP
0000
0003
3800
0800
0800
0803
3802
2002
2003
3800
000E
ENDCHAR
STARTCHAR char8763
ENCODING 8769
SWIDTH 613 0
DWIDTH 9 0
BBX 9 11 0 -1
BITMAP
0000
0000
0000
0800
080F
FA09
920B
BE02
2002
2000
000E
ENDCHAR
STARTCHAR char8770
ENCODING 8770
SWIDTH 613 0
DWIDTH 9 0
BBX 9 11 0 -1
BITMAP
0000
0000
0000
0000
0007
7C00
0007
7405
5C00
0000
000E
ENDCHAR
STARTCHAR char8771
ENCODING 8771
SWIDTH 613 0
DWIDTH 9 0
BBX 9 11 0 -1
BITMAP
0000
0000
0000
0007
7405
5C00
0007
7C00
0000
0000
000E
ENDCHAR
STARTCHAR char8772
ENCODING 8772
SWIDTH 613 0
DWIDTH 9 0
BBX 9 11 0 -1
BITMAP
0000
0000
0001
1007
7405
5C01
1007
7C01
1000
0000
000E
ENDCHAR
STARTCHAR char8773
ENCODING 8773
SWIDTH 613 0
DWIDTH 9 0
BBX 9 11 0 -1
BITMAP
0000
0000
0007
7405
5C00
0007
7C00
0007
7C00
0000
000E
ENDCHAR
STARTCHAR char8774
ENCODING 8774
SWIDTH 613 0
DWIDTH 9 0
BBX 9 11 0 -1
BITMAP
0000
0000
0007
7405
5C00
0000
0807
7C01
1007
7C02
200E
ENDCHAR
STARTCHAR char8773
ENCODING 8775
SWIDTH 613 0
DWIDTH 9 0
BBX 9 11 0 -1
BITMAP
0000
0001
1007
7405
5C01
1007
7C01
1007
7C01
1000
000E
ENDCHAR
STARTCHAR char8775
ENCODING 8776
SWIDTH 613 0
DWIDTH 9 0
BBX 9 11 0 -1
BITMAP
0000
0000
0000
0007
7405
5C00
0007
7405
5C00
0000
000E
ENDCHAR
STARTCHAR char8777
ENCODING 8777
SWIDTH 613 0
DWIDTH 9 0
BBX 9 11 0 -1
BITMAP
0000
0000
0001
1007
7405
5C01
1007
7405
5C01
1000
000E
ENDCHAR
STARTCHAR char8778
ENCODING 8778
SWIDTH 613 0
DWIDTH 9 0
BBX 9 11 0 -1
BITMAP
0000
0000
0007
7405
5C00
0007
7405
5C00
0007
7C00
000E
ENDCHAR
STARTCHAR char8779
ENCODING 8779
SWIDTH 613 0
DWIDTH 9 0
BBX 9 11 0 -1
BITMAP
0000
0007
7405
5C00
0007
7405
5C00
0007
7405
5C00
000E
ENDCHAR
STARTCHAR char8780
ENCODING 8780
SWIDTH 613 0
DWIDTH 9 0
BBX 9 11 0 -1
BITMAP
0000
0000
0007
7405
5C00
0007
7C00
0007
7C00
0000
000E
ENDCHAR
STARTCHAR char8781
ENCODING 8781
SWIDTH 613 0
DWIDTH 9 0
BBX 9 11 0 -1
BITMAP
0000
0000
0000
0004
4407
7C00
0007
7C04
4400
0000
000E
ENDCHAR
STARTCHAR char8782
ENCODING 8782
SWIDTH 613 0
DWIDTH 9 0
BBX 9 11 0 -1
BITMAP
0000
0000
0000
0003
3806
6C00
0006
6C03
3800
0000
000E
ENDCHAR
STARTCHAR char8783
ENCODING 8783
SWIDTH 613 0
DWIDTH 9 0
BBX 9 11 0 -1
BITMAP
0000
0000
0000
0003
3806
6C00
0007
7C00
0000
0000
000E
ENDCHAR
STARTCHAR char8800
ENCODING 8784
SWIDTH 613 0
DWIDTH 9 0
BBX 9 11 0 -1
BITMAP
0000
0000
0001
1000
0007
7C00
0007
7C00
0000
0000
000E
ENDCHAR
STARTCHAR char8800
ENCODING 8785
SWIDTH 613 0
DWIDTH 9 0
BBX 9 11 0 -1
BITMAP
0000
0000
0001
1000
0007
7C00
0007
7C00
0001
1000
000E
ENDCHAR
STARTCHAR char8800
ENCODING 8786
SWIDTH 613 0
DWIDTH 9 0
BBX 9 11 0 -1
BITMAP
0000
0000
0004
4000
0007
7C00
0007
7C00
0000
0400
000E
ENDCHAR
STARTCHAR char8800
ENCODING 8787
SWIDTH 613 0
DWIDTH 9 0
BBX 9 11 0 -1
BITMAP
0000
0000
0000
0400
0007
7C00
0007
7C00
0004
4000
000E
ENDCHAR
STARTCHAR char8788
ENCODING 8788
SWIDTH 613 0
DWIDTH 9 0
BBX 9 11 0 -1
BITMAP
0000
0000
0000
0008
8003
3E00
0003
3E08
8000
0000
000E
ENDCHAR
STARTCHAR char8788
ENCODING 8789
SWIDTH 613 0
DWIDTH 9 0
BBX 9 11 0 -1
BITMAP
0000
0000
0000
0000
020F
F800
000F
F800
0200
0000
000E
ENDCHAR
STARTCHAR char8790
ENCODING 8790
SWIDTH 613 0
DWIDTH 9 0
BBX 9 11 0 -1
BITMAP
0000
0000
0000
0007
7C03
3802
2803
3807
7C00
0000
000E
ENDCHAR
STARTCHAR char8791
ENCODING 8791
SWIDTH 613 0
DWIDTH 9 0
BBX 9 11 0 -1
BITMAP
0000
0003
3802
2803
3800
0007
7C00
0007
7C00
0000
000E
ENDCHAR
STARTCHAR char8792
ENCODING 8792
SWIDTH 613 0
DWIDTH 9 0
BBX 9 11 0 -1
BITMAP
0000
0007
7C04
4400
0007
7C00
0007
7C00
0000
0000
000E
ENDCHAR
STARTCHAR char8793
ENCODING 8793
SWIDTH 613 0
DWIDTH 9 0
BBX 9 11 0 -1
BITMAP
0000
0001
1003
3802
2807
7C00
0007
7C00
0000
0000
000E
ENDCHAR
STARTCHAR char8794
ENCODING 8794
SWIDTH 613 0
DWIDTH 9 0
BBX 9 11 0 -1
BITMAP
0000
0002
2803
3801
1007
7C00
0007
7C00
0000
0000
000E
ENDCHAR
STARTCHAR char8795
ENCODING 8795
SWIDTH 613 0
DWIDTH 9 0
BBX 9 11 0 -1
BITMAP
0001
1001
1007
7C03
3802
2800
0007
7C00
0007
7C00
000E
ENDCHAR
STARTCHAR char8796
ENCODING 8796
SWIDTH 613 0
DWIDTH 9 0
BBX 9 11 0 -1
BITMAP
0000
0001
1003
3802
2807
7C00
0007
7C00
0007
7C00
000E
ENDCHAR
STARTCHAR char8797
ENCODING 8797
SWIDTH 613 0
DWIDTH 9 0
BBX 9 11 0 -1
BITMAP
0000
5B00
D200
DB00
D200
DA00
0000
7E00
0000
7E00
0000
ENDCHAR
STARTCHAR char8798
ENCODING 8798
SWIDTH 613 0
DWIDTH 9 0
BBX 9 11 0 -1
BITMAP
0000
0007
7C05
5405
5400
0007
7C00
0007
7C00
0000
000E
ENDCHAR
STARTCHAR char8799
ENCODING 8799
SWIDTH 613 0
DWIDTH 9 0
BBX 9 11 0 -1
BITMAP
0003
3800
0801
1800
0001
1000
0007
7C00
0007
7C00
000E
ENDCHAR
STARTCHAR char8800
ENCODING 8800
SWIDTH 613 0
DWIDTH 9 0
BBX 9 11 0 -1
BITMAP
0000
0000
0000
0001
1007
7C01
1007
7C01
1000
0000
000E
ENDCHAR
STARTCHAR char8801
ENCODING 8801
SWIDTH 613 0
DWIDTH 9 0
BBX 9 11 0 -1
BITMAP
0000
0000
0000
0007
7C00
0007
7C00
0007
7C00
0000
000E
ENDCHAR
STARTCHAR char8802
ENCODING 8802
SWIDTH 613 0
DWIDTH 9 0
BBX 9 11 0 -1
BITMAP
0000
0000
0001
1007
7C01
1007
7C01
1007
7C01
1000
000E
ENDCHAR
STARTCHAR char8803
ENCODING 8803
SWIDTH 613 0
DWIDTH 9 0
BBX 9 11 0 -1
BITMAP
0000
0000
0007
7C00
0007
7C00
0007
7C00
0007
7C00
000E
ENDCHAR
STARTCHAR char8804
ENCODING 8804
SWIDTH 613 0
DWIDTH 9 0
BBX 9 11 0 -1
BITMAP
0000
0000
0000
0001
1C07
7001
1C00
0007
7C00
0000
000E
ENDCHAR
STARTCHAR char8804
ENCODING 8805
SWIDTH 613 0
DWIDTH 9 0
BBX 9 11 0 -1
BITMAP
0000
0000
0000
0007
7001
1C07
7000
0007
7C00
0000
000E
ENDCHAR
STARTCHAR char8804
ENCODING 8806
SWIDTH 613 0
DWIDTH 9 0
BBX 9 11 0 -1
BITMAP
0000
0000
0001
1C07
7001
1C00
0007
7C00
0007
7C00
000E
ENDCHAR
STARTCHAR char8804
ENCODING 8807
SWIDTH 613 0
DWIDTH 9 0
BBX 9 11 0 -1
BITMAP
0000
0000
0007
7001
1C07
7000
0007
7C00
0007
7C00
000E
ENDCHAR
STARTCHAR char8804
ENCODING 8808
SWIDTH 613 0
DWIDTH 9 0
BBX 9 11 0 -1
BITMAP
0000
0001
1C07
7001
1C00
0001
1007
7C01
1007
7C01
100E
ENDCHAR
STARTCHAR char8804
ENCODING 8809
SWIDTH 613 0
DWIDTH 9 0
BBX 9 11 0 -1
BITMAP
0000
0007
7001
1C07
7000
0001
1007
7C01
1007
7C01
100E
ENDCHAR
STARTCHAR char8810
ENCODING 8810
SWIDTH 613 0
DWIDTH 9 0
BBX 9 11 0 -1
BITMAP
0000
0000
0000
0000
0006
660C
CC06
6600
0000
0000
000E
ENDCHAR
STARTCHAR char8810
ENCODING 8811
SWIDTH 613 0
DWIDTH 9 0
BBX 9 11 0 -1
BITMAP
0000
0000
0000
0000
000C
CC06
660C
CC00
0000
0000
000E
ENDCHAR
STARTCHAR char8812
ENCODING 8812
SWIDTH 613 0
DWIDTH 9 0
BBX 9 11 0 -1
BITMAP
0000
0003
3801
1003
3802
2802
2803
3801
1003
3800
000E
ENDCHAR
STARTCHAR char8781
ENCODING 8813
SWIDTH 613 0
DWIDTH 9 0
BBX 9 11 0 -1
BITMAP
0000
0000
0000
0005
5407
7C01
1007
7C05
5400
0000
000E
ENDCHAR
STARTCHAR U+003C
ENCODING 8814
SWIDTH 613 0
DWIDTH 9 0
BBX 9 11 0 -1
BITMAP
0000
0000
0000
0001
1407
7C05
5007
7C01
1400
0000
000E
ENDCHAR
STARTCHAR U+003C
ENCODING 8815
SWIDTH 613 0
DWIDTH 9 0
BBX 9 11 0 -1
BITMAP
0000
0000
0000
0005
5007
7C01
1407
7C05
5000
0000
000E
ENDCHAR
STARTCHAR char8804
ENCODING 8816
SWIDTH 613 0
DWIDTH 9 0
BBX 9 11 0 -1
BITMAP
0000
0000
0001
1001
1C07
7001
1C01
1007
7C01
1000
000E
ENDCHAR
STARTCHAR char8804
ENCODING 8817
SWIDTH 613 0
DWIDTH 9 0
BBX 9 11 0 -1
BITMAP
0000
0000
0001
1007
7001
1C07
7001
1007
7C01
1000
000E
ENDCHAR
STARTCHAR char8804
ENCODING 8818
SWIDTH 613 0
DWIDTH 9 0
BBX 9 11 0 -1
BITMAP
0000
0000
0000
0001
1C07
7001
1C00
0007
7405
5C00
000E
ENDCHAR
STARTCHAR char8804
ENCODING 8819
SWIDTH 613 0
DWIDTH 9 0
BBX 9 11 0 -1
BITMAP
0000
0000
0000
0007
7001
1C07
7000
0007
7405
5C00
000E
ENDCHAR
STARTCHAR char8804
ENCODING 8820
SWIDTH 613 0
DWIDTH 9 0
BBX 9 11 0 -1
BITMAP
0000
0000
0001
1001
1C07
7001
1C01
1007
7405
5C01
100E
ENDCHAR
STARTCHAR char8804
ENCODING 8821
SWIDTH 613 0
DWIDTH 9 0
BBX 9 11 0 -1
BITMAP
0000
0000
0001
1007
7001
1C07
7001
1007
7405
5C01
100E
ENDCHAR
STARTCHAR U+003C
ENCODING 8822
SWIDTH 613 0
DWIDTH 9 0
BBX 9 11 0 -1
BITMAP
0000
0000
0401
1C01
1001
1C04
4407
7001
1007
7004
400E
ENDCHAR
STARTCHAR U+003C
ENCODING 8823
SWIDTH 613 0
DWIDTH 9 0
BBX 9 11 0 -1
BITMAP
0000
0004
4007
7001
1007
7004
4401
1C01
1001
1C00
040E
ENDCHAR
STARTCHAR U+003C
ENCODING 8824
SWIDTH 613 0
DWIDTH 9 0
BBX 9 11 0 -1
BITMAP
0000
0001
1403
3C03
3003
3C05
5407
7801
1807
7805
500E
ENDCHAR
STARTCHAR U+003C
ENCODING 8825
SWIDTH 613 0
DWIDTH 9 0
BBX 9 11 0 -1
BITMAP
0000
0005
5007
7801
1807
7805
5403
3C03
3003
3C01
140E
ENDCHAR
STARTCHAR char8826
ENCODING 8826
SWIDTH 613 0
DWIDTH 9 0
BBX 9 11 0 -1
BITMAP
0000
0000
0000
0400
0401
1C07
7001
1C00
0400
0400
000E
ENDCHAR
STARTCHAR char8826
ENCODING 8827
SWIDTH 613 0
DWIDTH 9 0
BBX 9 11 0 -1
BITMAP
0000
0000
0004
4004
4007
7001
1C07
7004
4004
4000
000E
ENDCHAR
STARTCHAR char8826
ENCODING 8828
SWIDTH 613 0
DWIDTH 9 0
BBX 9 11 0 -1
BITMAP
0000
0000
0000
0401
1C07
7001
1C0C
C407
7001
1C00
000E
ENDCHAR
STARTCHAR char8826
ENCODING 8829
SWIDTH 613 0
DWIDTH 9 0
BBX 9 11 0 -1
BITMAP
0000
0000
0004
4007
7001
1C07
7004
4601
1C07
7000
000E
ENDCHAR
STARTCHAR char8826
ENCODING 8830
SWIDTH 613 0
DWIDTH 9 0
BBX 9 11 0 -1
BITMAP
0000
0000
0401
1C07
7001
1C00
0400
0007
7405
5C00
000E
ENDCHAR
STARTCHAR char8826
ENCODING 8831
SWIDTH 613 0
DWIDTH 9 0
BBX 9 11 0 -1
BITMAP
0000
0004
4007
7001
1C07
7004
4000
0007
7405
5C00
000E
ENDCHAR
STARTCHAR char8826
ENCODING 8832
SWIDTH 613 0
DWIDTH 9 0
BBX 9 11 0 -1
BITMAP
0000
0000
0001
1401
1401
1C07
7001
1C01
1401
1400
000E
ENDCHAR
STARTCHAR char8826
ENCODING 8833
SWIDTH 613 0
DWIDTH 9 0
BBX 9 11 0 -1
BITMAP
0000
0000
0005
5005
5007
7001
1C07
7005
5005
5000
000E
ENDCHAR
STARTCHAR char8834
ENCODING 8834
SWIDTH 613 0
DWIDTH 9 0
BBX 9 11 0 -1
BITMAP
0000
0000
0007
7E0C
C008
8008
800C
C007
7E00
0000
000E
ENDCHAR
STARTCHAR char8835
ENCODING 8835
SWIDTH 613 0
DWIDTH 9 0
BBX 9 11 0 -1
BITMAP
0000
0000
000F
FC00
0600
0200
0200
060F
FC00
0000
000E
ENDCHAR
STARTCHAR char8834
ENCODING 8836
SWIDTH 613 0
DWIDTH 9 0
BBX 9 11 0 -1
BITMAP
0000
0001
1007
7E0D
D009
9009
900D
D007
7E01
1000
000E
ENDCHAR
STARTCHAR char8835
ENCODING 8837
SWIDTH 613 0
DWIDTH 9 0
BBX 9 11 0 -1
BITMAP
0000
0001
100F
FC01
1601
1201
1201
160F
FC01
1000
000E
ENDCHAR
STARTCHAR char8804
ENCODING 8838
SWIDTH 613 0
DWIDTH 9 0
BBX 9 11 0 -1
BITMAP
0000
0000
0003
3C06
6006
6003
3C00
0007
7C00
0000
000E
ENDCHAR
STARTCHAR char8804
ENCODING 8839
SWIDTH 613 0
DWIDTH 9 0
BBX 9 11 0 -1
BITMAP
0000
0000
0007
7800
0C00
0C07
7800
0007
7C00
0000
000E
ENDCHAR
STARTCHAR char8804
ENCODING 8840
SWIDTH 613 0
DWIDTH 9 0
BBX 9 11 0 -1
BITMAP
0000
0001
1003
3C07
7007
7003
3C01
1007
7C01
1000
000E
ENDCHAR
STARTCHAR char8804
ENCODING 8841
SWIDTH 613 0
DWIDTH 9 0
BBX 9 11 0 -1
BITMAP
0000
0001
1007
7801
1C01
1C07
7801
1007
7C01
1000
000E
ENDCHAR
STARTCHAR char8804
ENCODING 8842
SWIDTH 613 0
DWIDTH 9 0
BBX 9 11 0 -1
BITMAP
0000
0003
3C06
6006
6003
3C00
0000
0807
7C01
1000
000E
ENDCHAR
STARTCHAR char8804
ENCODING 8843
SWIDTH 613 0
DWIDTH 9 0
BBX 9 11 0 -1
BITMAP
0000
0007
7800
0C00
0C07
7800
0001
1007
7C02
2000
000E
ENDCHAR
STARTCHAR char8844
ENCODING 8844
SWIDTH 613 0
DWIDTH 9 0
BBX 9 11 0 -1
BITMAP
0000
0008
8208
8209
920B
BE09
9208
820C
C607
7C00
000E
ENDCHAR
STARTCHAR char8844
ENCODING 8845
SWIDTH 613 0
DWIDTH 9 0
BBX 9 11 0 -1
BITMAP
0000
0000
8200
8200
8200
9200
8200
8200
C600
7C00
0000
ENDCHAR
STARTCHAR char8844
ENCODING 8846
SWIDTH 613 0
DWIDTH 9 0
BBX 9 11 0 -1
BITMAP
0000
0008
8208
8209
920B
BA09
9208
820C
C607
7C00
000E
ENDCHAR
STARTCHAR char8847
ENCODING 8847
SWIDTH 613 0
DWIDTH 9 0
BBX 9 11 0 -1
BITMAP
0000
0000
0000
0007
7C04
4004
4004
4007
7C00
0000
000E
ENDCHAR
STARTCHAR char8847
ENCODING 8848
SWIDTH 613 0
DWIDTH 9 0
BBX 9 11 0 -1
BITMAP
0000
0000
0000
0007
7C00
0400
0400
0407
7C00
0000
000E
ENDCHAR
STARTCHAR char8847
ENCODING 8849
SWIDTH 613 0
DWIDTH 9 0
BBX 9 11 0 -1
BITMAP
0000
0000
0007
7C04
4004
4004
4007
7C00
0007
7C00
000E
ENDCHAR
STARTCHAR char8847
ENCODING 8850
SWIDTH 613 0
DWIDTH 9 0
BBX 9 11 0 -1
BITMAP
0000
0000
0007
7C00
0400
0400
0407
7C00
0007
7C00
000E
ENDCHAR
STARTCHAR char8847
ENCODING 8851
SWIDTH 613 0
DWIDTH 9 0
BBX 9 11 0 -1
BITMAP
0000
0000
0000
0007
7C04
4404
4404
4404
4400
0000
000E
ENDCHAR
STARTCHAR char8847
ENCODING 8852
SWIDTH 613 0
DWIDTH 9 0
BBX 9 11 0 -1
BITMAP
0000
0000
0000
0004
4404
4404
4404
4407
7C00
0000
000E
ENDCHAR
STARTCHAR char8853
ENCODING 8853
SWIDTH 613 0
DWIDTH 9 0
BBX 9 11 0 -1
BITMAP
0000
0000
000F
FE08
8209
920B
BA09
9208
820F
FE00
000E
ENDCHAR
STARTCHAR char8854
ENCODING 8854
SWIDTH 613 0
DWIDTH 9 0
BBX 9 11 0 -1
BITMAP
0000
0000
000F
FE08
8208
820B
BA08
8208
820F
FE00
000E
ENDCHAR
STARTCHAR char8855
ENCODING 8855
SWIDTH 613 0
DWIDTH 9 0
BBX 9 11 0 -1
BITMAP
0000
0000
000F
FE0E
EE0B
BA09
920B
BA0E
EE0F
FE00
000E
ENDCHAR
STARTCHAR char8855
ENCODING 8856
SWIDTH 613 0
DWIDTH 9 0
BBX 9 11 0 -1
BITMAP
0000
0000
000F
FE08
8208
8A0B
BA0A
A208
820F
FE00
000E
ENDCHAR
STARTCHAR char8857
ENCODING 8857
SWIDTH 613 0
DWIDTH 9 0
BBX 9 11 0 -1
BITMAP
0000
0000
000F
FE08
8208
8209
9208
8208
820F
FE00
000E
ENDCHAR
STARTCHAR char8858
ENCODING 8858
SWIDTH 613 0
DWIDTH 9 0
BBX 9 11 0 -1
BITMAP
0000
0000
000F
FE08
820B
BA0A
AA0B
BA08
820F
FE00
000E
ENDCHAR
STARTCHAR char8859
ENCODING 8859
SWIDTH 613 0
DWIDTH 9 0
BBX 9 11 0 -1
BITMAP
0000
0000
000F
FE0C
C60E
EE08
820E
EE0C
C60F
FE00
000E
ENDCHAR
STARTCHAR char8860
ENCODING 8860
SWIDTH 613 0
DWIDTH 9 0
BBX 9 11 0 -1
BITMAP
0000
0000
000F
FE08
820B
BA08
820B
BA08
820F
FE00
000E
ENDCHAR
STARTCHAR char8861
ENCODING 8861
SWIDTH 613 0
DWIDTH 9 0
BBX 9 11 0 -1
BITMAP
0000
0000
000F
FE08
8208
820B
BA08
8208
820F
FE00
000E
ENDCHAR
STARTCHAR char8862
ENCODING 8862
SWIDTH 613 0
DWIDTH 9 0
BBX 9 11 0 -1
BITMAP
0000
0000
000F
FE0E
EE0E
EE08
820E
EE0E
EE0F
FE00
000E
ENDCHAR
STARTCHAR char8863
ENCODING 8863
SWIDTH 613 0
DWIDTH 9 0
BBX 9 11 0 -1
BITMAP
0000
0000
000F
FE0F
FE0F
FE08
820F
FE0F
FE0F
FE00
000E
ENDCHAR
STARTCHAR char8863
ENCODING 8864
SWIDTH 613 0
DWIDTH 9 0
BBX 9 11 0 -1
BITMAP
0000
0000
000F
FE09
920C
C60E
EE0C
C609
920F
FE00
000E
ENDCHAR
STARTCHAR char8863
ENCODING 8865
SWIDTH 613 0
DWIDTH 9 0
BBX 9 11 0 -1
BITMAP
0000
0000
000F
FE0F
FE0F
FE0E
EE0F
FE0F
FE0F
FE00
000E
ENDCHAR
STARTCHAR char8866
ENCODING 8866
SWIDTH 613 0
DWIDTH 9 0
BBX 9 11 0 -1
BITMAP
0000
0000
0008
8008
8008
800F
FE08
8008
8008
8000
000E
ENDCHAR
STARTCHAR char8867
ENCODING 8867
SWIDTH 613 0
DWIDTH 9 0
BBX 9 11 0 -1
BITMAP
0000
0000
0000
0200
0200
020F
FE00
0200
0200
0200
000E
ENDCHAR
STARTCHAR char8868
ENCODING 8868
SWIDTH 613 0
DWIDTH 9 0
BBX 9 11 0 -1
BITMAP
0000
0000
000F
FE01
1001
1001
1001
1001
1000
0000
000E
ENDCHAR
STARTCHAR char8868
ENCODING 8869
SWIDTH 613 0
DWIDTH 9 0
BBX 9 11 0 -1
BITMAP
0000
0000
0000
0001
1001
1001
1001
1001
100F
FE00
000E
ENDCHAR
STARTCHAR char8866
ENCODING 8870
SWIDTH 613 0
DWIDTH 9 0
BBX 9 11 0 -1
BITMAP
0000
0000
0002
2002
2002
2003
3802
2002
2002
2000
000E
ENDCHAR
STARTCHAR char8871
ENCODING 8871
SWIDTH 613 0
DWIDTH 9 0
BBX 9 11 0 -1
BITMAP
0000
0000
0002
2002
2003
3802
2003
3802
2002
2000
000E
ENDCHAR
STARTCHAR char8872
ENCODING 8872
SWIDTH 613 0
DWIDTH 9 0
BBX 9 11 0 -1
BITMAP
0000
0000
0008
8008
800F
FE08
800F
FE08
8008
8000
000E
ENDCHAR
STARTCHAR char8873
ENCODING 8873
SWIDTH 613 0
DWIDTH 9 0
BBX 9 11 0 -1
BITMAP
0000
0000
000A
A00A
A00A
A00B
BE0A
A00A
A00A
A000
000E
ENDCHAR
STARTCHAR char8873
ENCODING 8874
SWIDTH 613 0
DWIDTH 9 0
BBX 9 11 0 -1
BITMAP
0000
0000
000A
A80A
A80A
A80A
AE0A
A80A
A80A
A800
000E
ENDCHAR
STARTCHAR char8874
ENCODING 8875
SWIDTH 613 0
DWIDTH 9 0
BBX 9 11 0 -1
BITMAP
0000
0000
000A
A00A
A00B
BE0A
A00B
BE0A
A00A
A000
000E
ENDCHAR
STARTCHAR char8875
ENCODING 8876
SWIDTH 613 0
DWIDTH 9 0
BBX 9 11 0 -1
BITMAP
0000
0000
0008
8008
8808
880F
FE09
9009
9008
8000
000E
ENDCHAR
STARTCHAR char8872
ENCODING 8877
SWIDTH 613 0
DWIDTH 9 0
BBX 9 11 0 -1
BITMAP
0000
0000
0008
8808
880F
FE09
900F
FE0A
A00A
A000
000E
ENDCHAR
STARTCHAR char8873
ENCODING 8878
SWIDTH 613 0
DWIDTH 9 0
BBX 9 11 0 -1
BITMAP
0000
0000
000A
A00A
A40A
A40B
BE0A
A80A
A80A
A000
000E
ENDCHAR
STARTCHAR char8874
ENCODING 8879
SWIDTH 613 0
DWIDTH 9 0
BBX 9 11 0 -1
BITMAP
0000
0000
000A
A20A
A20B
BE0A
A40B
BE0A
A80A
A800
000E
ENDCHAR
STARTCHAR char8880
ENCODING 8880
SWIDTH 613 0
DWIDTH 9 0
BBX 9 11 0 -1
BITMAP
0000
0000
0000
0C00
0403
3C06
6003
3C00
0400
0C00
000E
ENDCHAR
STARTCHAR char8880
ENCODING 8881
SWIDTH 613 0
DWIDTH 9 0
BBX 9 11 0 -1
BITMAP
0000
0000
0006
6004
4007
7800
0C07
7804
4006
6000
000E
ENDCHAR
STARTCHAR char8882
ENCODING 8882
SWIDTH 613 0
DWIDTH 9 0
BBX 9 11 0 -1
BITMAP
0000
0000
0000
0000
0803
3806
6803
3800
0800
0000
000E
ENDCHAR
STARTCHAR char8882
ENCODING 8883
SWIDTH 613 0
DWIDTH 9 0
BBX 9 11 0 -1
BITMAP
0000
0000
0000
0002
2003
3802
2C03
3802
2000
0000
000E
ENDCHAR
STARTCHAR char8882
ENCODING 8884
SWIDTH 613 0
DWIDTH 9 0
BBX 9 11 0 -1
BITMAP
0000
0000
0000
0803
3806
6803
3800
0800
0007
7C00
000E
ENDCHAR
STARTCHAR char8882
ENCODING 8885
SWIDTH 613 0
DWIDTH 9 0
BBX 9 11 0 -1
BITMAP
0000
0000
0002
2003
3802
2C03
3802
2000
0007
7C00
000E
ENDCHAR
STARTCHAR char8886
ENCODING 8886
SWIDTH 613 0
DWIDTH 9 0
BBX 9 11 0 -1
BITMAP
0000
0000
0000
0000
000E
EE0B
BE0E
EE00
0000
0000
000E
ENDCHAR
STARTCHAR char8886
ENCODING 8887
SWIDTH 613 0
DWIDTH 9 0
BBX 9 11 0 -1
BITMAP
0000
0000
0000
0000
000E
EE0F
FA0E
EE00
0000
0000
000E
ENDCHAR
STARTCHAR char8886
ENCODING 8888
SWIDTH 613 0
DWIDTH 9 0
BBX 9 11 0 -1
BITMAP
0000
0000
0000
0000
0000
0E0F
FA00
0E00
0000
0000
000E
ENDCHAR
STARTCHAR char8889
ENCODING 8889
SWIDTH 613 0
DWIDTH 9 0
BBX 9 11 0 -1
BITMAP
0000
0000
0001
1001
1000
000C
C600
0001
1001
1000
000E
ENDCHAR
STARTCHAR char8890
ENCODING 8890
SWIDTH 613 0
DWIDTH 9 0
BBX 9 11 0 -1
BITMAP
0000
3800
1000
1000
1000
1000
1000
1000
1000
1000
0000
ENDCHAR
STARTCHAR char8891
ENCODING 8891
SWIDTH 613 0
DWIDTH 9 0
BBX 9 11 0 -1
BITMAP
0000
8200
C600
4400
6C00
2800
3800
1000
0000
FE00
0000
ENDCHAR
STARTCHAR char8891
ENCODING 8892
SWIDTH 613 0
DWIDTH 9 0
BBX 9 11 0 -1
BITMAP
000F
FE00
0001
1003
3802
2806
6C04
440C
C608
8200
000E
ENDCHAR
STARTCHAR char8891
ENCODING 8893
SWIDTH 613 0
DWIDTH 9 0
BBX 9 11 0 -1
BITMAP
000F
FE00
0008
820C
C604
4406
6C02
2803
3801
1000
000E
ENDCHAR
STARTCHAR char8894
ENCODING 8894
SWIDTH 613 0
DWIDTH 9 0
BBX 9 11 0 -1
BITMAP
0000
0000
0008
8008
8008
800E
E00B
B009
900F
FE00
000E
ENDCHAR
STARTCHAR char8895
ENCODING 8895
SWIDTH 613 0
DWIDTH 9 0
BBX 9 11 0 -1
BITMAP
0000
0000
0100
0300
0700
0D01
1903
3106
610F
FF00
000E
ENDCHAR
STARTCHAR char8710
ENCODING 8896
SWIDTH 613 0
DWIDTH 9 0
BBX 9 11 0 -1
BITMAP
0000
0001
1003
3802
2806
6C04
440C
C608
8208
8200
000E
ENDCHAR
STARTCHAR char8710
ENCODING 8897
SWIDTH 613 0
DWIDTH 9 0
BBX 9 11 0 -1
BITMAP
0000
0008
8208
820C
C604
4406
6C02
2803
3801
1000
000E
ENDCHAR
STARTCHAR char8745
ENCODING 8898
SWIDTH 613 0
DWIDTH 9 0
BBX 9 11 0 -1
BITMAP
0000
0007
7C0C
C608
8208
8208
8208
8208
8208
8200
000E
ENDCHAR
STARTCHAR char8745
ENCODING 8899
SWIDTH 613 0
DWIDTH 9 0
BBX 9 11 0 -1
BITMAP
0000
0008
8208
8208
8208
8208
8208
820C
C607
7C00
000E
ENDCHAR
STARTCHAR char8900
ENCODING 8900
SWIDTH 613 0
DWIDTH 9 0
BBX 9 11 0 -1
BITMAP
0000
0000
0000
0001
1003
3806
6C03
3801
1000
0000
000E
ENDCHAR
STARTCHAR char8901
ENCODING 8901
SWIDTH 613 0
DWIDTH 9 0
BBX 9 11 0 -1
BITMAP
0000
0000
0000
0000
0000
0001
1000
0000
0000
0000
000E
ENDCHAR
STARTCHAR char8902
ENCODING 8902
SWIDTH 613 0
DWIDTH 9 0
BBX 9 11 0 -1
BITMAP
0000
0000
0001
1003
3807
7C03
3802
2800
0000
0000
000E
ENDCHAR
STARTCHAR char8903
ENCODING 8903
SWIDTH 613 0
DWIDTH 9 0
BBX 9 11 0 -1
BITMAP
0000
0000
000D
D606
6C03
380F
FE03
3806
6C0D
D600
000E
ENDCHAR
STARTCHAR char8904
ENCODING 8904
SWIDTH 613 0
DWIDTH 9 0
BBX 9 11 0 -1
BITMAP
0000
0000
0000
000C
C60E
EE0B
BA0E
EE0C
C600
0000
000E
ENDCHAR
STARTCHAR char8904
ENCODING 8905
SWIDTH 613 0
DWIDTH 9 0
BBX 9 11 0 -1
BITMAP
0000
0000
0000
000C
C60E
EC0B
B80E
EC0C
C600
0000
000E
ENDCHAR
STARTCHAR char8904
ENCODING 8906
SWIDTH 613 0
DWIDTH 9 0
BBX 9 11 0 -1
BITMAP
0000
0000
0000
000C
C606
6E03
3A06
6E0C
C600
0000
000E
ENDCHAR
STARTCHAR char8904
ENCODING 8907
SWIDTH 613 0
DWIDTH 9 0
BBX 9 11 0 -1
BITMAP
0000
0000
0000
000C
C006
6003
3806
6C0C
C600
0000
000E
ENDCHAR
STARTCHAR char8904
ENCODING 8908
SWIDTH 613 0
DWIDTH 9 0
BBX 9 11 0 -1
BITMAP
0000
0000
0000
0000
0600
0C03
3806
6C0C
C600
0000
000E
ENDCHAR
STARTCHAR char8771
ENCODING 8909
SWIDTH 613 0
DWIDTH 9 0
BBX 9 11 0 -1
BITMAP
0000
0000
0000
0005
5C07
7400
0007
7C00
0000
0000
000E
ENDCHAR
STARTCHAR char8910
ENCODING 8910
SWIDTH 613 0
DWIDTH 9 0
BBX 9 11 0 -1
BITMAP
0000
0000
000C
C604
4406
6C02
2802
2803
3801
1000
000E
ENDCHAR
STARTCHAR char8910
ENCODING 8911
SWIDTH 613 0
DWIDTH 9 0
BBX 9 11 0 -1
BITMAP
0000
0000
0001
1003
3802
2802
2806
6C04
440C
C600
000E
ENDCHAR
STARTCHAR char8896
ENCODING 8912
SWIDTH 613 0
DWIDTH 9 0
BBX 9 11 0 -1
BITMAP
0000
0007
7E0C
C009
9E0B
B00B
B009
9E0C
C007
7E00
000E
ENDCHAR
STARTCHAR char8896
ENCODING 8913
SWIDTH 613 0
DWIDTH 9 0
BBX 9 11 0 -1
BITMAP
0000
000F
FC00
060F
F201
1A01
1A0F
F200
060F
FC00
000E
ENDCHAR
STARTCHAR char8898
ENCODING 8914
SWIDTH 613 0
DWIDTH 9 0
BBX 9 11 0 -1
BITMAP
0000
0007
7C0C
C609
920B
BA0A
AA0A
AA0A
AA0A
AA00
000E
ENDCHAR
STARTCHAR char8898
ENCODING 8915
SWIDTH 613 0
DWIDTH 9 0
BBX 9 11 0 -1
BITMAP
0000
000A
AA0A
AA0A
AA0A
AA0B
BA09
920C
C607
7C00
000E
ENDCHAR
STARTCHAR char8900
ENCODING 8916
SWIDTH 613 0
DWIDTH 9 0
BBX 9 11 0 -1
BITMAP
0000
0001
1001
1007
7C0D
D609
9209
9209
9209
9200
000E
ENDCHAR
STARTCHAR char8901
ENCODING 8917
SWIDTH 613 0
DWIDTH 9 0
BBX 9 11 0 -1
BITMAP
0000
0002
2802
2802
280F
FE02
280F
FE02
2802
2800
000E
ENDCHAR
STARTCHAR char8902
ENCODING 8918
SWIDTH 613 0
DWIDTH 9 0
BBX 9 11 0 -1
BITMAP
0000
0000
0000
0001
1C07
7004
4407
7001
1C00
0000
000E
ENDCHAR
STARTCHAR char8902
ENCODING 8919
SWIDTH 613 0
DWIDTH 9 0
BBX 9 11 0 -1
BITMAP
0000
0000
0000
0007
7001
1C04
4401
1C07
7000
0000
000E
ENDCHAR
STARTCHAR char8904
ENCODING 8920
SWIDTH 613 0
DWIDTH 9 0
BBX 9 11 0 -1
BITMAP
0000
0006
600C
C006
6001
1803
3001
1800
0600
0C00
060E
ENDCHAR
STARTCHAR char8904
ENCODING 8921
SWIDTH 613 0
DWIDTH 9 0
BBX 9 11 0 -1
BITMAP
0000
0000
0C00
0600
0C03
3001
1803
300C
C006
600C
C00E
ENDCHAR
STARTCHAR char8906
ENCODING 8922
SWIDTH 613 0
DWIDTH 9 0
BBX 9 11 0 -1
BITMAP
0000
0001
1C07
7001
1C00
0007
7C00
0007
7001
1C07
700E
ENDCHAR
STARTCHAR char8906
ENCODING 8923
SWIDTH 613 0
DWIDTH 9 0
BBX 9 11 0 -1
BITMAP
0000
0007
7001
1C07
7000
0007
7C00
0001
1C07
7001
1C0E
ENDCHAR
STARTCHAR char8804
ENCODING 8924
SWIDTH 613 0
DWIDTH 9 0
BBX 9 11 0 -1
BITMAP
0000
0000
0000
0007
7C00
0001
1C07
7001
1C00
0000
000E
ENDCHAR
STARTCHAR char8804
ENCODING 8925
SWIDTH 613 0
DWIDTH 9 0
BBX 9 11 0 -1
BITMAP
0000
0000
0000
0007
7C00
0007
7001
1C07
7000
0000
000E
ENDCHAR
STARTCHAR char8826
ENCODING 8926
SWIDTH 613 0
DWIDTH 9 0
BBX 9 11 0 -1
BITMAP
0000
0000
0001
1C07
700C
C401
1C07
7001
1C00
0400
000E
ENDCHAR
STARTCHAR char8826
ENCODING 8927
SWIDTH 613 0
DWIDTH 9 0
BBX 9 11 0 -1
BITMAP
0000
0000
0007
7001
1C04
4607
7001
1C07
7004
4000
000E
ENDCHAR
STARTCHAR char8826
ENCODING 8928
SWIDTH 613 0
DWIDTH 9 0
BBX 9 11 0 -1
BITMAP
0000
0001
1001
1401
1C07
7001
1C0D
D407
7001
1C01
100E
ENDCHAR
STARTCHAR char8826
ENCODING 8929
SWIDTH 613 0
DWIDTH 9 0
BBX 9 11 0 -1
BITMAP
0000
0001
1005
5007
7001
1C07
7005
5601
1C07
7001
100E
ENDCHAR
STARTCHAR char8847
ENCODING 8930
SWIDTH 613 0
DWIDTH 9 0
BBX 9 11 0 -1
BITMAP
0000
0001
1007
7C05
5005
5005
5007
7C01
1007
7C01
100E
ENDCHAR
STARTCHAR char8847
ENCODING 8931
SWIDTH 613 0
DWIDTH 9 0
BBX 9 11 0 -1
BITMAP
0000
0001
1007
7C01
1401
1401
1407
7C01
1007
7C01
100E
ENDCHAR
STARTCHAR char8847
ENCODING 8932
SWIDTH 613 0
DWIDTH 9 0
BBX 9 11 0 -1
BITMAP
0000
0007
7C04
4004
4004
4007
7C00
0000
0807
7C01
100E
ENDCHAR
STARTCHAR char8847
ENCODING 8933
SWIDTH 613 0
DWIDTH 9 0
BBX 9 11 0 -1
BITMAP
0000
0007
7C00
0400
0400
0407
7C00
0001
1007
7C02
200E
ENDCHAR
STARTCHAR char8826
ENCODING 8934
SWIDTH 613 0
DWIDTH 9 0
BBX 9 11 0 -1
BITMAP
0000
0000
0001
1C07
7001
1C00
0001
1007
7405
5C01
100E
ENDCHAR
STARTCHAR char8826
ENCODING 8935
SWIDTH 613 0
DWIDTH 9 0
BBX 9 11 0 -1
BITMAP
0000
0000
0007
7001
1C07
7000
0001
1007
7405
5C01
100E
ENDCHAR
STARTCHAR char8826
ENCODING 8936
SWIDTH 613 0
DWIDTH 9 0
BBX 9 11 0 -1
BITMAP
0000
0000
0401
1C07
7001
1C00
0401
1007
7405
5C01
100E
ENDCHAR
STARTCHAR char8826
ENCODING 8937
SWIDTH 613 0
DWIDTH 9 0
BBX 9 11 0 -1
BITMAP
0000
0004
4007
7001
1C07
7004
4001
1007
7405
5C01
100E
ENDCHAR
STARTCHAR char8882
ENCODING 8938
SWIDTH 613 0
DWIDTH 9 0
BBX 9 11 0 -1
BITMAP
0000
0000
0002
2002
2803
3806
6803
3802
2802
2000
000E
ENDCHAR
STARTCHAR char8882
ENCODING 8939
SWIDTH 613 0
DWIDTH 9 0
BBX 9 11 0 -1
BITMAP
0000
0000
0000
0802
2803
3802
2C03
3802
2800
0800
000E
ENDCHAR
STARTCHAR char8882
ENCODING 8940
SWIDTH 613 0
DWIDTH 9 0
BBX 9 11 0 -1
BITMAP
0000
0002
2002
2803
3806
6803
3802
2802
2007
7C02
200E
ENDCHAR
STARTCHAR char8882
ENCODING 8941
SWIDTH 613 0
DWIDTH 9 0
BBX 9 11 0 -1
BITMAP
0000
0000
0802
2803
3802
2C03
3802
2800
0807
7C00
080E
ENDCHAR
STARTCHAR char8924
ENCODING 8942
SWIDTH 613 0
DWIDTH 9 0
BBX 9 11 0 -1
BITMAP
0000
0000
1000
0000
0000
1000
0000
0000
1000
0000
0000
ENDCHAR
STARTCHAR char8925
ENCODING 8943
SWIDTH 613 0
DWIDTH 9 0
BBX 9 11 0 -1
BITMAP
0000
0000
0000
0000
0000
0009
9200
0000
0000
0000
000E
ENDCHAR
STARTCHAR char8926
ENCODING 8944
SWIDTH 613 0
DWIDTH 9 0
BBX 9 11 0 -1
BITMAP
0000
0000
0200
0000
0000
1000
0000
0000
8000
0000
0000
ENDCHAR
STARTCHAR char8927
ENCODING 8945
SWIDTH 613 0
DWIDTH 9 0
BBX 9 11 0 -1
BITMAP
0000
0000
8000
0000
0000
1000
0000
0000
0200
0000
0000
ENDCHAR
STARTCHAR char8928
ENCODING 8946
SWIDTH 613 0
DWIDTH 9 0
BBX 9 11 0 -1
BITMAP
0000
0000
0001
1E03
3002
200F
FE02
2003
3001
1E00
000E
ENDCHAR
STARTCHAR char8947
ENCODING 8947
SWIDTH 613 0
DWIDTH 9 0
BBX 9 11 0 -1
BITMAP
0000
3E00
E000
8000
8200
FE00
8200
8000
E000
3E00
0000
ENDCHAR
STARTCHAR char8947
ENCODING 8948
SWIDTH 613 0
DWIDTH 9 0
BBX 9 11 0 -1
BITMAP
0000
0000
0003
3E0E
E008
820F
FE08
820E
E003
3E00
000E
ENDCHAR
STARTCHAR char8949
ENCODING 8949
SWIDTH 613 0
DWIDTH 9 0
BBX 9 11 0 -1
BITMAP
0000
0008
8003
3E0E
E008
800F
FE08
800E
E003
3E00
000E
ENDCHAR
STARTCHAR char8949
ENCODING 8950
SWIDTH 613 0
DWIDTH 9 0
BBX 9 11 0 -1
BITMAP
000F
FE00
0003
3E0E
E008
800F
FE08
800E
E003
3E00
000E
ENDCHAR
STARTCHAR char8949
ENCODING 8951
SWIDTH 613 0
DWIDTH 9 0
BBX 9 11 0 -1
BITMAP
000F
FE00
0003
3E0E
E008
800F
FE08
800E
E003
3E00
000E
ENDCHAR
STARTCHAR char8949
ENCODING 8952
SWIDTH 613 0
DWIDTH 9 0
BBX 9 11 0 -1
BITMAP
0000
0003
3E0E
E008
800F
FE08
800E
E003
3E00
000F
FE0E
ENDCHAR
STARTCHAR char8953
ENCODING 8953
SWIDTH 613 0
DWIDTH 9 0
BBX 9 11 0 -1
BITMAP
0000
3E00
E000
8000
FE00
8000
FE00
8000
E000
3E00
0000
ENDCHAR
STARTCHAR char8928
ENCODING 8954
SWIDTH 613 0
DWIDTH 9 0
BBX 9 11 0 -1
BITMAP
0000
0000
000F
F001
1800
080F
FE00
0801
180F
F000
000E
ENDCHAR
STARTCHAR char8947
ENCODING 8955
SWIDTH 613 0
DWIDTH 9 0
BBX 9 11 0 -1
BITMAP
0000
F800
0E00
0200
8200
FE00
8200
0200
0E00
F800
0000
ENDCHAR
STARTCHAR char8947
ENCODING 8956
SWIDTH 613 0
DWIDTH 9 0
BBX 9 11 0 -1
BITMAP
0000
0000
000F
F800
0E08
820F
FE08
8200
0E0F
F800
000E
ENDCHAR
STARTCHAR char8949
ENCODING 8957
SWIDTH 613 0
DWIDTH 9 0
BBX 9 11 0 -1
BITMAP
000F
FE00
000F
F800
0E00
020F
FE00
0200
0E0F
F800
000E
ENDCHAR
STARTCHAR char8949
ENCODING 8958
SWIDTH 613 0
DWIDTH 9 0
BBX 9 11 0 -1
BITMAP
000F
FE00
000F
F800
0E00
020F
FE00
0200
0E0F
F800
000E
ENDCHAR
STARTCHAR char8959
ENCODING 8959
SWIDTH 613 0
DWIDTH 9 0
BBX 9 11 0 -1
BITMAP
0000
000F
FE08
8008
800F
FE08
8008
800F
FE00
0000
000E
ENDCHAR
STARTCHAR char8960
ENCODING 8960
SWIDTH 613 0
DWIDTH 9 0
BBX 9 11 0 -1
BITMAP
0000
0000
0000
0800
7C00
5400
5400
5400
7C00
2000
0000
ENDCHAR
STARTCHAR char8961
ENCODING 8961
SWIDTH 613 0
DWIDTH 9 0
BBX 9 11 0 -1
BITMAP
0000
0000
0000
0000
1C00
1400
D600
5000
7000
0000
0000
ENDCHAR
STARTCHAR char8962
ENCODING 8962
SWIDTH 613 0
DWIDTH 9 0
BBX 9 11 0 -1
BITMAP
0000
1000
3800
2800
EE00
8200
8200
8200
8200
FE00
0000
ENDCHAR
STARTCHAR char8963
ENCODING 8963
SWIDTH 613 0
DWIDTH 9 0
BBX 9 11 0 -1
BITMAP
0000
1000
3800
2800
0000
0000
0000
0000
0000
0000
0000
ENDCHAR
STARTCHAR char8964
ENCODING 8964
SWIDTH 613 0
DWIDTH 9 0
BBX 9 11 0 -1
BITMAP
0000
0000
0000
0000
0000
0000
0000
2800
3800
1000
0000
ENDCHAR
STARTCHAR char8965
ENCODING 8965
SWIDTH 613 0
DWIDTH 9 0
BBX 9 11 0 -1
BITMAP
0000
0000
0000
7C00
0000
1000
3800
2800
0000
0000
0000
ENDCHAR
STARTCHAR char8965
ENCODING 8966
SWIDTH 613 0
DWIDTH 9 0
BBX 9 11 0 -1
BITMAP
0000
0000
7C00
0000
7C00
0000
1000
3800
2800
0000
0000
ENDCHAR
STARTCHAR char8967
ENCODING 8967
SWIDTH 613 0
DWIDTH 9 0
BBX 9 11 0 -1
BITMAP
0000
3800
0800
3800
2000
3800
0800
3800
2000
3800
0000
ENDCHAR
STARTCHAR char8968
ENCODING 8968
SWIDTH 613 0
DWIDTH 9 0
BBX 9 11 0 -1
BITMAP
0000
1E00
1000
1000
1000
1000
1000
1000
1000
1000
0000
ENDCHAR
STARTCHAR char8969
ENCODING 8969
SWIDTH 613 0
DWIDTH 9 0
BBX 9 11 0 -1
BITMAP
0000
F000
1000
1000
1000
1000
1000
1000
1000
1000
0000
ENDCHAR
STARTCHAR char8970
ENCODING 8970
SWIDTH 613 0
DWIDTH 9 0
BBX 9 11 0 -1
BITMAP
0000
0000
1000
1000
1000
1000
1000
1000
1000
1E00
0000
ENDCHAR
STARTCHAR char8971
ENCODING 8971
SWIDTH 613 0
DWIDTH 9 0
BBX 9 11 0 -1
BITMAP
0000
0000
1000
1000
1000
1000
1000
1000
1000
F000
0000
ENDCHAR
STARTCHAR char8972
ENCODING 8972
SWIDTH 613 0
DWIDTH 9 0
BBX 9 11 0 -1
BITMAP
0000
0000
0000
0000
0000
0E00
0000
2000
2000
2000
0000
ENDCHAR
STARTCHAR char8972
ENCODING 8973
SWIDTH 613 0
DWIDTH 9 0
BBX 9 11 0 -1
BITMAP
0000
0000
0000
0000
0000
E000
0000
0800
0800
0800
0000
ENDCHAR
STARTCHAR char8972
ENCODING 8974
SWIDTH 613 0
DWIDTH 9 0
BBX 9 11 0 -1
BITMAP
0000
2000
2000
2000
0000
0E00
0000
0000
0000
0000
0000
ENDCHAR
STARTCHAR char8972
ENCODING 8975
SWIDTH 613 0
DWIDTH 9 0
BBX 9 11 0 -1
BITMAP
0000
0800
0800
0800
0000
E000
0000
0000
0000
0000
0000
ENDCHAR
STARTCHAR char8976
ENCODING 8976
SWIDTH 613 0
DWIDTH 9 0
BBX 9 11 0 -1
BITMAP
0000
0000
0000
0000
0000
0000
FE00
8000
8000
0000
0000
ENDCHAR
STARTCHAR char8977
ENCODING 8977
SWIDTH 613 0
DWIDTH 9 0
BBX 9 11 0 -1
BITMAP
0000
0000
0000
4400
7C00
4400
4400
4400
7C00
4400
0000
ENDCHAR
STARTCHAR char8978
ENCODING 8978
SWIDTH 613 0
DWIDTH 9 0
BBX 9 11 0 -1
BITMAP
0000
0000
0000
0000
7C00
C600
8200
8200
8200
0000
0000
ENDCHAR
STARTCHAR char8978
ENCODING 8979
SWIDTH 613 0
DWIDTH 9 0
BBX 9 11 0 -1
BITMAP
0000
0000
0000
0000
7C00
C600
8200
8200
FE00
0000
0000
ENDCHAR
STARTCHAR char8978
ENCODING 8980
SWIDTH 613 0
DWIDTH 9 0
BBX 9 11 0 -1
BITMAP
0000
0000
0000
7C00
C600
8200
C600
6C00
3800
1000
0000
ENDCHAR
STARTCHAR char8981
ENCODING 8981
SWIDTH 613 0
DWIDTH 9 0
BBX 9 11 0 -1
BITMAP
0000
0000
0000
7C00
4400
4400
4400
7C00
2000
E000
0000
ENDCHAR
STARTCHAR char8982
ENCODING 8982
SWIDTH 613 0
DWIDTH 9 0
BBX 9 11 0 -1
BITMAP
0000
0000
1000
1000
7C00
5400
FE00
5400
7C00
1000
1000
ENDCHAR
STARTCHAR char8983
ENCODING 8983
SWIDTH 613 0
DWIDTH 9 0
BBX 9 11 0 -1
BITMAP
0000
0000
0000
4400
FE00
4400
4400
4400
FE00
4400
0000
ENDCHAR
STARTCHAR char8984
ENCODING 8984
SWIDTH 613 0
DWIDTH 9 0
BBX 9 11 0 -1
BITMAP
0000
0000
0000
EE00
AA00
FE00
2800
FE00
AA00
EE00
0000
ENDCHAR
STARTCHAR char8985
ENCODING 8985
SWIDTH 613 0
DWIDTH 9 0
BBX 9 11 0 -1
BITMAP
0000
0000
0000
8000
8000
8000
FE00
0000
0000
0000
0000
ENDCHAR
STARTCHAR char8986
ENCODING 8986
SWIDTH 613 0
DWIDTH 9 0
BBX 9 11 0 -1
BITMAP
0000
7C00
FE00
9200
9200
B200
8200
8200
FE00
7C00
0000
ENDCHAR
STARTCHAR char8987
ENCODING 8987
SWIDTH 613 0
DWIDTH 9 0
BBX 9 11 0 -1
BITMAP
0000
FE00
4400
4400
6C00
2800
6C00
5400
7C00
FE00
0000
ENDCHAR
STARTCHAR char8988
ENCODING 8988
SWIDTH 613 0
DWIDTH 9 0
BBX 9 11 0 -1
BITMAP
0000
0000
0000
0000
7C00
4000
4000
4000
4000
0000
0000
ENDCHAR
STARTCHAR char8989
ENCODING 8989
SWIDTH 613 0
DWIDTH 9 0
BBX 9 11 0 -1
BITMAP
0000
0000
0000
0000
7C00
0400
0400
0400
0400
0000
0000
ENDCHAR
STARTCHAR char8990
ENCODING 8990
SWIDTH 613 0
DWIDTH 9 0
BBX 9 11 0 -1
BITMAP
0000
0000
0000
0000
4000
4000
4000
4000
7C00
0000
0000
ENDCHAR
STARTCHAR char8991
ENCODING 8991
SWIDTH 613 0
DWIDTH 9 0
BBX 9 11 0 -1
BITMAP
0000
0000
0000
0000
0400
0400
0400
0400
7C00
0000
0000
ENDCHAR
STARTCHAR char8992
ENCODING 8992
SWIDTH 613 0
DWIDTH 9 0
BBX 9 11 0 -1
BITMAP
0000
0000
0000
1C00
1400
1000
1000
1000
1000
1000
1000
ENDCHAR
STARTCHAR char8993
ENCODING 8993
SWIDTH 613 0
DWIDTH 9 0
BBX 9 11 0 -1
BITMAP
1000
1000
1000
1000
1000
5000
7000
0000
0000
0000
0000
ENDCHAR
STARTCHAR char8994
ENCODING 8994
SWIDTH 613 0
DWIDTH 9 0
BBX 9 11 0 -1
BITMAP
0000
0000
0000
0000
0000
0000
C600
7C00
0000
0000
0000
ENDCHAR
STARTCHAR char8995
ENCODING 8995
SWIDTH 613 0
DWIDTH 9 0
BBX 9 11 0 -1
BITMAP
0000
0000
0000
0000
0000
7C00
C600
0000
0000
0000
0000
ENDCHAR
STARTCHAR char8996
ENCODING 8996
SWIDTH 613 0
DWIDTH 9 0
BBX 9 11 0 -1
BITMAP
0000
0000
0000
0000
D600
1000
3800
6C00
0000
0000
0000
ENDCHAR
STARTCHAR char8997
ENCODING 8997
SWIDTH 613 0
DWIDTH 9 0
BBX 9 11 0 -1
BITMAP
0000
0000
0000
0000
0000
0000
EE00
2000
2000
3E00
0000
ENDCHAR
STARTCHAR char8998
ENCODING 8998
SWIDTH 613 0
DWIDTH 9 0
BBX 9 11 0 -1
BITMAP
0000
0000
0000
F000
A800
8C00
DE00
8C00
A800
F000
0000
ENDCHAR
STARTCHAR char8998
ENCODING 8999
SWIDTH 613 0
DWIDTH 9 0
BBX 9 11 0 -1
BITMAP
0000
0000
0000
FE00
BA00
8200
EE00
8200
BA00
FE00
0000
ENDCHAR
STARTCHAR char9000
ENCODING 9000
SWIDTH 613 0
DWIDTH 9 0
BBX 9 11 0 -1
BITMAP
0000
0000
0000
FE00
AA00
FE00
AA00
FE00
C600
FE00
0000
ENDCHAR
STARTCHAR char9001
ENCODING 9001
SWIDTH 613 0
DWIDTH 9 0
BBX 9 11 0 -1
BITMAP
0000
0000
0000
1000
1000
3000
6000
3000
1000
1000
0000
ENDCHAR
STARTCHAR char9001
ENCODING 9002
SWIDTH 613 0
DWIDTH 9 0
BBX 9 11 0 -1
BITMAP
0000
0000
0000
1000
1000
1800
0C00
1800
1000
1000
0000
ENDCHAR
STARTCHAR char8998
ENCODING 9003
SWIDTH 613 0
DWIDTH 9 0
BBX 9 11 0 -1
BITMAP
0000
0000
0000
1E00
2A00
6200
F600
6200
2A00
1E00
0000
ENDCHAR
STARTCHAR char9004
ENCODING 9004
SWIDTH 613 0
DWIDTH 9 0
BBX 9 11 0 -1
BITMAP
0000
3800
5400
EA00
A600
A200
A200
A600
AA00
7400
3800
ENDCHAR
STARTCHAR char9005
ENCODING 9005
SWIDTH 613 0
DWIDTH 9 0
BBX 9 11 0 -1
BITMAP
0000
0200
8200
FE00
C600
C600
C600
FE00
8200
8000
0000
ENDCHAR
STARTCHAR char9006
ENCODING 9006
SWIDTH 613 0
DWIDTH 9 0
BBX 9 11 0 -1
BITMAP
0000
0000
0000
7C00
4400
5E00
6400
7C00
C000
C000
0000
ENDCHAR
STARTCHAR char9007
ENCODING 9007
SWIDTH 613 0
DWIDTH 9 0
BBX 9 11 0 -1
BITMAP
0000
0000
0000
3800
0000
FE00
0000
3800
0000
0000
0000
ENDCHAR
STARTCHAR char9008
ENCODING 9008
SWIDTH 613 0
DWIDTH 9 0
BBX 9 11 0 -1
BITMAP
0000
0000
4400
EE00
4400
4400
CC00
8800
8800
F800
0000
ENDCHAR
STARTCHAR char9009
ENCODING 9009
SWIDTH 613 0
DWIDTH 9 0
BBX 9 11 0 -1
BITMAP
0000
0000
0000
2000
F800
AA00
BF00
AA00
F800
2000
0000
ENDCHAR
STARTCHAR char9010
ENCODING 9010
SWIDTH 613 0
DWIDTH 9 0
BBX 9 11 0 -1
BITMAP
0000
0000
0000
F000
9C00
8400
FE00
8400
9C00
F000
0000
ENDCHAR
STARTCHAR char9011
ENCODING 9011
SWIDTH 613 0
DWIDTH 9 0
BBX 9 11 0 -1
BITMAP
0000
0000
0000
0000
E000
B800
8E00
8200
FE00
0000
0000
ENDCHAR
STARTCHAR char9012
ENCODING 9012
SWIDTH 613 0
DWIDTH 9 0
BBX 9 11 0 -1
BITMAP
0000
0000
0000
0000
8200
8200
8200
FE00
0000
0000
0000
ENDCHAR
STARTCHAR char9013
ENCODING 9013
SWIDTH 613 0
DWIDTH 9 0
BBX 9 11 0 -1
BITMAP
0000
0000
0000
0000
0000
8200
C600
6C00
3800
1000
0000
ENDCHAR
STARTCHAR char9014
ENCODING 9014
SWIDTH 613 0
DWIDTH 9 0
BBX 9 11 0 -1
BITMAP
0000
7C00
1000
1000
1000
1000
1000
1000
1000
7C00
0000
ENDCHAR
STARTCHAR char9015
ENCODING 9015
SWIDTH 613 0
DWIDTH 9 0
BBX 9 11 0 -1
BITMAP
0000
7E00
4200
4200
4200
4200
4200
4200
4200
7E00
0000
ENDCHAR
STARTCHAR char9016
ENCODING 9016
SWIDTH 613 0
DWIDTH 9 0
BBX 9 11 0 -1
BITMAP
0000
FE00
8200
8200
8200
FE00
8200
FE00
8200
FE00
0000
ENDCHAR
STARTCHAR char9017
ENCODING 9017
SWIDTH 613 0
DWIDTH 9 0
BBX 9 11 0 -1
BITMAP
0000
FE00
8200
9200
8200
FE00
8200
9200
8200
FE00
0000
ENDCHAR
STARTCHAR char9018
ENCODING 9018
SWIDTH 613 0
DWIDTH 9 0
BBX 9 11 0 -1
BITMAP
0000
FE00
8200
9200
BA00
EE00
BA00
9200
8200
FE00
0000
ENDCHAR
STARTCHAR char9019
ENCODING 9019
SWIDTH 613 0
DWIDTH 9 0
BBX 9 11 0 -1
BITMAP
0000
FE00
8200
8200
BA00
AA00
BA00
8200
8200
FE00
0000
ENDCHAR
STARTCHAR char9020
ENCODING 9020
SWIDTH 613 0
DWIDTH 9 0
BBX 9 11 0 -1
BITMAP
0000
FE00
8200
FE00
C600
C600
C600
FE00
8200
FE00
0000
ENDCHAR
STARTCHAR char9021
ENCODING 9021
SWIDTH 613 0
DWIDTH 9 0
BBX 9 11 0 -1
BITMAP
0000
0000
0000
1000
7C00
5400
5400
5400
7C00
1000
0000
ENDCHAR
STARTCHAR char9022
ENCODING 9022
SWIDTH 613 0
DWIDTH 9 0
BBX 9 11 0 -1
BITMAP
0000
0000
0000
FE00
8200
BA00
AA00
BA00
8200
FE00
0000
ENDCHAR
STARTCHAR char9023
ENCODING 9023
SWIDTH 613 0
DWIDTH 9 0
BBX 9 11 0 -1
BITMAP
0000
0000
0000
0800
0800
0800
FE00
2000
2000
2000
0000
ENDCHAR
STARTCHAR char9023
ENCODING 9024
SWIDTH 613 0
DWIDTH 9 0
BBX 9 11 0 -1
BITMAP
0000
0000
0000
2000
2000
2000
FE00
0800
0800
0800
0000
ENDCHAR
STARTCHAR char9025
ENCODING 9025
SWIDTH 613 0
DWIDTH 9 0
BBX 9 11 0 -1
BITMAP
0000
FE00
8A00
8A00
8A00
BA00
A200
A200
A200
FE00
0000
ENDCHAR
STARTCHAR char9025
ENCODING 9026
SWIDTH 613 0
DWIDTH 9 0
BBX 9 11 0 -1
BITMAP
0000
FE00
A200
A200
A200
BA00
8A00
8A00
8A00
FE00
0000
ENDCHAR
STARTCHAR char9027
ENCODING 9027
SWIDTH 613 0
DWIDTH 9 0
BBX 9 11 0 -1
BITMAP
0000
FE00
8200
9E00
B200
E200
B200
9E00
8200
FE00
0000
ENDCHAR
STARTCHAR char9027
ENCODING 9028
SWIDTH 613 0
DWIDTH 9 0
BBX 9 11 0 -1
BITMAP
0000
FE00
8200
F200
9A00
8E00
9A00
F200
8200
FE00
0000
ENDCHAR
STARTCHAR char9029
ENCODING 9029
SWIDTH 613 0
DWIDTH 9 0
BBX 9 11 0 -1
BITMAP
0000
1000
1000
1000
5000
FE00
5000
1000
1000
1000
0000
ENDCHAR
STARTCHAR char9029
ENCODING 9030
SWIDTH 613 0
DWIDTH 9 0
BBX 9 11 0 -1
BITMAP
0000
1000
1000
1000
1400
FE00
1400
1000
1000
1000
0000
ENDCHAR
STARTCHAR char9031
ENCODING 9031
SWIDTH 613 0
DWIDTH 9 0
BBX 9 11 0 -1
BITMAP
0000
FE00
8200
8200
A200
FE00
A200
8200
8200
FE00
0000
ENDCHAR
STARTCHAR char9031
ENCODING 9032
SWIDTH 613 0
DWIDTH 9 0
BBX 9 11 0 -1
BITMAP
0000
FE00
8200
8200
8A00
FE00
8A00
8200
8200
FE00
0000
ENDCHAR
STARTCHAR char8960
ENCODING 9033
SWIDTH 613 0
DWIDTH 9 0
BBX 9 11 0 -1
BITMAP
0000
0000
0000
2000
7C00
5400
5400
5400
7C00
0800
0000
ENDCHAR
STARTCHAR char9034
ENCODING 9034
SWIDTH 613 0
DWIDTH 9 0
BBX 9 11 0 -1
BITMAP
0000
1000
1000
1000
1000
1000
1000
FE00
0000
FE00
0000
ENDCHAR
STARTCHAR char9035
ENCODING 9035
SWIDTH 613 0
DWIDTH 9 0
BBX 9 11 0 -1
BITMAP
0000
1000
1000
3800
3800
7C00
5400
D600
9200
FE00
1000
ENDCHAR
STARTCHAR char9036
ENCODING 9036
SWIDTH 613 0
DWIDTH 9 0
BBX 9 11 0 -1
BITMAP
0000
FE00
8200
8200
8200
EE00
AA00
BA00
9200
FE00
0000
ENDCHAR
STARTCHAR char9037
ENCODING 9037
SWIDTH 613 0
DWIDTH 9 0
BBX 9 11 0 -1
BITMAP
0000
FE00
8200
9200
9200
BA00
AA00
FE00
8200
FE00
0000
ENDCHAR
STARTCHAR char9038
ENCODING 9038
SWIDTH 613 0
DWIDTH 9 0
BBX 9 11 0 -1
BITMAP
0000
1000
1000
7C00
5400
5400
5400
7C00
1000
FE00
0000
ENDCHAR
STARTCHAR char9039
ENCODING 9039
SWIDTH 613 0
DWIDTH 9 0
BBX 9 11 0 -1
BITMAP
0000
1000
3800
1000
1000
1000
FE00
1000
1000
1000
0000
ENDCHAR
STARTCHAR char9040
ENCODING 9040
SWIDTH 613 0
DWIDTH 9 0
BBX 9 11 0 -1
BITMAP
0000
FE00
9200
BA00
9200
9200
9200
9200
9200
FE00
0000
ENDCHAR
STARTCHAR char9034
ENCODING 9041
SWIDTH 613 0
DWIDTH 9 0
BBX 9 11 0 -1
BITMAP
0000
FE00
0000
FE00
1000
1000
1000
1000
1000
1000
0000
ENDCHAR
STARTCHAR char9035
ENCODING 9042
SWIDTH 613 0
DWIDTH 9 0
BBX 9 11 0 -1
BITMAP
0000
1000
FE00
9200
D600
5400
7C00
3800
3800
1000
1000
ENDCHAR
STARTCHAR char9036
ENCODING 9043
SWIDTH 613 0
DWIDTH 9 0
BBX 9 11 0 -1
BITMAP
0000
FE00
9200
BA00
AA00
EE00
8200
8200
8200
FE00
0000
ENDCHAR
STARTCHAR char9037
ENCODING 9044
SWIDTH 613 0
DWIDTH 9 0
BBX 9 11 0 -1
BITMAP
0000
FE00
8200
FE00
AA00
BA00
9200
9200
8200
FE00
0000
ENDCHAR
STARTCHAR char9038
ENCODING 9045
SWIDTH 613 0
DWIDTH 9 0
BBX 9 11 0 -1
BITMAP
0000
FE00
1000
7C00
5400
5400
5400
7C00
1000
1000
0000
ENDCHAR
STARTCHAR char9039
ENCODING 9046
SWIDTH 613 0
DWIDTH 9 0
BBX 9 11 0 -1
BITMAP
0000
1000
1000
1000
FE00
1000
1000
1000
3800
1000
0000
ENDCHAR
STARTCHAR char9040
ENCODING 9047
SWIDTH 613 0
DWIDTH 9 0
BBX 9 11 0 -1
BITMAP
0000
FE00
9200
9200
9200
9200
9200
BA00
9200
FE00
0000
ENDCHAR
STARTCHAR char9048
ENCODING 9048
SWIDTH 613 0
DWIDTH 9 0
BBX 9 11 0 -1
BITMAP
0000
1000
1000
1000
0000
0000
0000
0000
0000
FE00
0000
ENDCHAR
STARTCHAR char9049
ENCODING 9049
SWIDTH 613 0
DWIDTH 9 0
BBX 9 11 0 -1
BITMAP
1000
3800
2800
6C00
4400
C600
8200
FE00
0000
FE00
0000
ENDCHAR
STARTCHAR char9050
ENCODING 9050
SWIDTH 613 0
DWIDTH 9 0
BBX 9 11 0 -1
BITMAP
0000
1000
3800
6C00
C600
6C00
3800
1000
0000
FE00
0000
ENDCHAR
STARTCHAR char9051
ENCODING 9051
SWIDTH 613 0
DWIDTH 9 0
BBX 9 11 0 -1
BITMAP
0000
0000
0000
0000
3800
2800
3800
0000
0000
FE00
0000
ENDCHAR
STARTCHAR char9052
ENCODING 9052
SWIDTH 613 0
DWIDTH 9 0
BBX 9 11 0 -1
BITMAP
0000
0000
0000
7C00
4400
4400
4400
7C00
0000
FE00
0000
ENDCHAR
STARTCHAR char9053
ENCODING 9053
SWIDTH 613 0
DWIDTH 9 0
BBX 9 11 0 -1
BITMAP
0000
7C00
C600
8200
BA00
AA00
BA00
8200
8200
8200
0000
ENDCHAR
STARTCHAR char9054
ENCODING 9054
SWIDTH 613 0
DWIDTH 9 0
BBX 9 11 0 -1
BITMAP
0000
FE00
8200
9200
9200
8200
8200
8200
8200
FE00
0000
ENDCHAR
STARTCHAR char9055
ENCODING 9055
SWIDTH 613 0
DWIDTH 9 0
BBX 9 11 0 -1
BITMAP
0000
0000
FE00
9200
9200
FE00
BA00
AA00
FE00
0000
0000
ENDCHAR
STARTCHAR char9056
ENCODING 9056
SWIDTH 613 0
DWIDTH 9 0
BBX 9 11 0 -1
BITMAP
0000
FE00
8200
9200
8200
8200
8200
9200
8200
FE00
0000
ENDCHAR
STARTCHAR char9057
ENCODING 9057
SWIDTH 613 0
DWIDTH 9 0
BBX 9 11 0 -1
BITMAP
2800
0000
FE00
1000
1000
1000
1000
1000
1000
1000
0000
ENDCHAR
STARTCHAR char9049
ENCODING 9058
SWIDTH 613 0
DWIDTH 9 0
BBX 9 11 0 -1
BITMAP
2800
0000
FE00
8200
C600
4400
6C00
2800
3800
1000
0000
ENDCHAR
STARTCHAR char9059
ENCODING 9059
SWIDTH 613 0
DWIDTH 9 0
BBX 9 11 0 -1
BITMAP
0000
2800
0000
1000
1000
7C00
3800
2800
0000
0000
0000
ENDCHAR
STARTCHAR char9060
ENCODING 9060
SWIDTH 613 0
DWIDTH 9 0
BBX 9 11 0 -1
BITMAP
0000
2800
0000
3800
2800
3800
0000
0000
0000
0000
0000
ENDCHAR
STARTCHAR char9061
ENCODING 9061
SWIDTH 613 0
DWIDTH 9 0
BBX 9 11 0 -1
BITMAP
0000
2800
0000
7C00
4400
4400
4400
7C00
0000
0000
0000
ENDCHAR
STARTCHAR char9062
ENCODING 9062
SWIDTH 613 0
DWIDTH 9 0
BBX 9 11 0 -1
BITMAP
0000
1000
9200
9200
9200
9200
9200
D600
7C00
1000
0000
ENDCHAR
STARTCHAR char9063
ENCODING 9063
SWIDTH 613 0
DWIDTH 9 0
BBX 9 11 0 -1
BITMAP
0000
1000
7E00
D000
9000
9000
9000
D000
7E00
1000
0000
ENDCHAR
STARTCHAR char9064
ENCODING 9064
SWIDTH 613 0
DWIDTH 9 0
BBX 9 11 0 -1
BITMAP
0000
2800
0000
0000
F200
9200
9E00
0000
0000
0000
0000
ENDCHAR
STARTCHAR char9065
ENCODING 9065
SWIDTH 613 0
DWIDTH 9 0
BBX 9 11 0 -1
BITMAP
0000
2800
0000
6000
3800
0C00
3800
6000
0000
0000
0000
ENDCHAR
STARTCHAR char9066
ENCODING 9066
SWIDTH 613 0
DWIDTH 9 0
BBX 9 11 0 -1
BITMAP
0000
0000
0000
0000
0000
FE00
0000
1000
3000
0000
0000
ENDCHAR
STARTCHAR char9049
ENCODING 9067
SWIDTH 613 0
DWIDTH 9 0
BBX 9 11 0 -1
BITMAP
0000
0000
FE00
8200
C600
4400
6C00
FA00
BE00
1000
0000
ENDCHAR
STARTCHAR char9068
ENCODING 9068
SWIDTH 613 0
DWIDTH 9 0
BBX 9 11 0 -1
BITMAP
0000
0000
7C00
4400
F600
D600
DE00
4400
7C00
0000
0000
ENDCHAR
STARTCHAR char9069
ENCODING 9069
SWIDTH 613 0
DWIDTH 9 0
BBX 9 11 0 -1
BITMAP
0000
1000
1000
1000
F200
9200
9E00
1000
1000
1000
0000
ENDCHAR
STARTCHAR char9070
ENCODING 9070
SWIDTH 613 0
DWIDTH 9 0
BBX 9 11 0 -1
BITMAP
0000
0000
0000
0000
1000
0000
0000
0000
1000
FE00
3000
ENDCHAR
STARTCHAR char9056
ENCODING 9071
SWIDTH 613 0
DWIDTH 9 0
BBX 9 11 0 -1
BITMAP
0000
FE00
8200
9200
BA00
9200
BA00
9200
8200
FE00
0000
ENDCHAR
STARTCHAR char9056
ENCODING 9072
SWIDTH 613 0
DWIDTH 9 0
BBX 9 11 0 -1
BITMAP
0000
FE00
8200
BA00
8A00
9A00
8200
9200
8200
FE00
0000
ENDCHAR
STARTCHAR char9073
ENCODING 9073
SWIDTH 613 0
DWIDTH 9 0
BBX 9 11 0 -1
BITMAP
0000
0000
8200
8200
C600
4400
6C00
FA00
BE00
1000
0000
ENDCHAR
STARTCHAR char9073
ENCODING 9074
SWIDTH 613 0
DWIDTH 9 0
BBX 9 11 0 -1
BITMAP
0000
0000
1000
3800
FA00
FE00
4400
C600
8200
8200
0000
ENDCHAR
STARTCHAR char9075
ENCODING 9075
SWIDTH 613 0
DWIDTH 9 0
BBX 9 11 0 -1
BITMAP
0000
0000
0000
7000
1000
1000
1000
1000
1400
1C00
0000
ENDCHAR
STARTCHAR char9076
ENCODING 9076
SWIDTH 613 0
DWIDTH 9 0
BBX 9 11 0 -1
BITMAP
0000
0000
7C00
C600
8200
8200
C600
FC00
8000
8000
0000
ENDCHAR
STARTCHAR char9077
ENCODING 9077
SWIDTH 613 0
DWIDTH 9 0
BBX 9 11 0 -1
BITMAP
0000
0000
0000
C600
8200
8200
9200
9200
BA00
EE00
0000
ENDCHAR
STARTCHAR char9078
ENCODING 9078
SWIDTH 613 0
DWIDTH 9 0
BBX 9 11 0 -1
BITMAP
0000
0000
7A00
4E00
4400
4400
4E00
7A00
0000
FE00
0000
ENDCHAR
STARTCHAR char9079
ENCODING 9079
SWIDTH 613 0
DWIDTH 9 0
BBX 9 11 0 -1
BITMAP
0000
3C00
6000
4000
7C00
4000
6000
3C00
0000
FE00
0000
ENDCHAR
STARTCHAR char9075
ENCODING 9080
SWIDTH 613 0
DWIDTH 9 0
BBX 9 11 0 -1
BITMAP
0000
0000
7000
1000
1000
1000
1400
1C00
0000
FE00
0000
ENDCHAR
STARTCHAR char9077
ENCODING 9081
SWIDTH 613 0
DWIDTH 9 0
BBX 9 11 0 -1
BITMAP
0000
0000
C600
8200
9200
9200
BA00
EE00
0000
FE00
0000
ENDCHAR
STARTCHAR char9078
ENCODING 9082
SWIDTH 613 0
DWIDTH 9 0
BBX 9 11 0 -1
BITMAP
0000
0000
0000
0000
7A00
4E00
4400
4400
4E00
7A00
0000
ENDCHAR
STARTCHAR char9083
ENCODING 9083
SWIDTH 613 0
DWIDTH 9 0
BBX 9 11 0 -1
BITMAP
0000
0200
0200
0600
0400
9E00
8800
D800
5000
7000
0000
ENDCHAR
STARTCHAR char9084
ENCODING 9084
SWIDTH 613 0
DWIDTH 9 0
BBX 9 11 0 -1
BITMAP
0000
2000
F800
2800
F800
A000
F800
2800
FE00
C000
0000
ENDCHAR
STARTCHAR char9085
ENCODING 9085
SWIDTH 613 0
DWIDTH 9 0
BBX 9 11 0 -1
BITMAP
0000
0000
0000
0000
0000
C600
4400
7C00
0000
0000
0000
ENDCHAR
STARTCHAR char9086
ENCODING 9086
SWIDTH 613 0
DWIDTH 9 0
BBX 9 11 0 -1
BITMAP
0000
0000
7C00
C600
8200
8200
FE00
4400
4400
C600
0000
ENDCHAR
STARTCHAR char9087
ENCODING 9087
SWIDTH 613 0
DWIDTH 9 0
BBX 9 11 0 -1
BITMAP
0000
1000
1000
1000
3800
3800
3800
1000
1000
1000
0000
ENDCHAR
STARTCHAR char9088
ENCODING 9088
SWIDTH 613 0
DWIDTH 9 0
BBX 9 11 0 -1
BITMAP
0000
3800
2800
3800
AA00
8200
C600
6C00
3800
1000
0000
ENDCHAR
STARTCHAR char9089
ENCODING 9089
SWIDTH 613 0
DWIDTH 9 0
BBX 9 11 0 -1
BITMAP
0000
0000
0000
0000
E000
A000
E000
AA00
0000
FE00
0000
ENDCHAR
STARTCHAR char9090
ENCODING 9090
SWIDTH 613 0
DWIDTH 9 0
BBX 9 11 0 -1
BITMAP
0000
0000
0000
0000
EE00
AA00
EE00
AA00
0000
EE00
0000
ENDCHAR
STARTCHAR char9091
ENCODING 9091
SWIDTH 613 0
DWIDTH 9 0
BBX 9 11 0 -1
BITMAP
0000
2800
AA00
0000
BA00
2800
BA00
2800
8200
2800
2800
ENDCHAR
STARTCHAR char9092
ENCODING 9092
SWIDTH 613 0
DWIDTH 9 0
BBX 9 11 0 -1
BITMAP
0000
0000
0000
F800
8800
BE00
AA00
BE00
8800
F800
0000
ENDCHAR
STARTCHAR char9093
ENCODING 9093
SWIDTH 613 0
DWIDTH 9 0
BBX 9 11 0 -1
BITMAP
0000
1000
FE00
9200
9200
9200
9200
9200
FE00
1000
0000
ENDCHAR
STARTCHAR char9094
ENCODING 9094
SWIDTH 613 0
DWIDTH 9 0
BBX 9 11 0 -1
BITMAP
0000
7E00
4200
4200
1200
FA00
1200
4200
4200
7E00
0000
ENDCHAR
STARTCHAR char9095
ENCODING 9095
SWIDTH 613 0
DWIDTH 9 0
BBX 9 11 0 -1
BITMAP
0000
0000
0400
3E00
2400
2000
EE00
0000
0000
0000
0000
ENDCHAR
STARTCHAR char9096
ENCODING 9096
SWIDTH 613 0
DWIDTH 9 0
BBX 9 11 0 -1
BITMAP
0000
1000
7C00
D600
7C00
5400
7C00
D600
7C00
1000
0000
ENDCHAR
STARTCHAR char9097
ENCODING 9097
SWIDTH 613 0
DWIDTH 9 0
BBX 9 11 0 -1
BITMAP
0000
0000
FE00
8200
8200
EE00
BA00
9200
FE00
0000
0000
ENDCHAR
STARTCHAR char9097
ENCODING 9098
SWIDTH 613 0
DWIDTH 9 0
BBX 9 11 0 -1
BITMAP
0000
0000
FE00
8200
FE00
AA00
BA00
9200
FE00
0000
0000
ENDCHAR
STARTCHAR char9099
ENCODING 9099
SWIDTH 613 0
DWIDTH 9 0
BBX 9 11 0 -1
BITMAP
0000
0000
DE00
C200
2200
9200
8A00
8200
FE00
0000
0000
ENDCHAR
STARTCHAR char9100
ENCODING 9100
SWIDTH 613 0
DWIDTH 9 0
BBX 9 11 0 -1
BITMAP
0000
7C00
4400
E400
4400
0000
EE00
AA00
EE00
0000
0000
ENDCHAR
STARTCHAR char9101
ENCODING 9101
SWIDTH 613 0
DWIDTH 9 0
BBX 9 11 0 -1
BITMAP
0000
0000
7C00
4400
4400
4400
4400
4400
4400
C600
0000
ENDCHAR
STARTCHAR char9102
ENCODING 9102
SWIDTH 613 0
DWIDTH 9 0
BBX 9 11 0 -1
BITMAP
0000
3E00
6400
4400
4400
4400
4400
4400
4C00
F800
0000
ENDCHAR
STARTCHAR char9103
ENCODING 9103
SWIDTH 613 0
DWIDTH 9 0
BBX 9 11 0 -1
BITMAP
0000
0000
FE00
1000
3800
6C00
C600
6C00
3800
1000
0000
ENDCHAR
STARTCHAR char9103
ENCODING 9104
SWIDTH 613 0
DWIDTH 9 0
BBX 9 11 0 -1
BITMAP
0000
0000
1000
3800
6C00
C600
6C00
3800
1000
FE00
0000
ENDCHAR
STARTCHAR char9103
ENCODING 9105
SWIDTH 613 0
DWIDTH 9 0
BBX 9 11 0 -1
BITMAP
0000
0000
FE00
1000
3800
6C00
FE00
6C00
3800
1000
0000
ENDCHAR
STARTCHAR char9103
ENCODING 9106
SWIDTH 613 0
DWIDTH 9 0
BBX 9 11 0 -1
BITMAP
0000
0000
1000
3800
6C00
FE00
6C00
3800
1000
FE00
0000
ENDCHAR
STARTCHAR char9107
ENCODING 9107
SWIDTH 613 0
DWIDTH 9 0
BBX 9 11 0 -1
BITMAP
0000
0000
0000
0000
0000
FE00
0000
AA00
0000
0000
0000
ENDCHAR
STARTCHAR char9108
ENCODING 9108
SWIDTH 613 0
DWIDTH 9 0
BBX 9 11 0 -1
BITMAP
0000
0000
0000
0000
3800
4400
8200
4400
3800
0000
0000
ENDCHAR
STARTCHAR char9109
ENCODING 9109
SWIDTH 613 0
DWIDTH 9 0
BBX 9 11 0 -1
BITMAP
0000
FE00
8200
8200
8200
8200
8200
8200
8200
FE00
0000
ENDCHAR
STARTCHAR char9110
ENCODING 9110
SWIDTH 613 0
DWIDTH 9 0
BBX 9 11 0 -1
BITMAP
0000
F800
F800
F000
F000
E000
E000
C000
C000
8000
0000
ENDCHAR
STARTCHAR char9111
ENCODING 9111
SWIDTH 613 0
DWIDTH 9 0
BBX 9 11 0 -1
BITMAP
0000
FC00
8000
BE00
A200
9A00
B200
9A00
A200
3E00
0000
ENDCHAR
STARTCHAR char9111
ENCODING 9112
SWIDTH 613 0
DWIDTH 9 0
BBX 9 11 0 -1
BITMAP
0000
7E00
0200
FA00
8A00
B200
9A00
B200
8A00
F800
0000
ENDCHAR
STARTCHAR char9113
ENCODING 9113
SWIDTH 613 0
DWIDTH 9 0
BBX 9 11 0 -1
BITMAP
0000
3C00
6400
4400
5400
C600
C600
FE00
FE00
FE00
0000
ENDCHAR
STARTCHAR char9114
ENCODING 9114
SWIDTH 613 0
DWIDTH 9 0
BBX 9 11 0 -1
BITMAP
0000
0800
FE00
8A00
8A00
BA00
A200
A200
FE00
2000
0000
ENDCHAR
STARTCHAR char9193
ENCODING 9193
SWIDTH 613 0
DWIDTH 9 0
BBX 9 11 0 -1
BITMAP
0000
0000
0000
0000
0000
0009
900D
D809
9000
0000
000E
ENDCHAR
STARTCHAR char9194
ENCODING 9194
SWIDTH 613 0
DWIDTH 9 0
BBX 9 11 0 -1
BITMAP
0000
0000
0000
0000
0000
0004
480D
D804
4800
0000
000E
ENDCHAR
STARTCHAR char9195
ENCODING 9195
SWIDTH 613 0
DWIDTH 9 0
BBX 9 11 0 -1
BITMAP
0000
0000
0000
0000
0002
2007
7000
0002
2007
7000
000E
ENDCHAR
STARTCHAR char9196
ENCODING 9196
SWIDTH 613 0
DWIDTH 9 0
BBX 9 11 0 -1
BITMAP
0000
0000
0000
0000
0007
7002
2000
0007
7002
2000
000E
ENDCHAR
STARTCHAR char9199
ENCODING 9199
SWIDTH 613 0
DWIDTH 9 0
BBX 9 11 0 -1
BITMAP
0000
0000
0000
0000
0000
0009
980D
D809
9800
0000
000E
ENDCHAR
STARTCHAR char9200
ENCODING 9200
SWIDTH 613 0
DWIDTH 9 0
BBX 9 11 0 -1
BITMAP
0000
0000
0000
000D
D80F
F808
880A
A808
880F
F800
000E
ENDCHAR
STARTCHAR char9201
ENCODING 9201
SWIDTH 613 0
DWIDTH 9 0
BBX 9 11 0 -1
BITMAP
0000
0000
0000
0005
580F
F808
880A
A808
880F
F800
000E
ENDCHAR
STARTCHAR char9202
ENCODING 9202
SWIDTH 613 0
DWIDTH 9 0
BBX 9 11 0 -1
BITMAP
0000
0000
0000
000F
F808
880A
A80B
B808
880F
F800
000E
ENDCHAR
STARTCHAR char9203
ENCODING 9203
SWIDTH 613 0
DWIDTH 9 0
BBX 9 11 0 -1
BITMAP
0000
0000
0000
000F
F807
7005
5002
2007
7007
700F
F80E
ENDCHAR
STARTCHAR char9204
ENCODING 9204
SWIDTH 613 0
DWIDTH 9 0
BBX 9 11 0 -1
BITMAP
0000
0000
0000
0000
0001
1003
3007
7003
3001
1000
000E
ENDCHAR
STARTCHAR char9204
ENCODING 9205
SWIDTH 613 0
DWIDTH 9 0
BBX 9 11 0 -1
BITMAP
0000
0000
0000
0000
0004
4006
6007
7006
6004
4000
000E
ENDCHAR
STARTCHAR char9204
ENCODING 9206
SWIDTH 613 0
DWIDTH 9 0
BBX 9 11 0 -1
BITMAP
0000
0000
0000
0000
0000
0002
2007
700F
F800
0000
000E
ENDCHAR
STARTCHAR char9204
ENCODING 9207
SWIDTH 613 0
DWIDTH 9 0
BBX 9 11 0 -1
BITMAP
0000
0000
0000
0000
0000
000F
F807
7002
2000
0000
000E
ENDCHAR
STARTCHAR char9208
ENCODING 9208
SWIDTH 613 0
DWIDTH 9 0
BBX 9 11 0 -1
BITMAP
0000
0000
0000
0000
000D
D80D
D80D
D80D
D80D
D800
000E
ENDCHAR
STARTCHAR char9209
ENCODING 9209
SWIDTH 613 0
DWIDTH 9 0
BBX 9 11 0 -1
BITMAP
0000
0000
0000
0000
000F
F80F
F80F
F80F
F80F
F800
000E
ENDCHAR
STARTCHAR char9210
ENCODING 9210
SWIDTH 613 0
DWIDTH 9 0
BBX 9 11 0 -1
BITMAP
0000
0000
0000
0000
0007
700F
F80F
F80F
F807
7000
000E
ENDCHAR
STARTCHAR char9211
ENCODING 9211
SWIDTH 613 0
DWIDTH 9 0
BBX 9 11 0 -1
BITMAP
0000
0000
0000
0002
200A
A80A
A80A
A808
880F
F800
000E
ENDCHAR
STARTCHAR char9212
ENCODING 9212
SWIDTH 613 0
DWIDTH 9 0
BBX 9 11 0 -1
BITMAP
0000
0000
0000
000F
F808
880A
A80A
A808
880F
F800
000E
ENDCHAR
STARTCHAR char9213
ENCODING 9213
SWIDTH 613 0
DWIDTH 9 0
BBX 9 11 0 -1
BITMAP
0000
0000
0000
0002
2007
7007
7007
7007
7007
7002
200E
ENDCHAR
STARTCHAR char9214
ENCODING 9214
SWIDTH 613 0
DWIDTH 9 0
BBX 9 11 0 -1
BITMAP
0000
0000
0000
0000
0008
800C
C00C
C00F
F00F
F800
000E
ENDCHAR
STARTCHAR char9312
ENCODING 9312
SWIDTH 613 0
DWIDTH 9 0
BBX 9 11 0 -1
BITMAP
0000
0000
0000
000F
F80D
D809
980D
D80D
D80D
D80F
F80E
ENDCHAR
STARTCHAR char9313
ENCODING 9313
SWIDTH 613 0
DWIDTH 9 0
BBX 9 11 0 -1
BITMAP
0000
0000
0000
000F
F808
880E
E808
880B
B808
880F
F80E
ENDCHAR
STARTCHAR char9314
ENCODING 9314
SWIDTH 613 0
DWIDTH 9 0
BBX 9 11 0 -1
BITMAP
0000
0000
0000
000F
F808
880E
E808
880E
E808
880F
F80E
ENDCHAR
STARTCHAR char9315
ENCODING 9315
SWIDTH 613 0
DWIDTH 9 0
BBX 9 11 0 -1
BITMAP
0000
0000
0000
000F
F80A
A80A
A808
880E
E80E
E80F
F80E
ENDCHAR
STARTCHAR char9316
ENCODING 9316
SWIDTH 613 0
DWIDTH 9 0
BBX 9 11 0 -1
BITMAP
0000
0000
0000
000F
F808
880B
B808
880E
E808
880F
F80E
ENDCHAR
STARTCHAR char9317
ENCODING 9317
SWIDTH 613 0
DWIDTH 9 0
BBX 9 11 0 -1
BITMAP
0000
0000
0000
000F
F808
880B
B808
880A
A808
880F
F80E
ENDCHAR
STARTCHAR char9318
ENCODING 9318
SWIDTH 613 0
DWIDTH 9 0
BBX 9 11 0 -1
BITMAP
0000
0000
0000
000F
F808
880E
E80E
E80E
E80E
E80F
F80E
ENDCHAR
STARTCHAR char9319
ENCODING 9319
SWIDTH 613 0
DWIDTH 9 0
BBX 9 11 0 -1
BITMAP
0000
0000
0000
000F
F808
880A
A808
880A
A808
880F
F80E
ENDCHAR
STARTCHAR char9320
ENCODING 9320
SWIDTH 613 0
DWIDTH 9 0
BBX 9 11 0 -1
BITMAP
0000
0000
0000
000F
F808
880A
A808
880E
E808
880F
F80E
ENDCHAR
STARTCHAR char9321
ENCODING 9321
SWIDTH 613 0
DWIDTH 9 0
BBX 9 11 0 -1
BITMAP
0000
0000
0000
000F
F804
4005
5005
5005
5004
400F
F80E
ENDCHAR
STARTCHAR char9322
ENCODING 9322
SWIDTH 613 0
DWIDTH 9 0
BBX 9 11 0 -1
BITMAP
0000
0000
0000
000F
F80A
A80A
A80A
A80A
A80F
F800
000E
ENDCHAR
STARTCHAR char9472
ENCODING 9472
SWIDTH 613 0
DWIDTH 9 0
BBX 9 11 0 -1
BITMAP
0000
0000
0000
0000
0000
0000
000F
FC00
0000
0000
000E
ENDCHAR
STARTCHAR char9473
ENCODING 9473
SWIDTH 613 0
DWIDTH 9 0
BBX 9 11 0 -1
BITMAP
0000
0000
0000
0000
0000
000F
FC0F
FC00
0000
0000
000E
ENDCHAR
STARTCHAR char9474
ENCODING 9474
SWIDTH 613 0
DWIDTH 9 0
BBX 9 11 0 -1
BITMAP
0002
2002
2002
2002
2002
2002
2002
2002
2002
2002
200E
ENDCHAR
STARTCHAR char9475
ENCODING 9475
SWIDTH 613 0
DWIDTH 9 0
BBX 9 11 0 -1
BITMAP
0003
3003
3003
3003
3003
3003
3003
3003
3003
3003
300E
ENDCHAR
STARTCHAR char9476
ENCODING 9476
SWIDTH 613 0
DWIDTH 9 0
BBX 9 11 0 -1
BITMAP
0000
0000
0000
0000
0000
0000
000A
A800
0000
0000
000E
ENDCHAR
STARTCHAR char9477
ENCODING 9477
SWIDTH 613 0
DWIDTH 9 0
BBX 9 11 0 -1
BITMAP
0000
0000
0000
0000
0000
000A
A80A
A800
0000
0000
000E
ENDCHAR
STARTCHAR char9478
ENCODING 9478
SWIDTH 613 0
DWIDTH 9 0
BBX 9 11 0 -1
BITMAP
0002
2002
2002
2000
0002
2000
0002
2000
0002
2000
000E
ENDCHAR
STARTCHAR char9479
ENCODING 9479
SWIDTH 613 0
DWIDTH 9 0
BBX 9 11 0 -1
BITMAP
0003
3003
3003
3003
3003
3000
0003
3003
3003
3000
000E
ENDCHAR
STARTCHAR char9480
ENCODING 9480
SWIDTH 613 0
DWIDTH 9 0
BBX 9 11 0 -1
BITMAP
0000
0000
0000
0000
0000
0000
000A
A800
0000
0000
000E
ENDCHAR
STARTCHAR char9481
ENCODING 9481
SWIDTH 613 0
DWIDTH 9 0
BBX 9 11 0 -1
BITMAP
0000
0000
0000
0000
0000
000A
A80A
A800
0000
0000
000E
ENDCHAR
STARTCHAR char9482
ENCODING 9482
SWIDTH 613 0
DWIDTH 9 0
BBX 9 11 0 -1
BITMAP
0002
2002
2002
2000
0002
2000
0002
2000
0002
2000
000E
ENDCHAR
STARTCHAR char9483
ENCODING 9483
SWIDTH 613 0
DWIDTH 9 0
BBX 9 11 0 -1
BITMAP
0003
3003
3003
3000
0003
3000
0003
3000
0003
3000
000E
ENDCHAR
STARTCHAR char9484
ENCODING 9484
SWIDTH 613 0
DWIDTH 9 0
BBX 9 11 0 -1
BITMAP
0000
0000
0000
0000
0000
0000
0003
3C02
2002
2002
200E
ENDCHAR
STARTCHAR char9485
ENCODING 9485
SWIDTH 613 0
DWIDTH 9 0
BBX 9 11 0 -1
BITMAP
0000
0000
0000
0000
0000
0003
3C03
3C02
2002
2002
200E
ENDCHAR
STARTCHAR char9486
ENCODING 9486
SWIDTH 613 0
DWIDTH 9 0
BBX 9 11 0 -1
BITMAP
0000
0000
0000
0000
0000
0000
0003
3C03
3003
3003
300E
ENDCHAR
STARTCHAR char9487
ENCODING 9487
SWIDTH 613 0
DWIDTH 9 0
BBX 9 11 0 -1
BITMAP
0000
0000
0000
0000
0000
0003
3C03
3C03
3003
3003
300E
ENDCHAR
STARTCHAR char9488
ENCODING 9488
SWIDTH 613 0
DWIDTH 9 0
BBX 9 11 0 -1
BITMAP
0000
0000
0000
0000
0000
0000
000E
E002
2002
2002
200E
ENDCHAR
STARTCHAR char9489
ENCODING 9489
SWIDTH 613 0
DWIDTH 9 0
BBX 9 11 0 -1
BITMAP
0000
0000
0000
0000
0000
000E
E00E
E002
2002
2002
200E
ENDCHAR
STARTCHAR char9490
ENCODING 9490
SWIDTH 613 0
DWIDTH 9 0
BBX 9 11 0 -1
BITMAP
0000
0000
0000
0000
0000
0000
000F
F003
3003
3003
300E
ENDCHAR
STARTCHAR char9491
ENCODING 9491
SWIDTH 613 0
DWIDTH 9 0
BBX 9 11 0 -1
BITMAP
0000
0000
0000
0000
0000
000F
F00F
F003
3003
3003
300E
ENDCHAR
STARTCHAR char9492
ENCODING 9492
SWIDTH 613 0
DWIDTH 9 0
BBX 9 11 0 -1
BITMAP
0002
2002
2002
2002
2002
2002
2003
3C00
0000
0000
000E
ENDCHAR
STARTCHAR char9493
ENCODING 9493
SWIDTH 613 0
DWIDTH 9 0
BBX 9 11 0 -1
BITMAP
0002
2002
2002
2002
2002
2003
3C03
3C00
0000
0000
000E
ENDCHAR
STARTCHAR char9494
ENCODING 9494
SWIDTH 613 0
DWIDTH 9 0
BBX 9 11 0 -1
BITMAP
0003
3003
3003
3003
3003
3003
3003
3C00
0000
0000
000E
ENDCHAR
STARTCHAR char9495
ENCODING 9495
SWIDTH 613 0
DWIDTH 9 0
BBX 9 11 0 -1
BITMAP
0003
3003
3003
3003
3003
3003
3C03
3C00
0000
0000
000E
ENDCHAR
STARTCHAR char9496
ENCODING 9496
SWIDTH 613 0
DWIDTH 9 0
BBX 9 11 0 -1
BITMAP
0002
2002
2002
2002
2002
2002
200E
E000
0000
0000
000E
ENDCHAR
STARTCHAR char9497
ENCODING 9497
SWIDTH 613 0
DWIDTH 9 0
BBX 9 11 0 -1
BITMAP
0002
2002
2002
2002
2002
200E
E00E
E000
0000
0000
000E
ENDCHAR
STARTCHAR char9498
ENCODING 9498
SWIDTH 613 0
DWIDTH 9 0
BBX 9 11 0 -1
BITMAP
0003
3003
3003
3003
3003
3003
300F
F000
0000
0000
000E
ENDCHAR
STARTCHAR char9499
ENCODING 9499
SWIDTH 613 0
DWIDTH 9 0
BBX 9 11 0 -1
BITMAP
0003
3003
3003
3003
3003
300F
F00F
F000
0000
0000
000E
ENDCHAR
STARTCHAR char9500
ENCODING 9500
SWIDTH 613 0
DWIDTH 9 0
BBX 9 11 0 -1
BITMAP
0002
2002
2002
2002
2002
2002
2003
3C02
2002
2002
200E
ENDCHAR
STARTCHAR char9500
ENCODING 9501
SWIDTH 613 0
DWIDTH 9 0
BBX 9 11 0 -1
BITMAP
0002
2002
2002
2002
2002
2003
3C03
3C02
2002
2002
200E
ENDCHAR
STARTCHAR char9500
ENCODING 9502
SWIDTH 613 0
DWIDTH 9 0
BBX 9 11 0 -1
BITMAP
0003
3003
3003
3003
3003
3003
3003
3C02
2002
2002
200E
ENDCHAR
STARTCHAR char9500
ENCODING 9503
SWIDTH 613 0
DWIDTH 9 0
BBX 9 11 0 -1
BITMAP
0002
2002
2002
2002
2002
2002
2003
3C03
3003
3003
300E
ENDCHAR
STARTCHAR char9500
ENCODING 9504
SWIDTH 613 0
DWIDTH 9 0
BBX 9 11 0 -1
BITMAP
0003
3003
3003
3003
3003
3003
3003
3C03
3003
3003
300E
ENDCHAR
STARTCHAR char9500
ENCODING 9505
SWIDTH 613 0
DWIDTH 9 0
BBX 9 11 0 -1
BITMAP
0003
3003
3003
3003
3003
3003
3C03
3C02
2002
2002
200E
ENDCHAR
STARTCHAR char9500
ENCODING 9506
SWIDTH 613 0
DWIDTH 9 0
BBX 9 11 0 -1
BITMAP
0002
2002
2002
2002
2002
2003
3C03
3C03
3003
3003
300E
ENDCHAR
STARTCHAR char9500
ENCODING 9507
SWIDTH 613 0
DWIDTH 9 0
BBX 9 11 0 -1
BITMAP
0003
3003
3003
3003
3003
3003
3C03
3C03
3003
3003
300E
ENDCHAR
STARTCHAR char9508
ENCODING 9508
SWIDTH 613 0
DWIDTH 9 0
BBX 9 11 0 -1
BITMAP
0002
2002
2002
2002
2002
2002
200E
E002
2002
2002
200E
ENDCHAR
STARTCHAR char9508
ENCODING 9509
SWIDTH 613 0
DWIDTH 9 0
BBX 9 11 0 -1
BITMAP
0002
2002
2002
2002
2002
200E
E00E
E002
2002
2002
200E
ENDCHAR
STARTCHAR char9508
ENCODING 9510
SWIDTH 613 0
DWIDTH 9 0
BBX 9 11 0 -1
BITMAP
0003
3003
3003
3003
3003
3003
300F
F002
2002
2002
200E
ENDCHAR
STARTCHAR char9508
ENCODING 9511
SWIDTH 613 0
DWIDTH 9 0
BBX 9 11 0 -1
BITMAP
0002
2002
2002
2002
2002
2002
200F
F003
3003
3003
300E
ENDCHAR
STARTCHAR char9508
ENCODING 9512
SWIDTH 613 0
DWIDTH 9 0
BBX 9 11 0 -1
BITMAP
0003
3003
3003
3003
3003
3003
300F
F003
3003
3003
300E
ENDCHAR
STARTCHAR char9508
ENCODING 9513
SWIDTH 613 0
DWIDTH 9 0
BBX 9 11 0 -1
BITMAP
0003
3003
3003
3003
3003
300F
F00F
F002
2002
2002
200E
ENDCHAR
STARTCHAR char9508
ENCODING 9514
SWIDTH 613 0
DWIDTH 9 0
BBX 9 11 0 -1
BITMAP
0002
2002
2002
2002
2002
200F
F00F
F003
3003
3003
300E
ENDCHAR
STARTCHAR char9508
ENCODING 9515
SWIDTH 613 0
DWIDTH 9 0
BBX 9 11 0 -1
BITMAP
0003
3003
3003
3003
3003
300F
F00F
F003
3003
3003
300E
ENDCHAR
STARTCHAR char9515
ENCODING 9516
SWIDTH 613 0
DWIDTH 9 0
BBX 9 11 0 -1
BITMAP
0000
0000
0000
0000
0000
0000
000F
FC02
2002
2002
200E
ENDCHAR
STARTCHAR char9515
ENCODING 9517
SWIDTH 613 0
DWIDTH 9 0
BBX 9 11 0 -1
BITMAP
0000
0000
0000
0000
0000
000E
E00F
FC02
2002
2002
200E
ENDCHAR
STARTCHAR char9515
ENCODING 9518
SWIDTH 613 0
DWIDTH 9 0
BBX 9 11 0 -1
BITMAP
0000
0000
0000
0000
0000
0003
3C0F
FC02
2002
2002
200E
ENDCHAR
STARTCHAR char9515
ENCODING 9519
SWIDTH 613 0
DWIDTH 9 0
BBX 9 11 0 -1
BITMAP
0000
0000
0000
0000
0000
000F
FC0F
FC02
2002
2002
200E
ENDCHAR
STARTCHAR char9515
ENCODING 9520
SWIDTH 613 0
DWIDTH 9 0
BBX 9 11 0 -1
BITMAP
0000
0000
0000
0000
0000
0000
000F
FC03
3003
3003
300E
ENDCHAR
STARTCHAR char9515
ENCODING 9521
SWIDTH 613 0
DWIDTH 9 0
BBX 9 11 0 -1
BITMAP
0000
0000
0000
0000
0000
000F
F00F
FC03
3003
3003
300E
ENDCHAR
STARTCHAR char9515
ENCODING 9522
SWIDTH 613 0
DWIDTH 9 0
BBX 9 11 0 -1
BITMAP
0000
0000
0000
0000
0000
0003
3C0F
FC03
3003
3003
300E
ENDCHAR
STARTCHAR char9515
ENCODING 9523
SWIDTH 613 0
DWIDTH 9 0
BBX 9 11 0 -1
BITMAP
0000
0000
0000
0000
0000
000F
FC0F
FC03
3003
3003
300E
ENDCHAR
STARTCHAR char9524
ENCODING 9524
SWIDTH 613 0
DWIDTH 9 0
BBX 9 11 0 -1
BITMAP
0002
2002
2002
2002
2002
2002
200F
FC00
0000
0000
000E
ENDCHAR
STARTCHAR char9524
ENCODING 9525
SWIDTH 613 0
DWIDTH 9 0
BBX 9 11 0 -1
BITMAP
0002
2002
2002
2002
2002
200E
E00F
FC00
0000
0000
000E
ENDCHAR
STARTCHAR char9524
ENCODING 9526
SWIDTH 613 0
DWIDTH 9 0
BBX 9 11 0 -1
BITMAP
0002
2002
2002
2002
2002
2003
3C0F
FC00
0000
0000
000E
ENDCHAR
STARTCHAR char9524
ENCODING 9527
SWIDTH 613 0
DWIDTH 9 0
BBX 9 11 0 -1
BITMAP
0002
2002
2002
2002
2002
200F
FC0F
FC00
0000
0000
000E
ENDCHAR
STARTCHAR char9524
ENCODING 9528
SWIDTH 613 0
DWIDTH 9 0
BBX 9 11 0 -1
BITMAP
0003
3003
3003
3003
3003
3003
300F
FC00
0000
0000
000E
ENDCHAR
STARTCHAR char9524
ENCODING 9529
SWIDTH 613 0
DWIDTH 9 0
BBX 9 11 0 -1
BITMAP
0003
3003
3003
3003
3003
300F
F00F
FC00
0000
0000
000E
ENDCHAR
STARTCHAR char9524
ENCODING 9530
SWIDTH 613 0
DWIDTH 9 0
BBX 9 11 0 -1
BITMAP
0003
3003
3003
3003
3003
3003
3C0F
FC00
0000
0000
000E
ENDCHAR
STARTCHAR char9524
ENCODING 9531
SWIDTH 613 0
DWIDTH 9 0
BBX 9 11 0 -1
BITMAP
0003
3003
3003
3003
3003
300F
FC0F
FC00
0000
0000
000E
ENDCHAR
STARTCHAR char9532
ENCODING 9532
SWIDTH 613 0
DWIDTH 9 0
BBX 9 11 0 -1
BITMAP
0002
2002
2002
2002
2002
2002
200F
FC02
2002
2002
200E
ENDCHAR
STARTCHAR char9532
ENCODING 9533
SWIDTH 613 0
DWIDTH 9 0
BBX 9 11 0 -1
BITMAP
0002
2002
2002
2002
2002
200E
E00F
FC02
2002
2002
200E
ENDCHAR
STARTCHAR char9532
ENCODING 9534
SWIDTH 613 0
DWIDTH 9 0
BBX 9 11 0 -1
BITMAP
0002
2002
2002
2002
2002
2003
3C0F
FC02
2002
2002
200E
ENDCHAR
STARTCHAR char9532
ENCODING 9535
SWIDTH 613 0
DWIDTH 9 0
BBX 9 11 0 -1
BITMAP
0002
2002
2002
2002
2002
200F
FC0F
FC02
2002
2002
200E
ENDCHAR
STARTCHAR char9532
ENCODING 9536
SWIDTH 613 0
DWIDTH 9 0
BBX 9 11 0 -1
BITMAP
0003
3003
3003
3003
3003
3003
300F
FC02
2002
2002
200E
ENDCHAR
STARTCHAR char9532
ENCODING 9537
SWIDTH 613 0
DWIDTH 9 0
BBX 9 11 0 -1
BITMAP
0002
2002
2002
2002
2002
2002
200F
FC03
3003
3003
300E
ENDCHAR
STARTCHAR char9532
ENCODING 9538
SWIDTH 613 0
DWIDTH 9 0
BBX 9 11 0 -1
BITMAP
0003
3003
3003
3003
3003
3003
300F
FC03
3003
3003
300E
ENDCHAR
STARTCHAR char9532
ENCODING 9539
SWIDTH 613 0
DWIDTH 9 0
BBX 9 11 0 -1
BITMAP
0003
3003
3003
3003
3003
300F
F00F
FC02
2002
2002
200E
ENDCHAR
STARTCHAR char9532
ENCODING 9540
SWIDTH 613 0
DWIDTH 9 0
BBX 9 11 0 -1
BITMAP
0003
3003
3003
3003
3003
3003
3C0F
FC02
2002
2002
200E
ENDCHAR
STARTCHAR char9532
ENCODING 9541
SWIDTH 613 0
DWIDTH 9 0
BBX 9 11 0 -1
BITMAP
0002
2002
2002
2002
2002
2002
200F
FC0F
F003
3003
300E
ENDCHAR
STARTCHAR char9532
ENCODING 9542
SWIDTH 613 0
DWIDTH 9 0
BBX 9 11 0 -1
BITMAP
0002
2002
2002
2002
2002
2002
200F
FC03
3C03
3003
300E
ENDCHAR
STARTCHAR char9532
ENCODING 9543
SWIDTH 613 0
DWIDTH 9 0
BBX 9 11 0 -1
BITMAP
0003
3003
3003
3003
3003
300F
FC0F
FC02
2002
2002
200E
ENDCHAR
STARTCHAR char9532
ENCODING 9544
SWIDTH 613 0
DWIDTH 9 0
BBX 9 11 0 -1
BITMAP
0002
2002
2002
2002
2002
200F
FC0F
FC03
3003
3003
300E
ENDCHAR
STARTCHAR char9532
ENCODING 9545
SWIDTH 613 0
DWIDTH 9 0
BBX 9 11 0 -1
BITMAP
0003
3003
3003
3003
3003
300F
F00F
FC03
3003
3003
300E
ENDCHAR
STARTCHAR char9532
ENCODING 9546
SWIDTH 613 0
DWIDTH 9 0
BBX 9 11 0 -1
BITMAP
0003
3003
3003
3003
3003
3003
3C0F
FC03
3003
3003
300E
ENDCHAR
STARTCHAR char9532
ENCODING 9547
SWIDTH 613 0
DWIDTH 9 0
BBX 9 11 0 -1
BITMAP
0003
3003
3003
3003
3003
300F
FC0F
FC03
3003
3003
300E
ENDCHAR
STARTCHAR char9548
ENCODING 9548
SWIDTH 613 0
DWIDTH 9 0
BBX 9 11 0 -1
BITMAP
0000
0000
0000
0000
0000
0000
000E
EC00
0000
0000
000E
ENDCHAR
STARTCHAR char9549
ENCODING 9549
SWIDTH 613 0
DWIDTH 9 0
BBX 9 11 0 -1
BITMAP
0000
0000
0000
0000
0000
000E
EC0E
EC00
0000
0000
000E
ENDCHAR
STARTCHAR char9550
ENCODING 9550
SWIDTH 613 0
DWIDTH 9 0
BBX 9 11 0 -1
BITMAP
0002
2002
2002
2002
2002
2000
0002
2002
2002
2000
000E
ENDCHAR
STARTCHAR char9551
ENCODING 9551
SWIDTH 613 0
DWIDTH 9 0
BBX 9 11 0 -1
BITMAP
0003
3003
3003
3003
3003
3000
0003
3003
3003
3000
000E
ENDCHAR
STARTCHAR char9552
ENCODING 9552
SWIDTH 613 0
DWIDTH 9 0
BBX 9 11 0 -1
BITMAP
0000
0000
0000
0000
0000
000F
FC00
000F
FC00
0000
000E
ENDCHAR
STARTCHAR char9553
ENCODING 9553
SWIDTH 613 0
DWIDTH 9 0
BBX 9 11 0 -1
BITMAP
0005
5005
5005
5005
5005
5005
5005
5005
5005
5005
500E
ENDCHAR
STARTCHAR char9554
ENCODING 9554
SWIDTH 613 0
DWIDTH 9 0
BBX 9 11 0 -1
BITMAP
0000
0000
0000
0000
0000
0003
3C02
2003
3C02
2002
200E
ENDCHAR
STARTCHAR char9555
ENCODING 9555
SWIDTH 613 0
DWIDTH 9 0
BBX 9 11 0 -1
BITMAP
0000
0000
0000
0000
0000
0000
0007
7C05
5005
5005
500E
ENDCHAR
STARTCHAR char9556
ENCODING 9556
SWIDTH 613 0
DWIDTH 9 0
BBX 9 11 0 -1
BITMAP
0000
0000
0000
0000
0000
0007
7C04
4005
5C05
5005
500E
ENDCHAR
STARTCHAR char9554
ENCODING 9557
SWIDTH 613 0
DWIDTH 9 0
BBX 9 11 0 -1
BITMAP
0000
0000
0000
0000
0000
000E
E002
200E
E002
2002
200E
ENDCHAR
STARTCHAR char9555
ENCODING 9558
SWIDTH 613 0
DWIDTH 9 0
BBX 9 11 0 -1
BITMAP
0000
0000
0000
0000
0000
0000
000F
F005
5005
5005
500E
ENDCHAR
STARTCHAR char9556
ENCODING 9559
SWIDTH 613 0
DWIDTH 9 0
BBX 9 11 0 -1
BITMAP
0000
0000
0000
0000
0000
000F
F001
100D
D005
5005
500E
ENDCHAR
STARTCHAR char9560
ENCODING 9560
SWIDTH 613 0
DWIDTH 9 0
BBX 9 11 0 -1
BITMAP
0002
2002
2002
2002
2002
2003
3C02
2003
3C00
0000
000E
ENDCHAR
STARTCHAR char9561
ENCODING 9561
SWIDTH 613 0
DWIDTH 9 0
BBX 9 11 0 -1
BITMAP
0005
5005
5005
5005
5005
5005
5007
7C00
0000
0000
000E
ENDCHAR
STARTCHAR char9562
ENCODING 9562
SWIDTH 613 0
DWIDTH 9 0
BBX 9 11 0 -1
BITMAP
0005
5005
5005
5005
5005
5005
5C04
4007
7C00
0000
000E
ENDCHAR
STARTCHAR char9563
ENCODING 9563
SWIDTH 613 0
DWIDTH 9 0
BBX 9 11 0 -1
BITMAP
0002
2002
2002
2002
2002
200E
E002
200E
E000
0000
000E
ENDCHAR
STARTCHAR char9564
ENCODING 9564
SWIDTH 613 0
DWIDTH 9 0
BBX 9 11 0 -1
BITMAP
0005
5005
5005
5005
5005
5005
500F
F000
0000
0000
000E
ENDCHAR
STARTCHAR char9565
ENCODING 9565
SWIDTH 613 0
DWIDTH 9 0
BBX 9 11 0 -1
BITMAP
0002
2802
2802
2802
2802
280E
E800
080F
F800
0000
000E
ENDCHAR
STARTCHAR char9566
ENCODING 9566
SWIDTH 613 0
DWIDTH 9 0
BBX 9 11 0 -1
BITMAP
0002
2002
2002
2002
2002
2003
3C02
2003
3C02
2002
200E
ENDCHAR
STARTCHAR char9567
ENCODING 9567
SWIDTH 613 0
DWIDTH 9 0
BBX 9 11 0 -1
BITMAP
0005
5005
5005
5005
5005
5005
5005
5C05
5005
5005
500E
ENDCHAR
STARTCHAR char9568
ENCODING 9568
SWIDTH 613 0
DWIDTH 9 0
BBX 9 11 0 -1
BITMAP
0005
5005
5005
5005
5005
5005
5C04
4005
5C05
5005
500E
ENDCHAR
STARTCHAR char9569
ENCODING 9569
SWIDTH 613 0
DWIDTH 9 0
BBX 9 11 0 -1
BITMAP
0002
2002
2002
2002
2002
200E
E002
200E
E002
2002
200E
ENDCHAR
STARTCHAR char9570
ENCODING 9570
SWIDTH 613 0
DWIDTH 9 0
BBX 9 11 0 -1
BITMAP
0005
5005
5005
5005
5005
5005
500D
D005
5005
5005
500E
ENDCHAR
STARTCHAR char9571
ENCODING 9571
SWIDTH 613 0
DWIDTH 9 0
BBX 9 11 0 -1
BITMAP
0005
5005
5005
5005
5005
500D
D001
100D
D005
5005
500E
ENDCHAR
STARTCHAR char9572
ENCODING 9572
SWIDTH 613 0
DWIDTH 9 0
BBX 9 11 0 -1
BITMAP
0000
0000
0000
0000
0000
000F
FC00
000F
FC02
2002
200E
ENDCHAR
STARTCHAR char9573
ENCODING 9573
SWIDTH 613 0
DWIDTH 9 0
BBX 9 11 0 -1
BITMAP
0000
0000
0000
0000
0000
0000
000F
FC05
5005
5005
500E
ENDCHAR
STARTCHAR char9574
ENCODING 9574
SWIDTH 613 0
DWIDTH 9 0
BBX 9 11 0 -1
BITMAP
0000
0000
0000
0000
0000
000F
FC00
000D
DC05
5005
500E
ENDCHAR
STARTCHAR char9575
ENCODING 9575
SWIDTH 613 0
DWIDTH 9 0
BBX 9 11 0 -1
BITMAP
0002
2002
2002
2002
2002
200F
FC00
000F
FC00
0000
000E
ENDCHAR
STARTCHAR char9576
ENCODING 9576
SWIDTH 613 0
DWIDTH 9 0
BBX 9 11 0 -1
BITMAP
0005
5005
5005
5005
5005
5005
500F
FC00
0000
0000
000E
ENDCHAR
STARTCHAR char9577
ENCODING 9577
SWIDTH 613 0
DWIDTH 9 0
BBX 9 11 0 -1
BITMAP
0005
5005
5005
5005
5005
500D
DC00
000F
FC00
0000
000E
ENDCHAR
STARTCHAR char9578
ENCODING 9578
SWIDTH 613 0
DWIDTH 9 0
BBX 9 11 0 -1
BITMAP
0002
2002
2002
2002
2002
200F
FC00
000F
FC02
2002
200E
ENDCHAR
STARTCHAR char9579
ENCODING 9579
SWIDTH 613 0
DWIDTH 9 0
BBX 9 11 0 -1
BITMAP
0005
5005
5005
5005
5005
5005
500D
DC05
5005
5005
500E
ENDCHAR
STARTCHAR char9580
ENCODING 9580
SWIDTH 613 0
DWIDTH 9 0
BBX 9 11 0 -1
BITMAP
0005
5005
5005
5005
5005
500D
DC00
000D
DC05
5005
500E
ENDCHAR
STARTCHAR char9581
ENCODING 9581
SWIDTH 613 0
DWIDTH 9 0
BBX 9 11 0 -1
BITMAP
0000
0000
0000
0000
0000
0000
0001
1C03
3002
2002
200E
ENDCHAR
STARTCHAR char9582
ENCODING 9582
SWIDTH 613 0
DWIDTH 9 0
BBX 9 11 0 -1
BITMAP
0000
0000
0000
0000
0000
0000
000C
C006
6002
2002
200E
ENDCHAR
STARTCHAR char9583
ENCODING 9583
SWIDTH 613 0
DWIDTH 9 0
BBX 9 11 0 -1
BITMAP
0002
2002
2002
2002
2002
2006
600C
C000
0000
0000
000E
ENDCHAR
STARTCHAR char9584
ENCODING 9584
SWIDTH 613 0
DWIDTH 9 0
BBX 9 11 0 -1
BITMAP
0002
2002
2002
2002
2002
2003
3001
1C00
0000
0000
000E
ENDCHAR
STARTCHAR char9585
ENCODING 9585
SWIDTH 613 0
DWIDTH 9 0
BBX 9 11 0 -1
BITMAP
0000
0400
0400
0400
0403
3C02
2002
2002
200E
E008
800E
ENDCHAR
STARTCHAR char9585
ENCODING 9586
SWIDTH 613 0
DWIDTH 9 0
BBX 9 11 0 -1
BITMAP
0008
8008
8008
800E
E002
2002
2002
2003
3C00
0400
040E
ENDCHAR
STARTCHAR char9585
ENCODING 9587
SWIDTH 613 0
DWIDTH 9 0
BBX 9 11 0 -1
BITMAP
0008
8408
8408
840E
E403
3C02
2002
2003
3C0E
E408
840E
ENDCHAR
STARTCHAR char9588
ENCODING 9588
SWIDTH 613 0
DWIDTH 9 0
BBX 9 11 0 -1
BITMAP
0000
0000
0000
0000
0000
0000
000E
E000
0000
0000
000E
ENDCHAR
STARTCHAR char9589
ENCODING 9589
SWIDTH 613 0
DWIDTH 9 0
BBX 9 11 0 -1
BITMAP
0002
2002
2002
2002
2002
2002
2002
2000
0000
0000
000E
ENDCHAR
STARTCHAR char9590
ENCODING 9590
SWIDTH 613 0
DWIDTH 9 0
BBX 9 11 0 -1
BITMAP
0000
0000
0000
0000
0000
0000
0003
3C00
0000
0000
000E
ENDCHAR
STARTCHAR char9591
ENCODING 9591
SWIDTH 613 0
DWIDTH 9 0
BBX 9 11 0 -1
BITMAP
0000
0000
0000
0000
0000
0000
0002
2002
2002
2002
200E
ENDCHAR
STARTCHAR char9592
ENCODING 9592
SWIDTH 613 0
DWIDTH 9 0
BBX 9 11 0 -1
BITMAP
0000
0000
0000
0000
0000
000E
E00E
E000
0000
0000
000E
ENDCHAR
STARTCHAR char9593
ENCODING 9593
SWIDTH 613 0
DWIDTH 9 0
BBX 9 11 0 -1
BITMAP
0003
3003
3003
3003
3003
3003
3003
3000
0000
0000
000E
ENDCHAR
STARTCHAR char9594
ENCODING 9594
SWIDTH 613 0
DWIDTH 9 0
BBX 9 11 0 -1
BITMAP
0000
0000
0000
0000
0000
0003
3C03
3C00
0000
0000
000E
ENDCHAR
STARTCHAR char9595
ENCODING 9595
SWIDTH 613 0
DWIDTH 9 0
BBX 9 11 0 -1
BITMAP
0000
0000
0000
0000
0000
0000
0003
3003
3003
3003
300E
ENDCHAR
STARTCHAR char9596
ENCODING 9596
SWIDTH 613 0
DWIDTH 9 0
BBX 9 11 0 -1
BITMAP
0000
0000
0000
0000
0000
0001
1C0F
FC00
0000
0000
000E
ENDCHAR
STARTCHAR char9597
ENCODING 9597
SWIDTH 613 0
DWIDTH 9 0
BBX 9 11 0 -1
BITMAP
0001
1001
1001
1001
1001
1001
1003
3003
3003
3003
300E
ENDCHAR
STARTCHAR char9598
ENCODING 9598
SWIDTH 613 0
DWIDTH 9 0
BBX 9 11 0 -1
BITMAP
0000
0000
0000
0000
0000
000E
E00F
FC00
0000
0000
000E
ENDCHAR
STARTCHAR char9599
ENCODING 9599
SWIDTH 613 0
DWIDTH 9 0
BBX 9 11 0 -1
BITMAP
0003
3003
3003
3003
3003
3003
3002
2002
2002
2002
200E
ENDCHAR
STARTCHAR char9600
ENCODING 9600
SWIDTH 613 0
DWIDTH 9 0
BBX 9 11 0 -1
BITMAP
000F
FC0F
FC0F
FC0F
FC0F
FC0F
FC00
0000
0000
0000
000E
ENDCHAR
STARTCHAR char9601
ENCODING 9601
SWIDTH 613 0
DWIDTH 9 0
BBX 9 11 0 -1
BITMAP
0000
0000
0000
0000
0000
0000
0000
0000
0000
000F
FC0E
ENDCHAR
STARTCHAR char9602
ENCODING 9602
SWIDTH 613 0
DWIDTH 9 0
BBX 9 11 0 -1
BITMAP
0000
0000
0000
0000
0000
0000
0000
0000
000F
FC0F
FC0E
ENDCHAR
STARTCHAR char9603
ENCODING 9603
SWIDTH 613 0
DWIDTH 9 0
BBX 9 11 0 -1
BITMAP
0000
0000
0000
0000
0000
0000
0000
000F
FC0F
FC0F
FC0E
ENDCHAR
STARTCHAR char9604
ENCODING 9604
SWIDTH 613 0
DWIDTH 9 0
BBX 9 11 0 -1
BITMAP
0000
0000
0000
0000
0000
0000
000F
FC0F
FC0F
FC0F
FC0E
ENDCHAR
STARTCHAR char9605
ENCODING 9605
SWIDTH 613 0
DWIDTH 9 0
BBX 9 11 0 -1
BITMAP
0000
0000
0000
0000
0000
000F
FC0F
FC0F
FC0F
FC0F
FC0E
ENDCHAR
STARTCHAR char9606
ENCODING 9606
SWIDTH 613 0
DWIDTH 9 0
BBX 9 11 0 -1
BITMAP
0000
0000
0000
0000
000F
FC0F
FC0F
FC0F
FC0F
FC0F
FC0E
ENDCHAR
STARTCHAR char9607
ENCODING 9607
SWIDTH 613 0
DWIDTH 9 0
BBX 9 11 0 -1
BITMAP
0000
0000
0000
000F
FC0F
FC0F
FC0F
FC0F
FC0F
FC0F
FC0E
ENDCHAR
STARTCHAR char9608
ENCODING 9608
SWIDTH 613 0
DWIDTH 9 0
BBX 9 11 0 -1
BITMAP
000F
FC0F
FC0F
FC0F
FC0F
FC0F
FC0F
FC0F
FC0F
FC0F
FC0E
ENDCHAR
STARTCHAR char9615
ENCODING 9609
SWIDTH 613 0
DWIDTH 9 0
BBX 9 11 0 -1
BITMAP
000F
F80F
F80F
F80F
F80F
F80F
F80F
F80F
F80F
F80F
F80E
ENDCHAR
STARTCHAR char9614
ENCODING 9610
SWIDTH 613 0
DWIDTH 9 0
BBX 9 11 0 -1
BITMAP
000F
F00F
F00F
F00F
F00F
F00F
F00F
F00F
F00F
F00F
F00E
ENDCHAR
STARTCHAR char9613
ENCODING 9611
SWIDTH 613 0
DWIDTH 9 0
BBX 9 11 0 -1
BITMAP
000F
F00F
F00F
F00F
F00F
F00F
F00F
F00F
F00F
F00F
F00E
ENDCHAR
STARTCHAR char9612
ENCODING 9612
SWIDTH 613 0
DWIDTH 9 0
BBX 9 11 0 -1
BITMAP
000E
E00E
E00E
E00E
E00E
E00E
E00E
E00E
E00E
E00E
E00E
ENDCHAR
STARTCHAR char9611
ENCODING 9613
SWIDTH 613 0
DWIDTH 9 0
BBX 9 11 0 -1
BITMAP
000C
C00C
C00C
C00C
C00C
C00C
C00C
C00C
C00C
C00C
C00E
ENDCHAR
STARTCHAR char9610
ENCODING 9614
SWIDTH 613 0
DWIDTH 9 0
BBX 9 11 0 -1
BITMAP
000C
C00C
C00C
C00C
C00C
C00C
C00C
C00C
C00C
C00C
C00E
ENDCHAR
STARTCHAR char9609
ENCODING 9615
SWIDTH 613 0
DWIDTH 9 0
BBX 9 11 0 -1
BITMAP
0008
8008
8008
8008
8008
8008
8008
8008
8008
8008
800E
ENDCHAR
STARTCHAR char9609
ENCODING 9616
SWIDTH 613 0
DWIDTH 9 0
BBX 9 11 0 -1
BITMAP
0001
1C01
1C01
1C01
1C01
1C01
1C01
1C01
1C01
1C01
1C0E
ENDCHAR
STARTCHAR char9610
ENCODING 9617
SWIDTH 613 0
DWIDTH 9 0
BBX 9 11 0 -1
BITMAP
0000
0000
0000
000A
A800
000A
A800
000A
A800
000A
A80E
ENDCHAR
STARTCHAR char9611
ENCODING 9618
SWIDTH 613 0
DWIDTH 9 0
BBX 9 11 0 -1
BITMAP
0005
5405
5405
540A
A805
540A
A805
540A
A805
540A
A80E
ENDCHAR
STARTCHAR char9612
ENCODING 9619
SWIDTH 613 0
DWIDTH 9 0
BBX 9 11 0 -1
BITMAP
000A
A80A
A80A
A80F
FC0A
A80F
FC0A
A80F
FC0A
A80F
FC0E
ENDCHAR
STARTCHAR char9613
ENCODING 9620
SWIDTH 613 0
DWIDTH 9 0
BBX 9 11 0 -1
BITMAP
000F
FC0F
FC0F
FC00
0000
0000
0000
0000
0000
0000
000E
ENDCHAR
STARTCHAR char9614
ENCODING 9621
SWIDTH 613 0
DWIDTH 9 0
BBX 9 11 0 -1
BITMAP
0000
0400
0400
0400
0400
0400
0400
0400
0400
0400
040E
ENDCHAR
STARTCHAR char9615
ENCODING 9622
SWIDTH 613 0
DWIDTH 9 0
BBX 9 11 0 -1
BITMAP
0000
0000
0000
0000
0000
0000
000E
E00E
E00E
E00E
E00E
ENDCHAR
STARTCHAR char9623
ENCODING 9623
SWIDTH 613 0
DWIDTH 9 0
BBX 9 11 0 -1
BITMAP
0000
0000
0000
0000
0000
0000
0001
1C01
1C01
1C01
1C0E
ENDCHAR
STARTCHAR char9624
ENCODING 9624
SWIDTH 613 0
DWIDTH 9 0
BBX 9 11 0 -1
BITMAP
000E
E00E
E00E
E00E
E00E
E00E
E000
0000
0000
0000
000E
ENDCHAR
STARTCHAR char9625
ENCODING 9625
SWIDTH 613 0
DWIDTH 9 0
BBX 9 11 0 -1
BITMAP
000E
E00E
E00E
E00E
E00E
E00E
E00F
FC0F
FC0F
FC0F
FC0E
ENDCHAR
STARTCHAR char9626
ENCODING 9626
SWIDTH 613 0
DWIDTH 9 0
BBX 9 11 0 -1
BITMAP
000E
E00E
E00E
E00E
E00E
E00E
E001
1C01
1C01
1C01
1C0E
ENDCHAR
STARTCHAR char9627
ENCODING 9627
SWIDTH 613 0
DWIDTH 9 0
BBX 9 11 0 -1
BITMAP
000F
FC0F
FC0F
FC0F
FC0F
FC0F
FC0E
E00E
E00E
E00E
E00E
ENDCHAR
STARTCHAR char9628
ENCODING 9628
SWIDTH 613 0
DWIDTH 9 0
BBX 9 11 0 -1
BITMAP
000F
FC0F
FC0F
FC0F
FC0F
FC0F
FC01
1C01
1C01
1C01
1C0E
ENDCHAR
STARTCHAR char9629
ENCODING 9629
SWIDTH 613 0
DWIDTH 9 0
BBX 9 11 0 -1
BITMAP
0001
1C01
1C01
1C01
1C01
1C01
1C00
0000
0000
0000
000E
ENDCHAR
STARTCHAR char9630
ENCODING 9630
SWIDTH 613 0
DWIDTH 9 0
BBX 9 11 0 -1
BITMAP
0001
1C01
1C01
1C01
1C01
1C01
1C0E
E00E
E00E
E00E
E00E
ENDCHAR
STARTCHAR char9631
ENCODING 9631
SWIDTH 613 0
DWIDTH 9 0
BBX 9 11 0 -1
BITMAP
0001
1C01
1C01
1C01
1C01
1C01
1C0F
FC0F
FC0F
FC0F
FC0E
ENDCHAR
STARTCHAR char9632
ENCODING 9632
SWIDTH 613 0
DWIDTH 9 0
BBX 9 11 0 -1
BITMAP
0000
0000
0000
0000
000F
F80F
F80F
F80F
F80F
F800
000E
ENDCHAR
STARTCHAR char9633
ENCODING 9633
SWIDTH 613 0
DWIDTH 9 0
BBX 9 11 0 -1
BITMAP
0000
0000
0000
0000
000F
F808
8808
8808
880F
F800
000E
ENDCHAR
STARTCHAR char9634
ENCODING 9634
SWIDTH 613 0
DWIDTH 9 0
BBX 9 11 0 -1
BITMAP
0000
0000
0000
0000
0007
7008
8808
8808
8807
7000
000E
ENDCHAR
STARTCHAR char9635
ENCODING 9635
SWIDTH 613 0
DWIDTH 9 0
BBX 9 11 0 -1
BITMAP
0000
0000
0000
0000
000F
F808
880A
A808
880F
F800
000E
ENDCHAR
STARTCHAR char9636
ENCODING 9636
SWIDTH 613 0
DWIDTH 9 0
BBX 9 11 0 -1
BITMAP
0000
0000
0000
0000
000F
F808
880F
F808
880F
F800
000E
ENDCHAR
STARTCHAR char9636
ENCODING 9637
SWIDTH 613 0
DWIDTH 9 0
BBX 9 11 0 -1
BITMAP
0000
0000
0000
0000
000F
F80A
A80A
A80A
A80F
F800
000E
ENDCHAR
STARTCHAR char9636
ENCODING 9638
SWIDTH 613 0
DWIDTH 9 0
BBX 9 11 0 -1
BITMAP
0000
0000
0000
0000
000F
F80A
A80F
F80A
A80F
F800
000E
ENDCHAR
STARTCHAR char9636
ENCODING 9639
SWIDTH 613 0
DWIDTH 9 0
BBX 9 11 0 -1
BITMAP
0000
0000
0000
0000
000F
F80C
C80A
A809
980F
F800
000E
ENDCHAR
STARTCHAR char9636
ENCODING 9640
SWIDTH 613 0
DWIDTH 9 0
BBX 9 11 0 -1
BITMAP
0000
0000
0000
0000
000F
F809
980A
A80C
C80F
F800
000E
ENDCHAR
STARTCHAR char9636
ENCODING 9641
SWIDTH 613 0
DWIDTH 9 0
BBX 9 11 0 -1
BITMAP
0000
0000
0000
0000
000F
F80D
D80A
A80D
D80F
F800
000E
ENDCHAR
STARTCHAR char9642
ENCODING 9642
SWIDTH 613 0
DWIDTH 9 0
BBX 9 11 0 -1
BITMAP
0000
0000
0000
0000
0000
0007
7007
7007
7000
0000
000E
ENDCHAR
STARTCHAR char9643
ENCODING 9643
SWIDTH 613 0
DWIDTH 9 0
BBX 9 11 0 -1
BITMAP
0000
0000
0000
0000
0000
0007
7005
5007
7000
0000
000E
ENDCHAR
STARTCHAR char9644
ENCODING 9644
SWIDTH 613 0
DWIDTH 9 0
BBX 9 11 0 -1
BITMAP
0000
0000
0000
0000
0000
000F
F80F
F80F
F800
0000
000E
ENDCHAR
STARTCHAR char9645
ENCODING 9645
SWIDTH 613 0
DWIDTH 9 0
BBX 9 11 0 -1
BITMAP
0000
0000
0000
0000
0000
000F
F808
880F
F800
0000
000E
ENDCHAR
STARTCHAR char9646
ENCODING 9646
SWIDTH 613 0
DWIDTH 9 0
BBX 9 11 0 -1
BITMAP
0000
0000
0000
0000
0007
7007
7007
7007
7007
7000
000E
ENDCHAR
STARTCHAR char9647
ENCODING 9647
SWIDTH 613 0
DWIDTH 9 0
BBX 9 11 0 -1
BITMAP
0000
0000
0000
0000
0007
7005
5005
5005
5007
7000
000E
ENDCHAR
STARTCHAR char9648
ENCODING 9648
SWIDTH 613 0
DWIDTH 9 0
BBX 9 11 0 -1
BITMAP
0000
0000
0000
0000
0000
0000
0007
780F
F80F
F000
000E
ENDCHAR
STARTCHAR char9649
ENCODING 9649
SWIDTH 613 0
DWIDTH 9 0
BBX 9 11 0 -1
BITMAP
0000
0000
0000
0000
0000
0000
0007
7808
880F
F000
000E
ENDCHAR
STARTCHAR char9650
ENCODING 9650
SWIDTH 613 0
DWIDTH 9 0
BBX 9 11 0 -1
BITMAP
0000
0000
0000
0000
0002
2007
7007
700F
F80F
F800
000E
ENDCHAR
STARTCHAR char9650
ENCODING 9651
SWIDTH 613 0
DWIDTH 9 0
BBX 9 11 0 -1
BITMAP
0000
0000
0000
0000
0002
2005
5005
5008
880F
F800
000E
ENDCHAR
STARTCHAR char9652
ENCODING 9652
SWIDTH 613 0
DWIDTH 9 0
BBX 9 11 0 -1
BITMAP
0000
0000
0000
0000
0000
0002
2007
7007
7000
0000
000E
ENDCHAR
STARTCHAR char9653
ENCODING 9653
SWIDTH 613 0
DWIDTH 9 0
BBX 9 11 0 -1
BITMAP
0000
0000
0000
0000
0000
0002
2005
5007
7000
0000
000E
ENDCHAR
STARTCHAR char9654
ENCODING 9654
SWIDTH 613 0
DWIDTH 9 0
BBX 9 11 0 -1
BITMAP
0000
0000
0000
0000
000C
C00F
F00F
F80F
F00C
C000
000E
ENDCHAR
STARTCHAR char9654
ENCODING 9655
SWIDTH 613 0
DWIDTH 9 0
BBX 9 11 0 -1
BITMAP
0000
0000
0000
0000
000C
C00B
B008
880B
B00C
C000
000E
ENDCHAR
STARTCHAR char9656
ENCODING 9656
SWIDTH 613 0
DWIDTH 9 0
BBX 9 11 0 -1
BITMAP
0000
0000
0000
0000
0000
0006
6007
7006
6000
0000
000E
ENDCHAR
STARTCHAR char9657
ENCODING 9657
SWIDTH 613 0
DWIDTH 9 0
BBX 9 11 0 -1
BITMAP
0000
0000
0000
0000
0000
0006
6005
5006
6000
0000
000E
ENDCHAR
STARTCHAR char9658
ENCODING 9658
SWIDTH 613 0
DWIDTH 9 0
BBX 9 11 0 -1
BITMAP
0000
0000
0000
0000
0000
000E
E00F
F80E
E000
0000
000E
ENDCHAR
STARTCHAR char9659
ENCODING 9659
SWIDTH 613 0
DWIDTH 9 0
BBX 9 11 0 -1
BITMAP
0000
0000
0000
0000
0000
000E
E009
980E
E000
0000
000E
ENDCHAR
STARTCHAR char9650
ENCODING 9660
SWIDTH 613 0
DWIDTH 9 0
BBX 9 11 0 -1
BITMAP
0000
0000
0000
0000
000F
F80F
F807
7007
7002
2000
000E
ENDCHAR
STARTCHAR char9650
ENCODING 9661
SWIDTH 613 0
DWIDTH 9 0
BBX 9 11 0 -1
BITMAP
0000
0000
0000
0000
000F
F808
8805
5005
5002
2000
000E
ENDCHAR
STARTCHAR char9652
ENCODING 9662
SWIDTH 613 0
DWIDTH 9 0
BBX 9 11 0 -1
BITMAP
0000
0000
0000
0000
0000
0007
7007
7002
2000
0000
000E
ENDCHAR
STARTCHAR char9653
ENCODING 9663
SWIDTH 613 0
DWIDTH 9 0
BBX 9 11 0 -1
BITMAP
0000
0000
0000
0000
0000
0007
7005
5002
2000
0000
000E
ENDCHAR
STARTCHAR char9654
ENCODING 9664
SWIDTH 613 0
DWIDTH 9 0
BBX 9 11 0 -1
BITMAP
0000
0000
0000
0000
0001
1807
780F
F807
7801
1800
000E
ENDCHAR
STARTCHAR char9654
ENCODING 9665
SWIDTH 613 0
DWIDTH 9 0
BBX 9 11 0 -1
BITMAP
0000
0000
0000
0000
0001
1806
6808
8806
6801
1800
000E
ENDCHAR
STARTCHAR char9656
ENCODING 9666
SWIDTH 613 0
DWIDTH 9 0
BBX 9 11 0 -1
BITMAP
0000
0000
0000
0000
0000
0003
3007
7003
3000
0000
000E
ENDCHAR
STARTCHAR char9657
ENCODING 9667
SWIDTH 613 0
DWIDTH 9 0
BBX 9 11 0 -1
BITMAP
0000
0000
0000
0000
0000
0003
3005
5003
3000
0000
000E
ENDCHAR
STARTCHAR char9658
ENCODING 9668
SWIDTH 613 0
DWIDTH 9 0
BBX 9 11 0 -1
BITMAP
0000
0000
0000
0000
0000
0003
380F
F803
3800
0000
000E
ENDCHAR
STARTCHAR char9659
ENCODING 9669
SWIDTH 613 0
DWIDTH 9 0
BBX 9 11 0 -1
BITMAP
0000
0000
0000
0000
0000
0003
380C
C803
3800
0000
000E
ENDCHAR
STARTCHAR char9670
ENCODING 9670
SWIDTH 613 0
DWIDTH 9 0
BBX 9 11 0 -1
BITMAP
0000
0000
0000
0000
0002
2007
700F
F807
7002
2000
000E
ENDCHAR
STARTCHAR char9670
ENCODING 9671
SWIDTH 613 0
DWIDTH 9 0
BBX 9 11 0 -1
BITMAP
0000
0000
0000
0000
0002
2007
700D
D807
7002
2000
000E
ENDCHAR
STARTCHAR char9672
ENCODING 9672
SWIDTH 613 0
DWIDTH 9 0
BBX 9 11 0 -1
BITMAP
0000
0000
0000
0000
0002
2005
500A
A805
5002
2000
000E
ENDCHAR
STARTCHAR char9673
ENCODING 9673
SWIDTH 613 0
DWIDTH 9 0
BBX 9 11 0 -1
BITMAP
0000
0000
0000
0000
0007
7008
880A
A808
8807
7000
000E
ENDCHAR
STARTCHAR char9674
ENCODING 9674
SWIDTH 613 0
DWIDTH 9 0
BBX 9 11 0 -1
BITMAP
0000
0000
0000
0002
2007
7005
500D
D805
5007
7002
200E
ENDCHAR
STARTCHAR char9675
ENCODING 9675
SWIDTH 613 0
DWIDTH 9 0
BBX 9 11 0 -1
BITMAP
0000
0000
0000
0000
0007
7008
8808
8808
8807
7000
000E
ENDCHAR
STARTCHAR char9675
ENCODING 9676
SWIDTH 613 0
DWIDTH 9 0
BBX 9 11 0 -1
BITMAP
0000
0000
0000
0000
0005
5000
0008
8800
0005
5000
000E
ENDCHAR
STARTCHAR char9677
ENCODING 9677
SWIDTH 613 0
DWIDTH 9 0
BBX 9 11 0 -1
BITMAP
0000
0000
0000
0000
0007
700A
A80A
A80A
A807
7000
000E
ENDCHAR
STARTCHAR char9678
ENCODING 9678
SWIDTH 613 0
DWIDTH 9 0
BBX 9 11 0 -1
BITMAP
0000
0000
0000
0000
0007
7008
880A
A808
8807
7000
000E
ENDCHAR
STARTCHAR char9679
ENCODING 9679
SWIDTH 613 0
DWIDTH 9 0
BBX 9 11 0 -1
BITMAP
0000
0000
0000
0000
0007
700F
F80F
F80F
F807
7000
000E
ENDCHAR
STARTCHAR char9679
ENCODING 9680
SWIDTH 613 0
DWIDTH 9 0
BBX 9 11 0 -1
BITMAP
0000
0000
0000
0000
0007
700E
E80E
E80E
E807
7000
000E
ENDCHAR
STARTCHAR char9679
ENCODING 9681
SWIDTH 613 0
DWIDTH 9 0
BBX 9 11 0 -1
BITMAP
0000
0000
0000
0000
0007
700B
B80B
B80B
B807
7000
000E
ENDCHAR
STARTCHAR char9679
ENCODING 9682
SWIDTH 613 0
DWIDTH 9 0
BBX 9 11 0 -1
BITMAP
0000
0000
0000
0000
0007
7008
880F
F80F
F807
7000
000E
ENDCHAR
STARTCHAR char9679
ENCODING 9683
SWIDTH 613 0
DWIDTH 9 0
BBX 9 11 0 -1
BITMAP
0000
0000
0000
0000
0007
700F
F80F
F808
8807
7000
000E
ENDCHAR
STARTCHAR char9679
ENCODING 9684
SWIDTH 613 0
DWIDTH 9 0
BBX 9 11 0 -1
BITMAP
0000
0000
0000
0000
0007
700B
B80B
B808
8807
7000
000E
ENDCHAR
STARTCHAR char9679
ENCODING 9685
SWIDTH 613 0
DWIDTH 9 0
BBX 9 11 0 -1
BITMAP
0000
0000
0000
0000
0007
700B
B80F
F80F
F807
7000
000E
ENDCHAR
STARTCHAR char9679
ENCODING 9686
SWIDTH 613 0
DWIDTH 9 0
BBX 9 11 0 -1
BITMAP
0000
0000
0000
0000
0006
600E
E00E
E00E
E006
6000
000E
ENDCHAR
STARTCHAR char9679
ENCODING 9687
SWIDTH 613 0
DWIDTH 9 0
BBX 9 11 0 -1
BITMAP
0000
0000
0000
0000
0003
3003
3803
3803
3803
3000
000E
ENDCHAR
STARTCHAR char9688
ENCODING 9688
SWIDTH 613 0
DWIDTH 9 0
BBX 9 11 0 -1
BITMAP
0000
0000
0000
000F
F80F
F80D
D808
880D
D80F
F80F
F80E
ENDCHAR
STARTCHAR char9689
ENCODING 9689
SWIDTH 613 0
DWIDTH 9 0
BBX 9 11 0 -1
BITMAP
0000
0000
0000
000F
F80F
F80D
D80A
A80D
D80F
F80F
F80E
ENDCHAR
STARTCHAR char9632
ENCODING 9703
SWIDTH 613 0
DWIDTH 9 0
BBX 9 11 0 -1
BITMAP
0000
0000
0000
0000
000F
F80E
E80E
E80E
E80F
F800
000E
ENDCHAR
STARTCHAR char9632
ENCODING 9704
SWIDTH 613 0
DWIDTH 9 0
BBX 9 11 0 -1
BITMAP
0000
0000
0000
0000
000F
F80B
B80B
B80B
B80F
F800
000E
ENDCHAR
STARTCHAR char9705
ENCODING 9705
SWIDTH 613 0
DWIDTH 9 0
BBX 9 11 0 -1
BITMAP
0000
0000
0000
0000
000F
F80F
F80E
E80C
C80F
F800
000E
ENDCHAR
STARTCHAR char9706
ENCODING 9706
SWIDTH 613 0
DWIDTH 9 0
BBX 9 11 0 -1
BITMAP
0000
0000
0000
0000
000F
F809
980B
B80F
F80F
F800
000E
ENDCHAR
STARTCHAR char9707
ENCODING 9707
SWIDTH 613 0
DWIDTH 9 0
BBX 9 11 0 -1
BITMAP
0000
0000
0000
0000
000F
F80A
A80A
A80A
A80F
F800
000E
ENDCHAR
STARTCHAR char9650
ENCODING 9708
SWIDTH 613 0
DWIDTH 9 0
BBX 9 11 0 -1
BITMAP
0000
0000
0000
0002
2005
5005
500A
A808
880F
F800
000E
ENDCHAR
STARTCHAR char9650
ENCODING 9709
SWIDTH 613 0
DWIDTH 9 0
BBX 9 11 0 -1
BITMAP
0000
0000
0000
0000
0002
2005
5005
500C
C80F
F800
000E
ENDCHAR
STARTCHAR char9650
ENCODING 9710
SWIDTH 613 0
DWIDTH 9 0
BBX 9 11 0 -1
BITMAP
0000
0000
0000
0000
0002
2005
5005
5009
980F
F800
000E
ENDCHAR
STARTCHAR char9711
ENCODING 9711
SWIDTH 613 0
DWIDTH 9 0
BBX 9 11 0 -1
BITMAP
0000
0000
0000
0000
0007
7008
8808
8808
8807
7000
000E
ENDCHAR
STARTCHAR char9712
ENCODING 9712
SWIDTH 613 0
DWIDTH 9 0
BBX 9 11 0 -1
BITMAP
0000
0000
0000
0000
000F
F80A
A80E
E808
880F
F800
000E
ENDCHAR
STARTCHAR char9712
ENCODING 9713
SWIDTH 613 0
DWIDTH 9 0
BBX 9 11 0 -1
BITMAP
0000
0000
0000
0000
000F
F808
880E
E80A
A80F
F800
000E
ENDCHAR
STARTCHAR char9712
ENCODING 9714
SWIDTH 613 0
DWIDTH 9 0
BBX 9 11 0 -1
BITMAP
0000
0000
0000
0000
000F
F808
880B
B80A
A80F
F800
000E
ENDCHAR
STARTCHAR char9712
ENCODING 9715
SWIDTH 613 0
DWIDTH 9 0
BBX 9 11 0 -1
BITMAP
0000
0000
0000
0000
000F
F80A
A80B
B808
880F
F800
000E
ENDCHAR
STARTCHAR char9712
ENCODING 9716
SWIDTH 613 0
DWIDTH 9 0
BBX 9 11 0 -1
BITMAP
0000
0000
0000
0000
0007
700A
A80E
E808
8807
7000
000E
ENDCHAR
STARTCHAR char9712
ENCODING 9717
SWIDTH 613 0
DWIDTH 9 0
BBX 9 11 0 -1
BITMAP
0000
0000
0000
0000
0007
7008
880E
E80A
A807
7000
000E
ENDCHAR
STARTCHAR char9712
ENCODING 9718
SWIDTH 613 0
DWIDTH 9 0
BBX 9 11 0 -1
BITMAP
0000
0000
0000
0000
0007
7008
880B
B80A
A807
7000
000E
ENDCHAR
STARTCHAR char9712
ENCODING 9719
SWIDTH 613 0
DWIDTH 9 0
BBX 9 11 0 -1
BITMAP
0000
0000
0000
0000
0007
700A
A80B
B808
8807
7000
000E
ENDCHAR
STARTCHAR char9632
ENCODING 9720
SWIDTH 613 0
DWIDTH 9 0
BBX 9 11 0 -1
BITMAP
0000
0000
0000
0000
000F
F809
900A
A00C
C008
8000
000E
ENDCHAR
STARTCHAR char9632
ENCODING 9721
SWIDTH 613 0
DWIDTH 9 0
BBX 9 11 0 -1
BITMAP
0000
0000
0000
0000
000F
F804
4802
2801
1800
0800
000E
ENDCHAR
STARTCHAR char9632
ENCODING 9722
SWIDTH 613 0
DWIDTH 9 0
BBX 9 11 0 -1
BITMAP
0000
0000
0000
0000
0008
800C
C00A
A009
900F
F800
000E
ENDCHAR
STARTCHAR char9632
ENCODING 9723
SWIDTH 613 0
DWIDTH 9 0
BBX 9 11 0 -1
BITMAP
0000
0000
0000
0000
000F
F80F
F80F
F80F
F80F
F800
000E
ENDCHAR
STARTCHAR char9633
ENCODING 9724
SWIDTH 613 0
DWIDTH 9 0
BBX 9 11 0 -1
BITMAP
0000
0000
0000
0000
000F
F808
8808
8808
880F
F800
000E
ENDCHAR
STARTCHAR char9642
ENCODING 9725
SWIDTH 613 0
DWIDTH 9 0
BBX 9 11 0 -1
BITMAP
0000
0000
0000
0000
0000
0007
7007
7007
7000
0000
000E
ENDCHAR
STARTCHAR char9643
ENCODING 9726
SWIDTH 613 0
DWIDTH 9 0
BBX 9 11 0 -1
BITMAP
0000
0000
0000
0000
0000
0007
7005
5007
7000
0000
000E
ENDCHAR
STARTCHAR char9632
ENCODING 9727
SWIDTH 613 0
DWIDTH 9 0
BBX 9 11 0 -1
BITMAP
0000
0000
0000
0000
0000
0801
1802
2804
480F
F800
000E
ENDCHAR
STARTCHAR char9728
ENCODING 9728
SWIDTH 613 0
DWIDTH 9 0
BBX 9 11 0 -1
BITMAP
0000
0000
0000
0000
000A
A807
700F
F807
700A
A800
000E
ENDCHAR
STARTCHAR char9729
ENCODING 9729
SWIDTH 613 0
DWIDTH 9 0
BBX 9 11 0 -1
BITMAP
0000
0000
0000
0000
0000
0003
300F
F80F
F807
7000
000E
ENDCHAR
STARTCHAR char9730
ENCODING 9730
SWIDTH 613 0
DWIDTH 9 0
BBX 9 11 0 -1
BITMAP
0000
0000
0000
0000
0007
700F
F80F
F802
200A
A00E
E00E
ENDCHAR
STARTCHAR char9731
ENCODING 9731
SWIDTH 613 0
DWIDTH 9 0
BBX 9 11 0 -1
BITMAP
0002
2802
2802
280B
B007
700F
F808
880A
A808
880F
F80E
ENDCHAR
STARTCHAR char9732
ENCODING 9732
SWIDTH 613 0
DWIDTH 9 0
BBX 9 11 0 -1
BITMAP
0000
0000
0000
0004
4800
0005
5000
000E
E00A
A00E
E00E
ENDCHAR
STARTCHAR char9733
ENCODING 9733
SWIDTH 613 0
DWIDTH 9 0
BBX 9 11 0 -1
BITMAP
0000
0000
0000
0000
0002
200F
F807
7007
7005
5000
000E
ENDCHAR
STARTCHAR char9733
ENCODING 9734
SWIDTH 613 0
DWIDTH 9 0
BBX 9 11 0 -1
BITMAP
0000
0000
0000
0000
0002
200F
F805
5007
7005
5000
000E
ENDCHAR
STARTCHAR char9735
ENCODING 9735
SWIDTH 613 0
DWIDTH 9 0
BBX 9 11 0 -1
BITMAP
0002
2002
2002
2002
200E
E008
800E
E002
2007
7002
200E
ENDCHAR
STARTCHAR char9736
ENCODING 9736
SWIDTH 613 0
DWIDTH 9 0
BBX 9 11 0 -1
BITMAP
0000
0000
0000
000F
F808
8809
9809
9009
900B
B801
100E
ENDCHAR
STARTCHAR char9737
ENCODING 9737
SWIDTH 613 0
DWIDTH 9 0
BBX 9 11 0 -1
BITMAP
0000
0000
0000
0000
000F
F808
880A
A808
880F
F800
000E
ENDCHAR
STARTCHAR char9738
ENCODING 9738
SWIDTH 613 0
DWIDTH 9 0
BBX 9 11 0 -1
BITMAP
0000
0000
0000
000F
F808
880D
D805
500D
D80D
D800
000E
ENDCHAR
STARTCHAR char9738
ENCODING 9739
SWIDTH 613 0
DWIDTH 9 0
BBX 9 11 0 -1
BITMAP
0000
0000
0000
000D
D80D
D805
500D
D808
880F
F800
000E
ENDCHAR
STARTCHAR char9740
ENCODING 9740
SWIDTH 613 0
DWIDTH 9 0
BBX 9 11 0 -1
BITMAP
0000
0000
0000
0000
0000
0801
100E
E00A
A00E
E000
000E
ENDCHAR
STARTCHAR char9741
ENCODING 9741
SWIDTH 613 0
DWIDTH 9 0
BBX 9 11 0 -1
BITMAP
0000
0000
0000
0003
3802
2803
380E
E00A
A00E
E000
000E
ENDCHAR
STARTCHAR char9742
ENCODING 9742
SWIDTH 613 0
DWIDTH 9 0
BBX 9 11 0 -1
BITMAP
0000
0000
0000
0007
700D
D800
0007
700D
D80F
F800
000E
ENDCHAR
STARTCHAR char9743
ENCODING 9743
SWIDTH 613 0
DWIDTH 9 0
BBX 9 11 0 -1
BITMAP
0007
7007
7007
7008
880A
A80F
F80D
D80A
A808
880F
F80E
ENDCHAR
STARTCHAR char9744
ENCODING 9744
SWIDTH 613 0
DWIDTH 9 0
BBX 9 11 0 -1
BITMAP
0000
0000
0000
0000
000F
F808
8808
8808
880F
F800
000E
ENDCHAR
STARTCHAR char9745
ENCODING 9745
SWIDTH 613 0
DWIDTH 9 0
BBX 9 11 0 -1
BITMAP
0000
0000
0000
0000
000F
F80E
E80A
A80D
D80F
F800
000E
ENDCHAR
STARTCHAR char9746
ENCODING 9746
SWIDTH 613 0
DWIDTH 9 0
BBX 9 11 0 -1
BITMAP
0000
0000
0000
0000
000F
F80A
A80D
D80A
A80F
F800
000E
ENDCHAR
STARTCHAR char9747
ENCODING 9747
SWIDTH 613 0
DWIDTH 9 0
BBX 9 11 0 -1
BITMAP
0000
0000
0000
0000
0008
8805
5002
2005
5008
8800
000E
ENDCHAR
STARTCHAR char9730
ENCODING 9748
SWIDTH 613 0
DWIDTH 9 0
BBX 9 11 0 -1
BITMAP
0002
2802
2802
2809
9007
700F
F80F
F802
200A
A00E
E00E
ENDCHAR
STARTCHAR char9749
ENCODING 9749
SWIDTH 613 0
DWIDTH 9 0
BBX 9 11 0 -1
BITMAP
0002
2002
2002
2004
4002
200F
F80F
F80F
F807
700F
F80E
ENDCHAR
STARTCHAR char9750
ENCODING 9750
SWIDTH 613 0
DWIDTH 9 0
BBX 9 11 0 -1
BITMAP
0002
2002
2002
2007
700D
D808
8808
8808
880F
F800
000E
ENDCHAR
STARTCHAR char9750
ENCODING 9751
SWIDTH 613 0
DWIDTH 9 0
BBX 9 11 0 -1
BITMAP
0002
2002
2002
2007
700F
F80F
F80F
F80F
F80F
F800
000E
ENDCHAR
STARTCHAR char9752
ENCODING 9752
SWIDTH 613 0
DWIDTH 9 0
BBX 9 11 0 -1
BITMAP
0007
7007
7007
7007
7002
200F
F80D
D802
2007
7000
000E
ENDCHAR
STARTCHAR char9753
ENCODING 9753
SWIDTH 613 0
DWIDTH 9 0
BBX 9 11 0 -1
BITMAP
0000
0000
0000
0000
0000
0000
0006
6807
780E
E800
000E
ENDCHAR
STARTCHAR char9754
ENCODING 9754
SWIDTH 613 0
DWIDTH 9 0
BBX 9 11 0 -1
BITMAP
0000
0000
0000
0000
0000
000F
F803
3803
3801
1800
000E
ENDCHAR
STARTCHAR char9754
ENCODING 9755
SWIDTH 613 0
DWIDTH 9 0
BBX 9 11 0 -1
BITMAP
0000
0000
0000
0000
0000
000F
F80E
E00E
E00C
C000
000E
ENDCHAR
STARTCHAR char9754
ENCODING 9756
SWIDTH 613 0
DWIDTH 9 0
BBX 9 11 0 -1
BITMAP
0000
0000
0000
0000
0000
000F
F802
2802
2801
1800
000E
ENDCHAR
STARTCHAR char9754
ENCODING 9757
SWIDTH 613 0
DWIDTH 9 0
BBX 9 11 0 -1
BITMAP
0000
0000
0000
0001
1001
1007
7009
9009
900F
F000
000E
ENDCHAR
STARTCHAR char9754
ENCODING 9758
SWIDTH 613 0
DWIDTH 9 0
BBX 9 11 0 -1
BITMAP
0000
0000
0000
0000
0000
000F
F80A
A00A
A00C
C000
000E
ENDCHAR
STARTCHAR char9754
ENCODING 9759
SWIDTH 613 0
DWIDTH 9 0
BBX 9 11 0 -1
BITMAP
0000
0000
0000
000F
F009
9009
9007
7001
1001
1000
000E
ENDCHAR
STARTCHAR char9760
ENCODING 9760
SWIDTH 613 0
DWIDTH 9 0
BBX 9 11 0 -1
BITMAP
0000
0000
0000
000F
F808
880D
D80A
A805
5007
7008
880E
ENDCHAR
STARTCHAR char9761
ENCODING 9761
SWIDTH 613 0
DWIDTH 9 0
BBX 9 11 0 -1
BITMAP
0000
0000
0000
000F
F001
1003
300C
C008
800F
F000
000E
ENDCHAR
STARTCHAR char9762
ENCODING 9762
SWIDTH 613 0
DWIDTH 9 0
BBX 9 11 0 -1
BITMAP
0000
0000
0000
0007
700A
A80A
A80D
D80D
D807
7000
000E
ENDCHAR
STARTCHAR char9763
ENCODING 9763
SWIDTH 613 0
DWIDTH 9 0
BBX 9 11 0 -1
BITMAP
0000
0000
0000
0000
0005
500F
F802
2007
7005
5000
000E
ENDCHAR
STARTCHAR char9764
ENCODING 9764
SWIDTH 613 0
DWIDTH 9 0
BBX 9 11 0 -1
BITMAP
0002
2002
2002
200F
F807
7002
2007
7002
2007
7002
200E
ENDCHAR
STARTCHAR char9765
ENCODING 9765
SWIDTH 613 0
DWIDTH 9 0
BBX 9 11 0 -1
BITMAP
0000
0000
0000
0007
7005
500F
F802
2002
2002
2000
000E
ENDCHAR
STARTCHAR char9766
ENCODING 9766
SWIDTH 613 0
DWIDTH 9 0
BBX 9 11 0 -1
BITMAP
0002
2002
2002
2007
7002
200F
F802
2003
3006
6002
200E
ENDCHAR
STARTCHAR char9767
ENCODING 9767
SWIDTH 613 0
DWIDTH 9 0
BBX 9 11 0 -1
BITMAP
0000
0000
0000
0003
3802
2803
3802
2007
7002
2005
500E
ENDCHAR
STARTCHAR char9768
ENCODING 9768
SWIDTH 613 0
DWIDTH 9 0
BBX 9 11 0 -1
BITMAP
0000
0000
0000
0002
2007
7002
200F
F802
2002
2000
000E
ENDCHAR
STARTCHAR char9769
ENCODING 9769
SWIDTH 613 0
DWIDTH 9 0
BBX 9 11 0 -1
BITMAP
0000
0000
0000
0007
7002
200A
A80F
F80A
A802
2007
700E
ENDCHAR
ENDFONT
